if (_typeface_js && _typeface_js.loadFace) _typeface_js.loadFace({"glyphs":{"0":{"ha":794,"x_min":69,"x_max":725,"o":"m 725 497 q 641 876 725 745 q 396 1007 557 1007 q 150 882 231 1007 q 69 497 69 756 q 153 116 69 246 q 396 -14 236 -14 q 644 113 563 -14 q 725 497 725 240 m 183 497 q 234 811 183 713 q 396 909 285 909 q 559 810 509 909 q 610 497 610 711 q 559 183 610 283 q 396 83 509 83 q 234 182 285 83 q 183 497 183 281 "},"1":{"ha":794,"x_min":127,"x_max":485,"o":"m 485 0 l 485 991 l 390 991 l 127 789 l 187 711 q 349 844 331 828 q 380 873 366 859 q 375 707 375 795 l 375 0 l 485 0 "},"2":{"ha":794,"x_min":68,"x_max":720,"o":"m 720 0 l 720 104 l 210 104 l 210 110 l 427 322 q 625 555 572 463 q 677 742 677 648 q 598 934 677 863 q 379 1006 519 1006 q 81 892 218 1006 l 140 815 q 263 889 208 869 q 380 909 319 909 q 514 863 466 909 q 562 737 562 817 q 543 632 562 681 q 486 532 524 583 q 329 359 448 480 l 68 97 l 68 0 l 720 0 "},"3":{"ha":794,"x_min":64,"x_max":713,"o":"m 682 758 q 602 940 682 873 q 378 1006 522 1006 q 210 978 290 1006 q 69 903 130 951 l 126 827 q 258 892 200 874 q 380 909 315 909 q 516 868 466 909 q 566 754 566 827 q 498 612 566 663 q 314 561 430 561 l 215 561 l 215 464 l 313 464 q 596 283 596 464 q 339 82 596 82 q 201 99 274 82 q 64 147 128 115 l 64 40 q 191 -2 125 10 q 335 -14 256 -14 q 614 63 516 -14 q 713 281 713 139 q 655 441 713 380 q 478 517 597 502 l 478 522 q 629 603 576 543 q 682 758 682 663 "},"4":{"ha":794,"x_min":29,"x_max":766,"o":"m 766 228 l 766 330 l 619 330 l 619 997 l 500 997 l 29 326 l 29 228 l 511 228 l 511 0 l 619 0 l 619 228 l 766 228 m 511 330 l 142 330 l 452 771 q 513 879 480 814 l 518 879 q 511 660 511 757 l 511 330 "},"5":{"ha":794,"x_min":90,"x_max":714,"o":"m 378 606 q 222 590 300 606 l 248 888 l 644 888 l 644 991 l 151 991 l 114 528 l 172 490 q 345 510 280 510 q 599 302 599 510 q 533 140 599 196 q 347 83 467 83 q 208 101 279 83 q 90 149 138 118 l 90 40 q 346 -14 178 -14 q 616 74 518 -14 q 714 315 714 161 q 624 528 714 450 q 378 606 534 606 "},"6":{"ha":794,"x_min":79,"x_max":726,"o":"m 79 424 q 170 102 79 218 q 414 -14 260 -14 q 642 75 557 -14 q 726 318 726 163 q 649 537 726 456 q 439 618 572 618 q 203 501 277 618 l 195 501 q 287 813 203 714 q 530 913 371 913 q 650 896 597 913 l 650 993 q 529 1006 606 1006 q 193 861 307 1006 q 79 424 79 716 m 412 82 q 299 117 349 82 q 222 213 249 153 q 195 343 195 273 q 225 435 195 391 q 306 504 255 479 q 418 529 357 529 q 566 473 516 529 q 615 318 615 416 q 562 143 615 203 q 412 82 509 82 "},"7":{"ha":794,"x_min":64,"x_max":724,"o":"m 193 0 l 318 0 l 724 901 l 724 991 l 64 991 l 64 888 l 604 888 l 193 0 "},"8":{"ha":794,"x_min":71,"x_max":722,"o":"m 396 1006 q 183 942 262 1006 q 103 770 103 878 q 144 632 103 694 q 278 518 184 571 q 71 253 71 423 q 156 56 71 125 q 400 -14 241 -14 q 636 60 550 -14 q 722 257 722 134 q 671 404 722 340 q 500 525 621 467 q 645 635 600 574 q 690 768 690 695 q 611 943 690 880 q 396 1006 532 1006 m 182 250 q 227 376 182 323 q 374 472 273 429 q 558 373 505 424 q 611 256 611 321 q 555 125 611 173 q 397 78 498 78 q 238 123 295 78 q 182 250 182 169 m 395 914 q 530 874 481 914 q 579 765 579 833 q 539 656 579 703 q 401 568 498 609 q 254 658 294 613 q 214 765 214 703 q 262 873 214 833 q 395 914 310 914 "},"9":{"ha":794,"x_min":72,"x_max":720,"o":"m 720 568 q 679 803 720 703 q 563 954 638 902 q 386 1006 487 1006 q 158 916 245 1006 q 72 672 72 827 q 149 452 72 531 q 358 374 227 374 q 497 403 435 374 q 596 489 559 433 l 604 489 q 514 180 597 281 q 268 79 431 79 q 144 97 199 79 l 144 0 q 269 -14 191 -14 q 720 568 720 -14 m 386 909 q 500 875 450 909 q 578 780 550 840 q 606 648 606 720 q 576 557 606 601 q 494 489 546 514 q 380 464 442 464 q 232 520 281 464 q 183 673 183 576 q 236 847 183 785 q 386 909 289 909 "}," ":{"ha":361,"x_min":0,"x_max":0,"o":""},"!":{"ha":371,"x_min":103,"x_max":267,"o":"m 221 273 l 256 991 l 115 991 l 150 273 l 221 273 m 103 72 q 126 2 103 23 q 184 -20 149 -20 q 245 4 223 -20 q 267 72 267 28 q 245 140 267 117 q 184 164 224 164 q 103 72 103 164 "},"\"":{"ha":557,"x_min":90,"x_max":467,"o":"m 216 991 l 90 991 l 118 633 l 189 633 l 216 991 m 467 991 l 340 991 l 368 633 l 439 633 l 467 991 "},"#":{"ha":897,"x_min":35,"x_max":861,"o":"m 665 610 l 861 610 l 861 696 l 682 696 l 739 991 l 648 991 l 591 696 l 385 696 l 440 991 l 346 991 l 290 696 l 87 696 l 87 610 l 275 610 l 229 379 l 35 379 l 35 292 l 212 292 l 158 0 l 250 0 l 306 292 l 511 292 l 454 0 l 547 0 l 604 292 l 812 292 l 812 379 l 621 379 l 665 610 m 322 379 l 367 610 l 572 610 l 528 379 l 322 379 "},"$":{"ha":794,"x_min":89,"x_max":703,"o":"m 703 304 q 677 406 703 364 q 600 480 652 448 q 440 546 547 512 l 440 840 q 646 793 545 833 l 681 882 q 440 932 565 928 l 440 1054 l 353 1054 l 353 930 q 171 861 239 918 q 102 715 102 804 q 158 565 102 623 q 353 463 214 507 l 353 164 q 219 180 292 164 q 89 221 145 196 l 89 115 q 205 82 134 94 q 353 71 277 71 l 353 -81 l 440 -81 l 440 77 q 633 152 564 92 q 703 304 703 212 m 587 296 q 440 171 587 191 l 440 435 q 557 375 527 405 q 587 296 587 345 m 216 717 q 251 795 216 764 q 353 838 286 827 l 353 575 q 247 634 277 603 q 216 717 216 665 "},"%":{"ha":1143,"x_min":71,"x_max":1072,"o":"m 164 696 q 189 868 164 811 q 271 925 214 925 q 382 696 382 925 q 271 465 382 465 q 189 523 214 465 q 164 696 164 581 m 475 696 q 422 925 475 844 q 271 1006 369 1006 q 121 928 172 1006 q 71 696 71 850 q 123 464 71 545 q 271 383 176 383 q 423 462 371 383 q 475 696 475 541 m 761 298 q 786 470 761 414 q 868 526 811 526 q 952 470 925 526 q 979 298 979 414 q 952 124 979 181 q 868 68 925 68 q 786 125 811 68 q 761 298 761 182 m 1072 298 q 1018 529 1072 449 q 868 608 964 608 q 719 530 769 608 q 668 298 668 452 q 720 67 668 148 q 868 -14 772 -14 q 1020 65 968 -14 q 1072 298 1072 144 m 897 991 l 798 991 l 248 0 l 347 0 l 897 991 "},"&":{"ha":1014,"x_min":77,"x_max":1011,"o":"m 281 794 q 318 882 281 849 q 416 914 356 914 q 510 881 475 914 q 545 796 545 848 q 510 697 545 740 q 389 603 476 654 q 305 705 330 663 q 281 794 281 747 m 386 87 q 246 134 298 87 q 193 260 193 180 q 208 338 193 304 q 254 403 223 373 q 361 479 286 433 l 657 192 q 386 87 549 87 m 77 257 q 157 58 77 130 q 383 -14 237 -14 q 568 18 485 -14 q 730 121 650 49 l 856 0 l 1011 0 l 808 197 q 947 492 901 298 l 833 492 q 795 368 818 425 q 734 269 772 311 l 458 534 q 611 659 565 597 q 657 793 657 720 q 594 950 657 894 q 421 1007 531 1007 q 236 950 302 1007 q 170 791 170 893 q 182 717 170 753 q 215 648 194 681 q 293 550 235 614 q 124 413 171 481 q 77 257 77 345 "},"'":{"ha":307,"x_min":90,"x_max":216,"o":"m 216 991 l 90 991 l 118 633 l 189 633 l 216 991 "},"(":{"ha":411,"x_min":56,"x_max":370,"o":"m 56 380 q 108 50 56 203 q 260 -220 160 -104 l 368 -220 q 224 64 274 -92 q 174 382 174 219 q 223 704 174 547 q 370 991 272 861 l 260 991 q 108 717 161 873 q 56 380 56 560 "},")":{"ha":411,"x_min":41,"x_max":355,"o":"m 355 380 q 303 716 355 559 q 151 991 251 873 l 41 991 q 188 704 139 861 q 237 382 237 547 q 187 63 237 219 q 43 -220 137 -92 l 151 -220 q 303 48 250 -106 q 355 380 355 202 "},"*":{"ha":766,"x_min":58,"x_max":704,"o":"m 446 1055 l 314 1055 l 343 787 l 78 863 l 58 739 l 314 718 l 150 497 l 269 433 l 378 679 l 497 433 l 614 497 l 446 718 l 704 739 l 686 863 l 416 787 l 446 1055 "},"+":{"ha":794,"x_min":71,"x_max":722,"o":"m 443 536 l 443 827 l 349 827 l 349 536 l 71 536 l 71 443 l 349 443 l 349 154 l 443 154 l 443 443 l 722 443 l 722 536 l 443 536 "},",":{"ha":340,"x_min":43,"x_max":248,"o":"m 237 161 l 114 161 q 83 -5 105 99 q 43 -179 61 -109 l 127 -179 q 197 -12 163 -102 q 248 146 230 78 l 237 161 "},"-":{"ha":447,"x_min":57,"x_max":390,"o":"m 57 321 l 390 321 l 390 424 l 57 424 l 57 321 "},".":{"ha":370,"x_min":103,"x_max":267,"o":"m 103 72 q 126 2 103 23 q 183 -20 149 -20 q 244 4 222 -20 q 267 72 267 28 q 244 141 267 117 q 183 164 222 164 q 124 141 144 164 q 103 72 103 117 "},"/":{"ha":510,"x_min":14,"x_max":496,"o":"m 496 991 l 383 991 l 14 0 l 126 0 l 496 991 "},":":{"ha":370,"x_min":103,"x_max":267,"o":"m 103 72 q 126 2 103 23 q 183 -20 149 -20 q 244 4 222 -20 q 267 72 267 28 q 244 141 267 117 q 183 164 222 164 q 124 141 144 164 q 103 72 103 117 m 103 671 q 126 601 103 622 q 183 579 149 579 q 244 603 222 579 q 267 671 267 627 q 183 762 267 762 q 103 671 103 762 "},";":{"ha":370,"x_min":43,"x_max":264,"o":"m 237 161 l 114 161 q 83 -5 105 99 q 43 -179 61 -109 l 127 -179 q 197 -12 163 -102 q 248 146 230 78 l 237 161 m 100 671 q 120 603 100 627 q 180 579 141 579 q 241 603 219 579 q 264 671 264 627 q 180 762 264 762 q 100 671 100 762 "},"<":{"ha":794,"x_min":71,"x_max":722,"o":"m 722 164 l 722 267 l 192 489 l 722 741 l 722 842 l 71 517 l 71 450 l 722 164 "},"=":{"ha":794,"x_min":81,"x_max":711,"o":"m 81 582 l 711 582 l 711 675 l 81 675 l 81 582 m 81 304 l 711 304 l 711 397 l 81 397 l 81 304 "},">":{"ha":794,"x_min":71,"x_max":722,"o":"m 71 267 l 71 164 l 722 450 l 722 517 l 71 842 l 71 741 l 602 488 l 71 267 "},"?":{"ha":596,"x_min":18,"x_max":559,"o":"m 196 273 l 283 273 l 283 296 q 306 399 283 360 q 396 496 328 437 q 507 604 481 570 q 546 675 533 637 q 559 762 559 713 q 488 942 559 878 q 286 1006 416 1006 q 18 939 146 1006 l 58 847 q 175 893 124 880 q 279 905 226 905 q 407 868 363 905 q 452 761 452 830 q 428 666 452 705 q 311 549 404 627 q 220 440 245 492 q 196 310 196 389 l 196 273 m 163 72 q 186 2 163 23 q 244 -20 209 -20 q 304 4 283 -20 q 326 72 326 28 q 305 140 326 117 q 244 164 283 164 q 163 72 163 164 "},"@":{"ha":1249,"x_min":82,"x_max":1166,"o":"m 1166 494 q 1104 754 1166 642 q 929 929 1042 867 q 669 990 815 990 q 361 915 496 990 q 155 701 227 839 q 82 387 82 564 q 218 9 82 144 q 600 -126 354 -126 q 896 -69 766 -126 l 896 21 q 600 -37 743 -37 q 286 74 395 -37 q 176 392 176 185 q 235 661 176 545 q 406 840 294 777 q 669 903 518 903 q 882 853 789 903 q 1025 711 975 803 q 1075 496 1075 618 q 1036 306 1075 379 q 936 233 998 233 q 846 354 846 233 l 846 369 l 863 688 q 758 711 816 703 q 653 720 699 720 q 443 633 523 720 q 363 408 363 547 q 420 219 363 289 q 579 150 477 150 q 699 183 648 150 q 777 275 749 216 l 782 275 q 829 185 789 220 q 928 150 869 150 q 1053 194 998 150 q 1137 318 1107 238 q 1166 494 1166 398 m 465 406 q 515 575 465 514 q 653 636 565 636 q 760 623 711 636 l 750 446 q 597 233 738 233 q 465 406 465 233 "},"A":{"ha":879,"x_min":0,"x_max":879,"o":"m 760 0 l 879 0 l 489 996 l 392 996 l 0 0 l 117 0 l 239 315 l 636 315 l 760 0 m 600 419 l 279 419 l 396 726 q 439 869 424 804 q 485 726 463 785 l 600 419 "},"B":{"ha":900,"x_min":136,"x_max":823,"o":"m 136 991 l 136 0 l 482 0 q 733 75 644 0 q 823 282 823 149 q 597 519 823 481 l 597 526 q 741 601 692 543 q 790 746 790 658 q 702 932 790 873 q 416 991 614 991 l 136 991 m 252 567 l 252 892 l 421 892 q 611 855 551 892 q 671 734 671 818 q 617 605 671 644 q 441 567 564 567 l 252 567 m 252 469 l 449 469 q 638 426 576 469 q 700 290 700 382 q 639 145 700 191 q 458 98 578 98 l 252 98 l 252 469 "},"C":{"ha":876,"x_min":85,"x_max":835,"o":"m 561 903 q 786 850 673 903 l 835 949 q 562 1006 718 1006 q 308 943 416 1006 q 142 766 199 881 q 85 497 85 650 q 204 119 85 252 q 542 -14 323 -14 q 796 25 693 -14 l 796 126 q 559 89 663 89 q 299 195 391 89 q 208 496 208 301 q 303 794 208 685 q 561 903 397 903 "},"D":{"ha":1013,"x_min":136,"x_max":928,"o":"m 928 505 q 800 863 928 735 q 440 991 671 991 l 136 991 l 136 0 l 411 0 q 794 130 661 0 q 928 505 928 260 m 806 501 q 702 201 806 302 q 392 100 598 100 l 252 100 l 252 892 l 419 892 q 708 793 611 892 q 806 501 806 695 "},"E":{"ha":772,"x_min":136,"x_max":689,"o":"m 689 0 l 689 103 l 252 103 l 252 468 l 663 468 l 663 570 l 252 570 l 252 889 l 689 889 l 689 991 l 136 991 l 136 0 l 689 0 "},"F":{"ha":717,"x_min":136,"x_max":689,"o":"m 252 0 l 252 424 l 663 424 l 663 526 l 252 526 l 252 889 l 689 889 l 689 991 l 136 991 l 136 0 l 252 0 "},"G":{"ha":1011,"x_min":85,"x_max":909,"o":"m 572 519 l 572 416 l 794 416 l 794 111 q 593 87 696 87 q 305 191 403 87 q 207 496 207 295 q 309 795 207 687 q 591 903 410 903 q 850 846 715 903 l 895 947 q 599 1006 758 1006 q 326 944 442 1006 q 147 767 209 883 q 85 496 85 650 q 210 120 85 254 q 561 -14 336 -14 q 749 -1 668 -14 q 909 37 831 12 l 909 519 l 572 519 "},"H":{"ha":1025,"x_min":136,"x_max":889,"o":"m 889 0 l 889 991 l 774 991 l 774 570 l 252 570 l 252 991 l 136 991 l 136 0 l 252 0 l 252 467 l 774 467 l 774 0 l 889 0 "},"J":{"ha":371,"x_min":-109,"x_max":244,"o":"m -8 -261 q 179 -190 114 -261 q 244 9 244 -119 l 244 991 l 129 991 l 129 0 q 94 -117 129 -77 q -8 -158 59 -158 q -109 -144 -60 -158 l -109 -243 q -8 -261 -72 -261 "},"K":{"ha":852,"x_min":136,"x_max":852,"o":"m 852 0 l 439 561 l 838 991 l 701 991 l 252 500 l 252 991 l 136 991 l 136 0 l 252 0 l 252 389 l 355 481 l 717 0 l 852 0 "},"L":{"ha":721,"x_min":136,"x_max":689,"o":"m 136 0 l 689 0 l 689 104 l 252 104 l 252 991 l 136 991 l 136 0 "},"M":{"ha":1254,"x_min":136,"x_max":1118,"o":"m 575 0 l 668 0 l 1007 878 l 1013 878 q 1003 639 1003 749 l 1003 0 l 1118 0 l 1118 991 l 946 991 l 629 174 l 624 174 l 310 991 l 136 991 l 136 0 l 243 0 l 243 631 q 233 879 243 774 l 239 879 l 575 0 "},"N":{"ha":1047,"x_min":136,"x_max":911,"o":"m 911 0 l 911 991 l 803 991 l 803 422 q 806 280 802 380 q 812 163 811 181 l 807 163 l 267 991 l 136 991 l 136 0 l 243 0 l 243 564 q 232 832 243 686 l 237 832 l 779 0 l 911 0 "},"O":{"ha":1082,"x_min":85,"x_max":997,"o":"m 997 497 q 877 871 997 736 q 543 1007 757 1007 q 204 874 323 1007 q 85 498 85 741 q 204 120 85 254 q 542 -14 323 -14 q 877 123 756 -14 q 997 497 997 259 m 207 497 q 293 800 207 696 q 543 904 378 904 q 791 801 707 904 q 875 497 875 697 q 791 191 875 295 q 542 87 707 87 q 293 192 378 87 q 207 497 207 296 "},"P":{"ha":836,"x_min":136,"x_max":765,"o":"m 765 703 q 393 991 765 991 l 136 991 l 136 0 l 252 0 l 252 390 l 368 390 q 662 471 559 390 q 765 703 765 552 m 252 489 l 252 892 l 380 892 q 581 844 517 892 q 646 697 646 795 q 577 538 646 588 q 355 489 509 489 l 252 489 "},"Q":{"ha":1082,"x_min":85,"x_max":997,"o":"m 997 497 q 877 871 997 736 q 543 1007 757 1007 q 204 874 323 1007 q 85 498 85 741 q 204 120 85 254 q 542 -14 323 -14 l 579 -12 l 772 -236 l 940 -236 l 704 9 q 920 180 844 54 q 997 497 997 307 m 207 497 q 293 800 207 696 q 543 904 378 904 q 791 801 707 904 q 875 497 875 697 q 791 191 875 295 q 542 87 707 87 q 293 192 378 87 q 207 497 207 296 "},"R":{"ha":859,"x_min":136,"x_max":835,"o":"m 252 412 l 458 412 l 699 0 l 835 0 l 566 446 q 765 711 765 515 q 678 922 765 852 q 408 991 591 991 l 136 991 l 136 0 l 252 0 l 252 412 m 252 511 l 252 890 l 401 890 q 588 847 530 890 q 646 705 646 804 q 589 560 646 608 q 410 511 532 511 l 252 511 "},"S":{"ha":762,"x_min":72,"x_max":696,"o":"m 696 264 q 637 429 696 366 q 422 549 578 493 q 284 609 330 582 q 220 670 239 637 q 201 754 201 703 q 253 863 201 824 q 396 903 304 903 q 635 851 512 903 l 671 951 q 399 1006 547 1006 q 171 938 257 1006 q 85 755 85 870 q 144 578 85 646 q 342 461 203 511 q 489 398 441 426 q 558 337 538 370 q 579 253 579 304 q 521 131 579 175 q 347 87 463 87 q 205 102 277 87 q 72 143 133 117 l 72 32 q 343 -14 167 -14 q 601 60 506 -14 q 696 264 696 133 "},"T":{"ha":768,"x_min":12,"x_max":755,"o":"m 441 0 l 441 889 l 755 889 l 755 991 l 12 991 l 12 889 l 326 889 l 326 0 l 441 0 "},"U":{"ha":1011,"x_min":126,"x_max":885,"o":"m 885 991 l 770 991 l 770 346 q 702 154 770 221 q 509 87 634 87 q 309 154 377 87 q 241 345 241 220 l 241 991 l 126 991 l 126 353 q 224 84 126 182 q 501 -14 322 -14 q 783 83 680 -14 q 885 350 885 180 l 885 991 "},"V":{"ha":827,"x_min":0,"x_max":827,"o":"m 703 991 l 476 354 q 412 135 437 245 q 350 350 389 239 l 122 991 l 0 991 l 355 0 l 469 0 l 827 991 l 703 991 "},"W":{"ha":1286,"x_min":18,"x_max":1267,"o":"m 1002 0 l 1267 991 l 1145 991 l 989 380 q 940 146 953 242 q 885 383 918 278 l 699 991 l 576 991 l 399 389 q 345 146 363 270 q 297 379 330 250 l 140 991 l 18 991 l 282 0 l 396 0 l 590 660 q 637 856 623 766 q 656 775 638 842 q 688 664 673 708 l 888 0 l 1002 0 "},"X":{"ha":802,"x_min":5,"x_max":796,"o":"m 796 0 l 465 522 l 772 991 l 650 991 l 401 599 l 155 991 l 28 991 l 335 518 l 5 0 l 127 0 l 399 436 l 665 0 l 796 0 "},"Y":{"ha":778,"x_min":0,"x_max":778,"o":"m 389 496 l 126 991 l 0 991 l 330 379 l 330 0 l 447 0 l 447 385 l 778 991 l 653 991 l 389 496 "},"Z":{"ha":793,"x_min":56,"x_max":737,"o":"m 737 0 l 737 104 l 196 104 l 722 901 l 722 991 l 72 991 l 72 888 l 582 888 l 56 90 l 56 0 l 737 0 "},"[":{"ha":457,"x_min":113,"x_max":422,"o":"m 422 -220 l 422 -123 l 227 -123 l 227 896 l 422 896 l 422 991 l 113 991 l 113 -220 l 422 -220 "},"\\":{"ha":510,"x_min":16,"x_max":497,"o":"m 126 991 l 16 991 l 385 0 l 497 0 l 126 991 "},"]":{"ha":457,"x_min":35,"x_max":345,"o":"m 35 -123 l 35 -220 l 345 -220 l 345 991 l 35 991 l 35 896 l 231 896 l 231 -123 l 35 -123 "},"^":{"ha":753,"x_min":33,"x_max":718,"o":"m 33 374 l 136 374 l 363 879 l 615 374 l 718 374 l 395 999 l 328 999 l 33 374 "},"_":{"ha":623,"x_min":-3,"x_max":625,"o":"m 625 -214 l 625 -125 l -3 -125 l -3 -214 l 625 -214 "},"`":{"ha":802,"x_min":267,"x_max":533,"o":"m 533 842 l 533 859 q 465 956 503 895 q 404 1064 426 1017 l 267 1064 l 267 1050 q 354 942 294 1007 q 458 842 414 877 l 533 842 "},"a":{"ha":772,"x_min":64,"x_max":660,"o":"m 576 0 l 660 0 l 660 507 q 596 696 660 637 q 399 755 532 755 q 268 739 333 755 q 147 692 202 722 l 182 606 q 392 663 299 663 q 512 621 475 663 q 550 492 550 579 l 550 446 l 424 441 q 64 205 64 431 q 126 43 64 100 q 300 -14 189 -14 q 438 11 382 -14 q 549 106 493 36 l 554 106 l 576 0 m 322 79 q 219 111 256 79 q 182 204 182 143 q 241 319 182 282 q 435 361 300 356 l 547 366 l 547 298 q 487 137 547 195 q 322 79 427 79 "},"b":{"ha":851,"x_min":119,"x_max":774,"o":"m 465 755 q 232 644 311 755 l 227 644 q 232 799 232 713 l 232 1055 l 119 1055 l 119 0 l 200 0 l 224 96 l 232 96 q 333 13 273 40 q 465 -14 393 -14 q 692 88 610 -14 q 774 372 774 189 q 693 655 774 555 q 465 755 612 755 m 449 661 q 606 590 555 661 q 657 374 657 519 q 606 156 657 232 q 452 81 555 81 q 284 148 336 81 q 232 372 232 216 q 283 595 232 529 q 449 661 334 661 "},"c":{"ha":661,"x_min":78,"x_max":615,"o":"m 416 -14 q 604 25 530 -14 l 604 125 q 414 85 507 85 q 250 158 305 85 q 195 368 195 231 q 421 657 195 657 q 499 647 455 657 q 581 623 543 637 l 615 718 q 531 745 585 734 q 424 757 477 757 q 168 655 258 757 q 78 367 78 553 q 166 86 78 185 q 416 -14 255 -14 "},"d":{"ha":851,"x_min":78,"x_max":732,"o":"m 625 100 l 640 0 l 732 0 l 732 1055 l 619 1055 l 619 753 l 622 701 l 627 647 l 618 647 q 386 757 537 757 q 159 655 241 757 q 78 370 78 553 q 159 86 78 186 q 386 -14 240 -14 q 619 100 541 -14 l 625 100 m 400 81 q 247 153 299 81 q 195 368 195 226 q 247 586 195 509 q 399 663 300 663 q 567 595 514 663 q 619 370 619 528 l 619 346 q 567 143 619 206 q 400 81 515 81 "},"e":{"ha":779,"x_min":78,"x_max":707,"o":"m 433 -14 q 562 -2 509 -14 q 675 35 615 9 l 675 135 q 437 85 557 85 q 261 153 323 85 q 195 351 198 220 l 707 351 l 707 422 q 625 665 707 573 q 404 757 544 757 q 166 651 255 757 q 78 366 78 545 q 173 87 78 187 q 433 -14 269 -14 m 403 663 q 538 606 491 663 q 586 443 586 549 l 197 443 q 260 604 207 546 q 403 663 313 663 "},"f":{"ha":471,"x_min":20,"x_max":530,"o":"m 454 656 l 454 743 l 265 743 l 265 791 q 296 927 265 885 q 390 970 326 970 q 501 949 436 970 l 530 1039 q 392 1063 451 1063 q 153 789 153 1063 l 153 747 l 20 707 l 20 656 l 153 656 l 153 0 l 265 0 l 265 656 l 454 656 "},"g":{"ha":761,"x_min":26,"x_max":728,"o":"m 728 743 l 471 743 q 366 757 424 757 q 158 691 231 757 q 85 503 85 625 q 121 372 85 429 q 215 292 157 315 q 146 233 168 263 q 125 161 125 202 q 144 98 125 125 q 192 58 163 71 q 70 -9 113 41 q 26 -126 26 -58 q 105 -279 26 -225 q 330 -334 184 -334 q 619 -269 520 -334 q 718 -81 718 -204 q 653 67 718 16 q 468 118 589 118 l 336 118 q 250 133 275 118 q 225 178 225 147 q 297 273 225 235 q 359 268 326 268 q 564 333 490 268 q 639 507 639 398 q 624 594 639 555 q 590 656 609 632 l 728 672 l 728 743 m 135 -125 q 178 -20 135 -56 q 297 17 220 17 l 432 17 q 572 -6 535 17 q 610 -90 610 -30 q 542 -205 610 -163 q 332 -248 473 -248 q 186 -216 237 -248 q 135 -125 135 -185 m 196 505 q 239 632 196 589 q 361 675 281 675 q 528 507 528 675 q 363 347 528 347 q 240 387 284 347 q 196 505 196 427 "},"h":{"ha":852,"x_min":119,"x_max":741,"o":"m 628 0 l 741 0 l 741 485 q 672 691 741 626 q 468 755 604 755 q 328 725 389 755 q 233 640 267 694 l 227 640 q 232 736 232 678 l 232 1055 l 119 1055 l 119 0 l 232 0 l 232 389 q 286 597 232 534 q 457 661 340 661 q 587 616 545 661 q 628 481 628 572 l 628 0 "},"i":{"ha":351,"x_min":110,"x_max":243,"o":"m 232 0 l 232 743 l 119 743 l 119 0 l 232 0 m 110 945 q 129 888 110 907 q 176 869 148 869 q 223 888 203 869 q 243 945 243 907 q 223 1001 243 983 q 176 1019 203 1019 q 129 1001 148 1019 q 110 945 110 983 "},"j":{"ha":351,"x_min":-75,"x_max":243,"o":"m 29 -334 q 232 -114 232 -334 l 232 743 l 119 743 l 119 -122 q 95 -210 119 -181 q 17 -239 70 -239 q -75 -225 -28 -239 l -75 -317 q 29 -334 -35 -334 m 110 945 q 129 888 110 907 q 176 869 148 869 q 223 888 203 869 q 243 945 243 907 q 223 1001 243 983 q 176 1019 203 1019 q 129 1001 148 1019 q 110 945 110 983 "},"k":{"ha":729,"x_min":119,"x_max":714,"o":"m 231 380 l 225 380 q 231 496 231 458 l 231 1055 l 119 1055 l 119 0 l 231 0 l 231 278 l 315 351 l 578 0 l 714 0 l 392 427 l 693 743 l 559 743 l 319 489 q 231 380 260 422 "},"l":{"ha":351,"x_min":119,"x_max":232,"o":"m 232 0 l 232 1055 l 119 1055 l 119 0 l 232 0 "},"m":{"ha":1292,"x_min":119,"x_max":1179,"o":"m 1067 0 l 1179 0 l 1179 485 q 1117 692 1179 627 q 928 757 1054 757 q 784 723 847 757 q 688 631 721 689 l 682 631 q 454 757 629 757 q 325 726 382 757 q 235 642 267 696 l 229 642 l 211 743 l 119 743 l 119 0 l 232 0 l 232 390 q 281 598 232 534 q 436 661 330 661 q 555 617 517 661 q 593 484 593 572 l 593 0 l 705 0 l 705 415 q 755 601 705 541 q 911 661 806 661 q 1029 617 991 661 q 1067 484 1067 572 l 1067 0 "},"n":{"ha":852,"x_min":119,"x_max":741,"o":"m 628 0 l 741 0 l 741 485 q 673 692 741 627 q 471 757 605 757 q 332 727 394 757 q 235 642 269 696 l 229 642 l 211 743 l 119 743 l 119 0 l 232 0 l 232 390 q 286 598 232 535 q 457 661 340 661 q 587 616 545 661 q 628 481 628 572 l 628 0 "},"o":{"ha":839,"x_min":78,"x_max":761,"o":"m 761 372 q 669 653 761 549 q 421 757 577 757 q 169 655 260 757 q 78 372 78 554 q 120 168 78 255 q 239 33 162 80 q 416 -14 317 -14 q 669 89 578 -14 q 761 372 761 191 m 195 372 q 251 589 195 516 q 418 661 307 661 q 587 588 530 661 q 644 372 644 514 q 587 155 644 229 q 419 81 530 81 q 252 155 309 81 q 195 372 195 230 "},"p":{"ha":851,"x_min":119,"x_max":774,"o":"m 465 -14 q 692 88 610 -14 q 774 372 774 189 q 693 656 774 555 q 465 757 613 757 q 333 730 391 757 q 232 642 275 703 l 227 642 l 211 743 l 119 743 l 119 -334 l 232 -334 l 232 -28 q 224 96 232 31 l 232 96 q 333 13 273 40 q 465 -14 393 -14 m 449 661 q 603 587 548 661 q 657 374 657 513 q 603 159 657 237 q 452 81 548 81 q 284 148 336 81 q 232 372 232 216 l 232 397 q 284 598 233 535 q 449 661 335 661 "},"q":{"ha":851,"x_min":78,"x_max":732,"o":"m 400 81 q 247 154 298 81 q 195 368 195 228 q 247 586 195 509 q 399 663 300 663 q 566 594 513 663 q 619 370 619 526 l 619 345 q 564 141 616 201 q 400 81 513 81 m 383 -14 q 618 100 540 -14 l 627 100 q 619 -16 619 52 l 619 -334 l 732 -334 l 732 743 l 643 743 l 627 642 l 621 642 q 386 757 538 757 q 159 654 241 757 q 78 370 78 552 q 159 87 78 189 q 383 -14 239 -14 "},"r":{"ha":567,"x_min":119,"x_max":547,"o":"m 458 757 q 330 718 389 757 q 231 606 272 678 l 225 606 l 212 743 l 119 743 l 119 0 l 232 0 l 232 399 q 296 581 232 508 q 450 654 360 654 q 532 644 486 654 l 547 749 q 458 757 508 757 "},"s":{"ha":663,"x_min":72,"x_max":599,"o":"m 599 203 q 552 326 599 277 q 374 422 506 374 q 243 477 277 458 q 194 517 210 496 q 179 568 179 538 q 220 637 179 612 q 340 663 260 663 q 543 616 431 663 l 583 708 q 349 757 469 757 q 146 704 220 757 q 72 561 72 652 q 93 473 72 510 q 158 408 115 437 q 306 340 202 379 q 453 268 415 298 q 490 193 490 237 q 443 107 490 136 q 307 79 395 79 q 189 95 250 79 q 74 138 127 111 l 74 33 q 304 -14 157 -14 q 522 43 444 -14 q 599 203 599 99 "},"t":{"ha":490,"x_min":21,"x_max":461,"o":"m 359 79 q 272 115 304 79 q 240 218 240 151 l 240 656 l 456 656 l 456 743 l 240 743 l 240 916 l 175 916 l 127 757 l 21 710 l 21 656 l 127 656 l 127 214 q 343 -14 127 -14 q 407 -8 372 -14 q 461 7 443 -2 l 461 93 q 417 84 445 88 q 359 79 389 79 "},"u":{"ha":852,"x_min":111,"x_max":733,"o":"m 225 743 l 111 743 l 111 257 q 179 51 111 115 q 382 -14 246 -14 q 522 16 460 -14 q 618 100 583 45 l 624 100 l 640 0 l 733 0 l 733 743 l 621 743 l 621 353 q 567 144 621 208 q 396 81 513 81 q 267 125 308 81 q 225 261 225 170 l 225 743 "},"v":{"ha":696,"x_min":0,"x_max":696,"o":"m 282 0 l 414 0 l 696 743 l 575 743 q 397 251 437 363 q 350 102 357 138 l 345 102 q 281 302 335 148 l 121 743 l 0 743 l 282 0 "},"w":{"ha":1080,"x_min":16,"x_max":1065,"o":"m 726 0 l 860 0 l 1065 743 l 949 743 q 807 196 819 247 q 793 121 795 145 l 787 121 q 736 317 774 200 l 603 743 l 481 743 l 345 317 q 316 219 332 281 q 292 119 299 158 l 286 119 q 243 317 281 170 q 134 743 205 463 l 16 743 l 218 0 l 349 0 l 489 435 q 536 618 509 499 l 542 618 q 590 436 577 476 l 726 0 "},"x":{"ha":728,"x_min":26,"x_max":700,"o":"m 298 380 l 26 0 l 154 0 l 364 301 l 572 0 l 700 0 l 428 380 l 686 743 l 559 743 l 364 458 l 168 743 l 40 743 l 298 380 "},"y":{"ha":700,"x_min":1,"x_max":699,"o":"m 1 743 l 301 -4 l 260 -110 q 94 -240 210 -240 q 11 -232 48 -240 l 11 -322 q 113 -334 61 -334 q 268 -281 205 -334 q 379 -103 332 -229 l 699 743 l 578 743 q 394 228 422 312 q 357 110 366 144 l 351 110 q 285 319 338 174 l 122 743 l 1 743 "},"z":{"ha":650,"x_min":56,"x_max":595,"o":"m 595 0 l 595 87 l 184 87 l 585 656 l 585 743 l 81 743 l 81 656 l 461 656 l 56 77 l 56 0 l 595 0 "},"{":{"ha":526,"x_min":41,"x_max":478,"o":"m 322 8 l 322 210 q 171 382 322 355 l 171 390 q 322 562 322 416 l 322 762 q 478 897 322 893 l 478 991 q 281 933 355 991 q 208 770 208 875 l 208 562 q 169 466 208 497 q 41 433 130 435 l 41 338 q 165 308 123 338 q 208 207 208 277 l 208 1 q 279 -161 208 -103 q 478 -220 349 -218 l 478 -125 q 362 -92 401 -123 q 322 8 322 -61 "},"|":{"ha":765,"x_min":335,"x_max":431,"o":"m 335 1055 l 335 -336 l 431 -336 l 431 1055 l 335 1055 "},"}":{"ha":526,"x_min":49,"x_max":485,"o":"m 354 390 l 354 382 q 240 328 277 368 q 203 210 203 287 l 203 8 q 163 -92 203 -61 q 49 -125 124 -123 l 49 -220 q 247 -160 178 -218 q 317 1 317 -102 l 317 207 q 359 308 317 277 q 485 338 402 338 l 485 433 q 357 466 397 435 q 317 562 317 496 l 317 770 q 245 932 317 873 q 49 991 174 991 l 49 897 q 203 762 203 893 l 203 562 q 354 390 203 416 "},"~":{"ha":794,"x_min":71,"x_max":722,"o":"m 229 484 q 292 475 262 484 q 374 446 323 467 q 465 413 422 424 q 557 401 508 401 q 722 476 653 401 l 722 578 q 642 517 686 539 q 562 496 599 496 q 497 505 530 496 q 419 533 464 514 q 320 568 359 559 q 236 578 282 578 q 71 504 138 578 l 71 401 q 150 461 107 438 q 229 484 193 484 "}," ":{"ha":361,"x_min":0,"x_max":0,"o":""},"¡":{"ha":371,"x_min":103,"x_max":267,"o":"m 149 464 l 114 -253 l 254 -253 l 220 464 l 149 464 m 267 667 q 243 736 267 715 q 184 758 219 758 q 124 734 146 758 q 103 667 103 709 q 123 599 103 623 q 184 575 144 575 q 267 667 267 575 "},"¢":{"ha":794,"x_min":129,"x_max":669,"o":"m 659 163 l 659 262 q 467 222 562 222 q 299 291 353 222 q 245 504 245 360 q 300 723 245 651 q 472 794 355 794 q 636 760 546 794 l 669 854 q 588 881 636 870 q 489 895 540 892 l 489 1006 l 397 1006 l 397 889 q 129 503 129 847 q 194 240 129 333 q 397 126 260 148 l 397 -14 l 488 -14 l 488 122 q 659 163 587 126 "},"£":{"ha":794,"x_min":43,"x_max":741,"o":"m 463 1004 q 258 935 334 1004 q 182 745 182 865 l 182 530 l 47 530 l 47 444 l 182 444 l 182 293 q 43 96 182 127 l 43 0 l 741 0 l 741 104 l 201 104 q 274 180 252 134 q 296 294 296 227 l 296 444 l 582 444 l 582 530 l 296 530 l 296 730 q 338 867 296 825 q 464 909 380 909 q 665 857 561 909 l 707 947 q 463 1004 591 1004 "},"¤":{"ha":794,"x_min":83,"x_max":710,"o":"m 125 490 q 175 334 125 406 l 85 241 l 147 179 l 239 269 q 397 220 307 220 q 553 268 484 220 l 646 178 l 708 240 l 619 332 q 669 490 669 401 q 619 647 669 570 l 710 741 l 646 803 l 553 713 q 397 762 484 762 q 239 713 309 762 l 147 803 l 83 741 l 175 646 q 125 490 125 573 m 212 490 q 266 622 212 566 q 397 677 319 677 q 529 623 475 677 q 583 490 583 568 q 530 360 583 414 q 397 306 476 306 q 266 360 319 306 q 212 490 212 414 "},"¥":{"ha":794,"x_min":21,"x_max":771,"o":"m 396 498 l 142 991 l 21 991 l 300 469 l 126 469 l 126 383 l 340 383 l 340 268 l 126 268 l 126 182 l 340 182 l 340 0 l 452 0 l 452 182 l 667 182 l 667 268 l 452 268 l 452 383 l 667 383 l 667 469 l 489 469 l 771 991 l 653 991 l 396 498 "},"¦":{"ha":765,"x_min":335,"x_max":431,"o":"m 335 1055 l 335 529 l 431 529 l 431 1055 l 335 1055 m 335 191 l 335 -336 l 431 -336 l 431 191 l 335 191 "},"§":{"ha":717,"x_min":83,"x_max":623,"o":"m 94 549 q 117 457 94 496 q 184 388 139 418 q 326 322 230 357 q 441 273 404 293 q 494 234 477 254 q 510 183 510 214 q 462 109 510 135 q 323 83 414 83 q 202 99 268 83 q 83 139 136 114 l 83 39 q 318 -5 170 -5 q 541 46 462 -5 q 621 193 621 98 q 517 347 621 292 q 595 423 567 375 q 623 532 623 471 q 572 655 623 604 q 395 753 521 707 q 249 819 290 790 q 207 888 207 847 q 246 951 207 931 q 364 971 286 971 q 461 962 416 971 q 574 926 507 953 l 610 1015 q 490 1052 544 1042 q 372 1061 436 1061 q 169 1014 239 1061 q 98 885 98 967 q 127 790 98 827 q 205 725 155 752 q 123 653 153 700 q 94 549 94 607 m 193 562 q 222 638 193 604 q 297 685 251 672 q 472 608 422 646 q 522 514 522 570 q 429 385 522 439 l 396 397 q 238 474 283 439 q 193 562 193 510 "},"¨":{"ha":802,"x_min":210,"x_max":591,"o":"m 210 945 q 228 894 210 911 q 271 878 245 878 q 315 894 296 878 q 334 945 334 911 q 315 996 334 980 q 271 1011 296 1011 q 228 996 245 1011 q 210 945 210 980 m 468 945 q 486 894 468 911 q 529 878 504 878 q 573 894 554 878 q 591 945 591 911 q 573 996 591 980 q 529 1011 554 1011 q 486 996 504 1011 q 468 945 468 980 "},"©":{"ha":1156,"x_min":68,"x_max":1088,"o":"m 606 718 q 733 684 660 718 l 772 764 q 606 804 692 804 q 401 721 476 804 q 326 496 326 637 q 397 268 326 349 q 599 186 467 186 q 681 195 646 186 q 747 218 715 205 l 747 302 q 604 272 663 272 q 472 327 515 272 q 429 496 429 382 q 475 659 429 600 q 606 718 521 718 m 68 496 q 134 244 68 361 q 319 57 200 127 q 578 -14 437 -14 q 838 57 719 -14 q 1022 245 956 127 q 1088 496 1088 362 q 1019 751 1088 633 q 832 938 951 870 q 578 1006 713 1006 q 322 937 441 1006 q 136 750 203 869 q 68 496 68 631 m 139 496 q 198 716 139 615 q 359 876 258 817 q 578 935 460 935 q 798 875 697 935 q 958 715 899 816 q 1017 496 1017 614 q 957 276 1017 376 q 797 116 898 175 q 578 57 696 57 q 359 116 461 57 q 198 276 257 174 q 139 496 139 378 "},"ª":{"ha":492,"x_min":47,"x_max":424,"o":"m 361 543 l 424 543 l 424 850 q 377 967 424 932 q 243 1003 331 1003 q 75 965 153 1003 l 104 900 q 243 935 175 935 q 343 844 343 935 l 343 818 l 264 815 q 100 775 152 811 q 47 671 47 740 q 85 568 47 602 q 187 534 123 534 q 345 600 282 534 l 361 543 m 131 671 q 166 733 131 714 q 277 755 201 753 l 343 758 l 343 725 q 207 603 343 603 q 131 671 131 603 "},"«":{"ha":690,"x_min":56,"x_max":636,"o":"m 56 374 l 56 355 l 288 79 l 368 127 l 172 366 l 368 603 l 288 650 l 56 374 m 323 374 l 323 355 l 557 79 l 636 127 l 441 366 l 636 603 l 557 650 l 323 374 "},"¬":{"ha":794,"x_min":71,"x_max":722,"o":"m 722 536 l 71 536 l 71 443 l 629 443 l 629 179 l 722 179 l 722 536 "},"­":{"ha":447,"x_min":57,"x_max":390,"o":"m 57 321 l 390 321 l 390 424 l 57 424 l 57 321 "},"®":{"ha":1156,"x_min":68,"x_max":1088,"o":"m 490 517 l 490 711 l 562 711 q 654 689 625 711 q 684 616 684 667 q 651 545 684 573 q 564 517 618 517 l 490 517 m 785 619 q 732 753 785 709 q 567 798 680 798 l 390 798 l 390 193 l 490 193 l 490 433 l 582 433 l 722 193 l 836 193 l 675 461 q 756 523 727 481 q 785 619 785 565 m 68 496 q 134 244 68 361 q 319 57 200 127 q 578 -14 437 -14 q 838 57 719 -14 q 1022 245 956 127 q 1088 496 1088 362 q 1019 751 1088 633 q 832 938 951 870 q 578 1006 713 1006 q 322 937 441 1006 q 136 750 203 869 q 68 496 68 631 m 139 496 q 198 716 139 615 q 359 876 258 817 q 578 935 460 935 q 798 875 697 935 q 958 715 899 816 q 1017 496 1017 614 q 957 276 1017 376 q 797 116 898 175 q 578 57 696 57 q 359 116 461 57 q 198 276 257 174 q 139 496 139 378 "},"¯":{"ha":694,"x_min":-4,"x_max":699,"o":"m 699 1055 l 699 1141 l -4 1141 l -4 1055 l 699 1055 "},"°":{"ha":595,"x_min":86,"x_max":509,"o":"m 86 794 q 148 644 86 705 q 297 583 209 583 q 404 612 354 583 q 481 689 453 640 q 509 794 509 737 q 447 944 509 883 q 297 1006 385 1006 q 148 944 209 1006 q 86 794 86 882 m 164 794 q 203 889 164 850 q 298 928 242 928 q 392 889 354 928 q 431 794 431 851 q 392 700 431 738 q 298 661 353 661 q 204 700 243 661 q 164 794 164 739 "},"±":{"ha":794,"x_min":71,"x_max":722,"o":"m 443 536 l 443 827 l 349 827 l 349 536 l 71 536 l 71 443 l 349 443 l 349 154 l 443 154 l 443 443 l 722 443 l 722 536 l 443 536 m 71 1 l 722 1 l 722 94 l 71 94 l 71 1 "},"²":{"ha":482,"x_min":33,"x_max":443,"o":"m 443 397 l 443 478 l 144 478 l 262 590 q 392 735 362 684 q 422 840 422 786 q 373 960 422 916 q 233 1004 323 1004 q 41 929 130 1004 l 86 869 q 166 916 133 903 q 235 929 199 929 q 304 906 277 929 q 332 836 332 882 q 320 774 332 800 q 281 715 309 748 q 193 624 254 682 l 33 468 l 33 397 l 443 397 "},"³":{"ha":482,"x_min":22,"x_max":443,"o":"m 425 851 q 372 964 425 924 q 227 1004 319 1004 q 115 986 163 1004 q 25 937 68 968 l 72 876 q 148 915 110 900 q 231 929 186 929 q 303 906 276 929 q 330 842 330 883 q 297 769 330 795 q 193 742 263 742 l 113 742 l 113 669 l 192 669 q 349 571 349 669 q 205 461 349 461 q 22 507 122 461 l 22 424 q 204 386 101 386 q 380 434 318 386 q 443 570 443 483 q 323 711 443 680 q 397 762 370 727 q 425 851 425 797 "},"´":{"ha":802,"x_min":267,"x_max":533,"o":"m 267 859 l 267 842 l 342 842 q 444 941 385 877 q 533 1050 503 1006 l 533 1064 l 396 1064 q 337 960 374 1020 q 267 859 299 901 "},"µ":{"ha":860,"x_min":119,"x_max":741,"o":"m 232 258 l 232 743 l 119 743 l 119 -334 l 232 -334 l 232 -117 q 225 49 232 -8 l 232 49 q 393 -14 292 -14 q 624 100 549 -14 l 631 100 l 648 0 l 741 0 l 741 743 l 628 743 l 628 353 q 574 145 628 209 q 404 81 520 81 q 232 258 232 81 "},"¶":{"ha":909,"x_min":77,"x_max":760,"o":"m 760 -176 l 760 1055 l 382 1055 q 151 969 224 1055 q 77 707 77 883 q 145 452 77 536 q 361 367 214 367 q 460 379 418 367 l 460 -176 l 538 -176 l 538 985 l 682 985 l 682 -176 l 760 -176 "},"·":{"ha":370,"x_min":103,"x_max":267,"o":"m 103 490 q 126 420 103 441 q 183 399 149 399 q 244 422 222 399 q 267 490 267 446 q 244 558 267 535 q 183 582 222 582 q 124 558 145 582 q 103 490 103 535 "},"¸":{"ha":315,"x_min":25,"x_max":296,"o":"m 296 -196 q 174 -78 296 -104 l 211 0 l 136 0 l 77 -121 q 177 -150 151 -132 q 204 -197 204 -168 q 177 -248 204 -234 q 96 -261 149 -261 q 25 -256 56 -261 l 25 -328 q 90 -334 56 -334 q 244 -298 192 -334 q 296 -196 296 -262 "},"¹":{"ha":482,"x_min":52,"x_max":326,"o":"m 229 991 l 52 868 l 97 803 q 207 883 189 867 q 240 913 225 898 q 236 790 236 852 l 236 397 l 326 397 l 326 991 l 229 991 "},"º":{"ha":521,"x_min":45,"x_max":476,"o":"m 476 770 q 420 941 476 880 q 261 1003 364 1003 q 102 942 159 1003 q 45 770 45 880 q 102 597 45 661 q 258 534 159 534 q 418 596 360 534 q 476 770 476 659 m 127 770 q 159 893 127 853 q 260 933 190 933 q 362 893 331 933 q 393 770 393 853 q 362 646 393 687 q 260 604 331 604 q 158 646 189 604 q 127 770 127 687 "},"»":{"ha":690,"x_min":54,"x_max":635,"o":"m 635 355 l 635 374 l 401 650 l 322 603 l 517 366 l 322 127 l 401 79 l 635 355 m 367 355 l 367 374 l 134 650 l 54 603 l 249 366 l 54 127 l 134 79 l 367 355 "},"¼":{"ha":1083,"x_min":51,"x_max":1010,"o":"m 880 991 l 783 991 l 171 0 l 268 0 l 880 991 m 229 991 l 51 868 l 96 803 q 206 883 188 867 q 239 913 224 898 q 235 790 235 852 l 235 397 l 326 397 l 326 991 l 229 991 m 1010 138 l 1010 217 l 925 217 l 925 599 l 831 599 l 554 206 l 554 138 l 827 138 l 827 1 l 925 1 l 925 138 l 1010 138 m 827 217 l 649 217 l 763 384 q 781 411 770 395 q 801 441 791 426 q 819 470 811 456 q 831 491 827 483 q 827 349 827 440 l 827 217 "},"½":{"ha":1083,"x_min":31,"x_max":1017,"o":"m 834 991 l 737 991 l 125 0 l 222 0 l 834 991 m 209 991 l 31 868 l 77 803 q 186 883 168 867 q 220 913 205 898 q 216 790 216 852 l 216 397 l 306 397 l 306 991 l 209 991 m 1017 1 l 1017 81 l 718 81 l 836 193 q 966 338 936 287 q 996 444 996 389 q 946 564 996 519 q 807 608 897 608 q 615 532 704 608 l 660 473 q 740 519 707 507 q 808 532 773 532 q 878 509 851 532 q 905 439 905 486 q 894 377 905 403 q 855 318 883 351 q 767 227 827 286 l 607 71 l 607 1 l 1017 1 "},"¾":{"ha":1083,"x_min":18,"x_max":1064,"o":"m 420 851 q 367 964 420 924 q 222 1004 314 1004 q 111 986 158 1004 q 20 937 63 968 l 67 876 q 143 915 105 900 q 226 929 181 929 q 298 906 271 929 q 326 842 326 883 q 292 769 326 795 q 189 742 258 742 l 108 742 l 108 669 l 187 669 q 344 571 344 669 q 201 461 344 461 q 18 507 117 461 l 18 424 q 199 386 96 386 q 376 434 313 386 q 438 570 438 483 q 319 711 438 680 q 393 762 365 727 q 420 851 420 797 m 943 991 l 846 991 l 233 0 l 330 0 l 943 991 m 1064 138 l 1064 217 l 979 217 l 979 599 l 885 599 l 608 206 l 608 138 l 881 138 l 881 1 l 979 1 l 979 138 l 1064 138 m 881 217 l 703 217 l 817 384 q 835 411 825 395 q 855 441 845 426 q 873 470 865 456 q 885 491 882 483 q 881 349 881 440 l 881 217 "},"¿":{"ha":596,"x_min":35,"x_max":578,"o":"m 400 464 l 311 464 l 311 443 q 289 340 311 380 q 199 241 267 301 q 132 182 162 210 q 80 124 102 154 q 46 58 58 94 q 35 -25 35 22 q 108 -203 35 -140 q 310 -267 181 -267 q 578 -201 444 -267 l 538 -110 q 420 -155 471 -142 q 315 -168 370 -168 q 188 -130 233 -168 q 143 -24 143 -92 q 152 40 143 14 q 181 92 160 66 q 283 189 201 117 q 375 296 349 246 q 400 429 400 347 l 400 464 m 433 667 q 410 736 433 715 q 351 758 386 758 q 292 734 314 758 q 269 667 269 710 q 290 598 269 622 q 351 575 311 575 q 433 667 433 575 "},"À":{"ha":879,"x_min":0,"x_max":879,"o":"m 760 0 l 879 0 l 489 996 l 392 996 l 0 0 l 117 0 l 239 315 l 636 315 l 760 0 m 600 419 l 279 419 l 396 726 q 439 869 424 804 q 485 726 463 785 l 600 419 m 491 1071 l 491 1088 q 422 1185 461 1124 q 362 1293 384 1246 l 224 1293 l 224 1279 q 312 1171 252 1236 q 416 1071 372 1106 l 491 1071 "},"Á":{"ha":879,"x_min":0,"x_max":879,"o":"m 760 0 l 879 0 l 489 996 l 392 996 l 0 0 l 117 0 l 239 315 l 636 315 l 760 0 m 600 419 l 279 419 l 396 726 q 439 869 424 804 q 485 726 463 785 l 600 419 m 357 1088 l 357 1071 l 432 1071 q 534 1171 475 1106 q 623 1279 593 1235 l 623 1293 l 486 1293 q 427 1190 465 1249 q 357 1088 389 1130 "},"Â":{"ha":879,"x_min":0,"x_max":879,"o":"m 760 0 l 879 0 l 489 996 l 392 996 l 0 0 l 117 0 l 239 315 l 636 315 l 760 0 m 600 419 l 279 419 l 396 726 q 439 869 424 804 q 485 726 463 785 l 600 419 m 205 1086 l 205 1071 l 283 1071 q 432 1197 340 1106 q 582 1071 522 1108 l 663 1071 l 663 1086 q 541 1220 578 1175 q 489 1293 504 1265 l 376 1293 q 326 1222 361 1265 q 205 1086 292 1179 "},"Ã":{"ha":879,"x_min":0,"x_max":879,"o":"m 760 0 l 879 0 l 489 996 l 392 996 l 0 0 l 117 0 l 239 315 l 636 315 l 760 0 m 600 419 l 279 419 l 396 726 q 439 869 424 804 q 485 726 463 785 l 600 419 m 537 1072 q 639 1119 601 1072 q 686 1247 677 1165 l 619 1247 q 593 1185 609 1205 q 543 1165 576 1165 q 497 1178 522 1165 q 446 1205 473 1190 q 391 1233 420 1221 q 330 1246 361 1246 q 230 1199 269 1246 q 182 1071 191 1153 l 248 1071 q 275 1133 258 1112 q 326 1153 292 1153 q 374 1140 349 1153 q 426 1113 399 1128 q 480 1085 452 1097 q 537 1072 508 1072 "},"Ä":{"ha":879,"x_min":0,"x_max":879,"o":"m 760 0 l 879 0 l 489 996 l 392 996 l 0 0 l 117 0 l 239 315 l 636 315 l 760 0 m 600 419 l 279 419 l 396 726 q 439 869 424 804 q 485 726 463 785 l 600 419 m 247 1174 q 265 1123 247 1140 q 308 1107 283 1107 q 352 1123 334 1107 q 371 1174 371 1140 q 352 1225 371 1209 q 308 1240 334 1240 q 265 1225 283 1240 q 247 1174 247 1209 m 505 1174 q 523 1123 505 1140 q 566 1107 541 1107 q 610 1123 591 1107 q 629 1174 629 1140 q 610 1225 629 1209 q 566 1240 591 1240 q 523 1225 541 1240 q 505 1174 505 1209 "},"Å":{"ha":879,"x_min":0,"x_max":879,"o":"m 760 0 l 879 0 l 489 996 l 392 996 l 0 0 l 117 0 l 239 315 l 636 315 l 760 0 m 600 419 l 279 419 l 396 726 q 439 869 424 804 q 485 726 463 785 l 600 419 m 590 1076 q 548 1179 590 1139 q 437 1219 506 1219 q 329 1180 370 1219 q 288 1075 288 1141 q 328 969 288 1008 q 437 929 369 929 q 548 969 507 929 q 590 1076 590 1010 m 517 1075 q 495 1016 517 1037 q 437 996 473 996 q 378 1016 399 996 q 358 1075 358 1037 q 380 1134 358 1113 q 437 1154 403 1154 q 494 1134 472 1154 q 517 1075 517 1113 "},"Æ":{"ha":1213,"x_min":-1,"x_max":1129,"o":"m 1129 0 l 1129 103 l 736 103 l 736 468 l 1103 468 l 1103 570 l 736 570 l 736 889 l 1129 889 l 1129 991 l 472 991 l -1 0 l 118 0 l 272 315 l 621 315 l 621 0 l 1129 0 m 318 419 l 541 889 l 621 889 l 621 419 l 318 419 "},"Ç":{"ha":876,"x_min":85,"x_max":835,"o":"m 561 903 q 786 850 673 903 l 835 949 q 562 1006 718 1006 q 308 943 416 1006 q 142 766 199 881 q 85 497 85 650 q 204 119 85 252 q 542 -14 323 -14 q 796 25 693 -14 l 796 126 q 559 89 663 89 q 299 195 391 89 q 208 496 208 301 q 303 794 208 685 q 561 903 397 903 m 644 -196 q 522 -78 644 -104 l 559 0 l 485 0 l 425 -121 q 526 -150 499 -132 q 553 -197 553 -168 q 525 -248 553 -234 q 444 -261 498 -261 q 374 -256 404 -261 l 374 -328 q 439 -334 404 -334 q 592 -298 541 -334 q 644 -196 644 -262 "},"È":{"ha":772,"x_min":136,"x_max":689,"o":"m 689 0 l 689 103 l 252 103 l 252 468 l 663 468 l 663 570 l 252 570 l 252 889 l 689 889 l 689 991 l 136 991 l 136 0 l 689 0 m 484 1071 l 484 1088 q 415 1185 454 1124 q 355 1293 376 1246 l 217 1293 l 217 1279 q 304 1171 244 1236 q 409 1071 365 1106 l 484 1071 "},"É":{"ha":772,"x_min":136,"x_max":689,"o":"m 689 0 l 689 103 l 252 103 l 252 468 l 663 468 l 663 570 l 252 570 l 252 889 l 689 889 l 689 991 l 136 991 l 136 0 l 689 0 m 309 1088 l 309 1071 l 385 1071 q 487 1171 428 1106 q 576 1279 546 1235 l 576 1293 l 439 1293 q 379 1190 417 1249 q 309 1088 342 1130 "},"Ê":{"ha":772,"x_min":136,"x_max":689,"o":"m 689 0 l 689 103 l 252 103 l 252 468 l 663 468 l 663 570 l 252 570 l 252 889 l 689 889 l 689 991 l 136 991 l 136 0 l 689 0 m 178 1086 l 178 1071 l 256 1071 q 405 1197 313 1106 q 555 1071 495 1108 l 635 1071 l 635 1086 q 514 1220 551 1175 q 462 1293 477 1265 l 349 1293 q 299 1222 334 1265 q 178 1086 264 1179 "},"Ë":{"ha":772,"x_min":136,"x_max":689,"o":"m 689 0 l 689 103 l 252 103 l 252 468 l 663 468 l 663 570 l 252 570 l 252 889 l 689 889 l 689 991 l 136 991 l 136 0 l 689 0 m 222 1174 q 240 1123 222 1140 q 283 1107 258 1107 q 327 1123 309 1107 q 346 1174 346 1140 q 327 1225 346 1209 q 283 1240 309 1240 q 240 1225 258 1240 q 222 1174 222 1209 m 480 1174 q 498 1123 480 1140 q 541 1107 516 1107 q 585 1123 566 1107 q 604 1174 604 1140 q 585 1225 604 1209 q 541 1240 566 1240 q 498 1225 516 1240 q 480 1174 480 1209 "},"Ð":{"ha":1003,"x_min":32,"x_max":917,"o":"m 917 505 q 788 864 917 737 q 431 991 659 991 l 136 991 l 136 542 l 32 542 l 32 440 l 136 440 l 136 0 l 400 0 q 784 130 650 0 q 917 505 917 260 m 794 501 q 380 100 794 100 l 252 100 l 252 440 l 509 440 l 509 542 l 252 542 l 252 892 l 408 892 q 794 501 794 892 "},"Ñ":{"ha":1047,"x_min":136,"x_max":911,"o":"m 911 0 l 911 991 l 803 991 l 803 422 q 806 280 802 380 q 812 163 811 181 l 807 163 l 267 991 l 136 991 l 136 0 l 243 0 l 243 564 q 232 832 243 686 l 237 832 l 779 0 l 911 0 m 634 1072 q 736 1119 698 1072 q 783 1247 774 1165 l 716 1247 q 690 1185 706 1205 q 640 1165 673 1165 q 594 1178 618 1165 q 543 1205 570 1190 q 488 1233 517 1221 q 427 1246 458 1246 q 327 1199 366 1246 q 279 1071 288 1153 l 345 1071 q 372 1133 355 1112 q 423 1153 389 1153 q 471 1140 446 1153 q 523 1113 496 1128 q 577 1085 549 1097 q 634 1072 605 1072 "},"Ò":{"ha":1082,"x_min":85,"x_max":997,"o":"m 997 497 q 877 871 997 736 q 543 1007 757 1007 q 204 874 323 1007 q 85 498 85 741 q 204 120 85 254 q 542 -14 323 -14 q 877 123 756 -14 q 997 497 997 259 m 207 497 q 293 800 207 696 q 543 904 378 904 q 791 801 707 904 q 875 497 875 697 q 791 191 875 295 q 542 87 707 87 q 293 192 378 87 q 207 497 207 296 m 615 1071 l 615 1088 q 547 1185 585 1124 q 486 1293 508 1246 l 349 1293 l 349 1279 q 436 1171 376 1236 q 541 1071 496 1106 l 615 1071 "},"Ó":{"ha":1082,"x_min":85,"x_max":997,"o":"m 997 497 q 877 871 997 736 q 543 1007 757 1007 q 204 874 323 1007 q 85 498 85 741 q 204 120 85 254 q 542 -14 323 -14 q 877 123 756 -14 q 997 497 997 259 m 207 497 q 293 800 207 696 q 543 904 378 904 q 791 801 707 904 q 875 497 875 697 q 791 191 875 295 q 542 87 707 87 q 293 192 378 87 q 207 497 207 296 m 447 1088 l 447 1071 l 522 1071 q 625 1171 566 1106 q 713 1279 684 1235 l 713 1293 l 576 1293 q 517 1190 555 1249 q 447 1088 479 1130 "},"Ô":{"ha":1082,"x_min":85,"x_max":997,"o":"m 997 497 q 877 871 997 736 q 543 1007 757 1007 q 204 874 323 1007 q 85 498 85 741 q 204 120 85 254 q 542 -14 323 -14 q 877 123 756 -14 q 997 497 997 259 m 207 497 q 293 800 207 696 q 543 904 378 904 q 791 801 707 904 q 875 497 875 697 q 791 191 875 295 q 542 87 707 87 q 293 192 378 87 q 207 497 207 296 m 304 1086 l 304 1071 l 382 1071 q 530 1197 438 1106 q 680 1071 621 1108 l 761 1071 l 761 1086 q 639 1220 676 1175 q 587 1293 602 1265 l 475 1293 q 425 1222 459 1265 q 304 1086 390 1179 "},"Õ":{"ha":1082,"x_min":85,"x_max":997,"o":"m 997 497 q 877 871 997 736 q 543 1007 757 1007 q 204 874 323 1007 q 85 498 85 741 q 204 120 85 254 q 542 -14 323 -14 q 877 123 756 -14 q 997 497 997 259 m 207 497 q 293 800 207 696 q 543 904 378 904 q 791 801 707 904 q 875 497 875 697 q 791 191 875 295 q 542 87 707 87 q 293 192 378 87 q 207 497 207 296 m 639 1072 q 741 1119 703 1072 q 788 1247 779 1165 l 721 1247 q 694 1185 711 1205 q 645 1165 678 1165 q 599 1178 623 1165 q 548 1205 574 1190 q 492 1233 522 1221 q 432 1246 463 1246 q 331 1199 370 1246 q 283 1071 292 1153 l 350 1071 q 377 1133 359 1112 q 428 1153 394 1153 q 476 1140 451 1153 q 527 1113 500 1128 q 582 1085 554 1097 q 639 1072 610 1072 "},"Ö":{"ha":1082,"x_min":85,"x_max":997,"o":"m 997 497 q 877 871 997 736 q 543 1007 757 1007 q 204 874 323 1007 q 85 498 85 741 q 204 120 85 254 q 542 -14 323 -14 q 877 123 756 -14 q 997 497 997 259 m 207 497 q 293 800 207 696 q 543 904 378 904 q 791 801 707 904 q 875 497 875 697 q 791 191 875 295 q 542 87 707 87 q 293 192 378 87 q 207 497 207 296 m 354 1174 q 372 1123 354 1140 q 415 1107 390 1107 q 459 1123 441 1107 q 478 1174 478 1140 q 459 1225 478 1209 q 415 1240 441 1240 q 372 1225 390 1240 q 354 1174 354 1209 m 612 1174 q 630 1123 612 1140 q 673 1107 648 1107 q 717 1123 699 1107 q 736 1174 736 1140 q 717 1225 736 1209 q 673 1240 699 1240 q 630 1225 648 1240 q 612 1174 612 1209 "},"×":{"ha":794,"x_min":90,"x_max":703,"o":"m 637 798 l 397 557 l 158 798 l 90 729 l 329 490 l 92 252 l 160 184 l 396 422 l 636 184 l 701 252 l 464 490 l 703 730 l 637 798 "},"Ø":{"ha":1082,"x_min":85,"x_max":997,"o":"m 997 497 q 867 880 997 743 l 939 981 l 857 1035 l 791 943 q 543 1007 685 1007 q 204 874 323 1007 q 85 498 85 741 q 205 117 85 251 l 132 12 l 214 -41 l 282 54 q 542 -14 382 -14 q 877 123 756 -14 q 997 497 997 259 m 875 497 q 791 191 875 295 q 542 87 707 87 q 345 143 422 87 l 800 786 q 875 497 875 682 m 207 497 q 293 800 207 696 q 543 904 378 904 q 729 854 657 904 l 275 215 q 207 497 207 319 "},"Ù":{"ha":1011,"x_min":126,"x_max":885,"o":"m 885 991 l 770 991 l 770 346 q 702 154 770 221 q 509 87 634 87 q 309 154 377 87 q 241 345 241 220 l 241 991 l 126 991 l 126 353 q 224 84 126 182 q 501 -14 322 -14 q 783 83 680 -14 q 885 350 885 180 l 885 991 m 581 1071 l 581 1088 q 512 1185 551 1124 q 452 1293 473 1246 l 314 1293 l 314 1279 q 401 1171 341 1236 q 506 1071 462 1106 l 581 1071 "},"Ú":{"ha":1011,"x_min":126,"x_max":885,"o":"m 885 991 l 770 991 l 770 346 q 702 154 770 221 q 509 87 634 87 q 309 154 377 87 q 241 345 241 220 l 241 991 l 126 991 l 126 353 q 224 84 126 182 q 501 -14 322 -14 q 783 83 680 -14 q 885 350 885 180 l 885 991 m 407 1088 l 407 1071 l 482 1071 q 585 1171 526 1106 q 673 1279 644 1235 l 673 1293 l 536 1293 q 477 1190 515 1249 q 407 1088 439 1130 "},"Û":{"ha":1011,"x_min":126,"x_max":885,"o":"m 885 991 l 770 991 l 770 346 q 702 154 770 221 q 509 87 634 87 q 309 154 377 87 q 241 345 241 220 l 241 991 l 126 991 l 126 353 q 224 84 126 182 q 501 -14 322 -14 q 783 83 680 -14 q 885 350 885 180 l 885 991 m 267 1086 l 267 1071 l 345 1071 q 493 1197 401 1106 q 643 1071 583 1108 l 724 1071 l 724 1086 q 602 1220 639 1175 q 550 1293 565 1265 l 437 1293 q 387 1222 422 1265 q 267 1086 353 1179 "},"Ü":{"ha":1011,"x_min":126,"x_max":885,"o":"m 885 991 l 770 991 l 770 346 q 702 154 770 221 q 509 87 634 87 q 309 154 377 87 q 241 345 241 220 l 241 991 l 126 991 l 126 353 q 224 84 126 182 q 501 -14 322 -14 q 783 83 680 -14 q 885 350 885 180 l 885 991 m 313 1174 q 331 1123 313 1140 q 374 1107 349 1107 q 418 1123 399 1107 q 437 1174 437 1140 q 418 1225 437 1209 q 374 1240 399 1240 q 331 1225 349 1240 q 313 1174 313 1209 m 571 1174 q 589 1123 571 1140 q 632 1107 607 1107 q 676 1123 657 1107 q 694 1174 694 1140 q 676 1225 694 1209 q 632 1240 657 1240 q 589 1225 607 1240 q 571 1174 571 1209 "},"Ý":{"ha":778,"x_min":0,"x_max":778,"o":"m 389 496 l 126 991 l 0 991 l 330 379 l 330 0 l 447 0 l 447 385 l 778 991 l 653 991 l 389 496 m 300 1088 l 300 1071 l 375 1071 q 477 1171 418 1106 q 566 1279 536 1235 l 566 1293 l 429 1293 q 370 1190 408 1249 q 300 1088 332 1130 "},"Þ":{"ha":848,"x_min":136,"x_max":777,"o":"m 777 532 q 682 748 777 677 q 397 818 588 818 l 252 818 l 252 991 l 136 991 l 136 0 l 252 0 l 252 216 l 376 216 q 674 297 571 216 q 777 532 777 378 m 252 315 l 252 718 l 390 718 q 591 671 527 718 q 656 524 656 625 q 587 364 656 412 q 366 315 519 315 l 252 315 "},"ß":{"ha":864,"x_min":119,"x_max":800,"o":"m 711 859 q 635 1009 711 956 q 419 1063 559 1063 q 194 999 269 1063 q 119 815 119 936 l 119 0 l 232 0 l 232 817 q 419 968 232 968 q 551 939 505 968 q 597 856 597 910 q 576 789 597 820 q 503 720 554 759 q 432 648 455 684 q 408 570 408 612 q 441 471 408 513 q 559 374 473 429 q 662 290 634 326 q 690 203 690 254 q 545 79 690 79 q 443 95 496 79 q 347 138 390 111 l 347 33 q 547 -14 420 -14 q 734 44 669 -14 q 800 211 800 102 q 766 333 800 279 q 636 450 731 386 q 559 504 583 485 q 526 538 535 524 q 517 574 517 552 q 536 619 517 596 q 614 689 555 642 q 711 859 711 767 "},"à":{"ha":772,"x_min":64,"x_max":660,"o":"m 576 0 l 660 0 l 660 507 q 596 696 660 637 q 399 755 532 755 q 268 739 333 755 q 147 692 202 722 l 182 606 q 392 663 299 663 q 512 621 475 663 q 550 492 550 579 l 550 446 l 424 441 q 64 205 64 431 q 126 43 64 100 q 300 -14 189 -14 q 438 11 382 -14 q 549 106 493 36 l 554 106 l 576 0 m 322 79 q 219 111 256 79 q 182 204 182 143 q 241 319 182 282 q 435 361 300 356 l 547 366 l 547 298 q 487 137 547 195 q 322 79 427 79 m 456 842 l 456 859 q 387 956 426 895 q 327 1064 349 1017 l 189 1064 l 189 1050 q 277 942 216 1007 q 381 842 337 877 l 456 842 "},"á":{"ha":772,"x_min":64,"x_max":660,"o":"m 576 0 l 660 0 l 660 507 q 596 696 660 637 q 399 755 532 755 q 268 739 333 755 q 147 692 202 722 l 182 606 q 392 663 299 663 q 512 621 475 663 q 550 492 550 579 l 550 446 l 424 441 q 64 205 64 431 q 126 43 64 100 q 300 -14 189 -14 q 438 11 382 -14 q 549 106 493 36 l 554 106 l 576 0 m 322 79 q 219 111 256 79 q 182 204 182 143 q 241 319 182 282 q 435 361 300 356 l 547 366 l 547 298 q 487 137 547 195 q 322 79 427 79 m 296 859 l 296 842 l 371 842 q 473 941 414 877 q 562 1050 532 1006 l 562 1064 l 425 1064 q 366 960 404 1020 q 296 859 328 901 "},"â":{"ha":772,"x_min":64,"x_max":660,"o":"m 576 0 l 660 0 l 660 507 q 596 696 660 637 q 399 755 532 755 q 268 739 333 755 q 147 692 202 722 l 182 606 q 392 663 299 663 q 512 621 475 663 q 550 492 550 579 l 550 446 l 424 441 q 64 205 64 431 q 126 43 64 100 q 300 -14 189 -14 q 438 11 382 -14 q 549 106 493 36 l 554 106 l 576 0 m 322 79 q 219 111 256 79 q 182 204 182 143 q 241 319 182 282 q 435 361 300 356 l 547 366 l 547 298 q 487 137 547 195 q 322 79 427 79 m 155 857 l 155 842 l 233 842 q 381 968 289 877 q 531 842 471 879 l 612 842 l 612 857 q 490 990 527 945 q 438 1064 453 1036 l 326 1064 q 275 993 310 1036 q 155 857 241 949 "},"ã":{"ha":772,"x_min":64,"x_max":660,"o":"m 576 0 l 660 0 l 660 507 q 596 696 660 637 q 399 755 532 755 q 268 739 333 755 q 147 692 202 722 l 182 606 q 392 663 299 663 q 512 621 475 663 q 550 492 550 579 l 550 446 l 424 441 q 64 205 64 431 q 126 43 64 100 q 300 -14 189 -14 q 438 11 382 -14 q 549 106 493 36 l 554 106 l 576 0 m 322 79 q 219 111 256 79 q 182 204 182 143 q 241 319 182 282 q 435 361 300 356 l 547 366 l 547 298 q 487 137 547 195 q 322 79 427 79 m 489 843 q 591 889 553 843 q 638 1018 629 936 l 571 1018 q 545 956 561 976 q 495 936 528 936 q 449 948 473 936 q 398 976 425 961 q 342 1004 372 991 q 282 1017 313 1017 q 181 970 220 1017 q 134 842 142 924 l 200 842 q 227 903 210 883 q 278 924 244 924 q 326 911 301 924 q 377 883 351 899 q 432 856 404 868 q 489 843 460 843 "},"ä":{"ha":772,"x_min":64,"x_max":660,"o":"m 576 0 l 660 0 l 660 507 q 596 696 660 637 q 399 755 532 755 q 268 739 333 755 q 147 692 202 722 l 182 606 q 392 663 299 663 q 512 621 475 663 q 550 492 550 579 l 550 446 l 424 441 q 64 205 64 431 q 126 43 64 100 q 300 -14 189 -14 q 438 11 382 -14 q 549 106 493 36 l 554 106 l 576 0 m 322 79 q 219 111 256 79 q 182 204 182 143 q 241 319 182 282 q 435 361 300 356 l 547 366 l 547 298 q 487 137 547 195 q 322 79 427 79 m 189 945 q 207 894 189 911 q 250 878 225 878 q 295 894 276 878 q 313 945 313 911 q 295 996 313 980 q 250 1011 276 1011 q 207 996 225 1011 q 189 945 189 980 m 448 945 q 466 894 448 911 q 509 878 484 878 q 552 894 534 878 q 571 945 571 911 q 552 996 571 980 q 509 1011 534 1011 q 466 996 484 1011 q 448 945 448 980 "},"å":{"ha":772,"x_min":64,"x_max":660,"o":"m 576 0 l 660 0 l 660 507 q 596 696 660 637 q 399 755 532 755 q 268 739 333 755 q 147 692 202 722 l 182 606 q 392 663 299 663 q 512 621 475 663 q 550 492 550 579 l 550 446 l 424 441 q 64 205 64 431 q 126 43 64 100 q 300 -14 189 -14 q 438 11 382 -14 q 549 106 493 36 l 554 106 l 576 0 m 322 79 q 219 111 256 79 q 182 204 182 143 q 241 319 182 282 q 435 361 300 356 l 547 366 l 547 298 q 487 137 547 195 q 322 79 427 79 m 545 989 q 503 1092 545 1051 q 393 1132 461 1132 q 284 1093 325 1132 q 243 987 243 1054 q 283 881 243 921 q 393 842 324 842 q 504 882 462 842 q 545 989 545 922 m 472 987 q 450 929 472 949 q 393 908 428 908 q 334 929 354 908 q 313 987 313 949 q 336 1046 313 1025 q 393 1067 358 1067 q 450 1046 427 1067 q 472 987 472 1025 "},"æ":{"ha":1192,"x_min":64,"x_max":1120,"o":"m 64 205 q 126 44 64 102 q 300 -14 189 -14 q 457 22 391 -14 q 579 144 524 58 q 860 -14 664 -14 q 979 -2 928 -14 q 1088 35 1029 9 l 1088 135 q 978 97 1031 109 q 863 85 924 85 q 644 353 650 85 l 1120 353 l 1120 425 q 1041 666 1120 576 q 832 757 962 757 q 700 724 758 757 q 606 632 642 692 q 522 726 578 696 q 378 755 466 755 q 244 738 311 755 q 126 692 176 720 l 161 606 q 370 663 272 663 q 490 621 450 663 q 529 492 529 579 l 529 446 l 404 441 q 148 375 232 436 q 64 205 64 315 m 182 204 q 237 318 182 281 q 419 361 293 355 l 526 366 l 526 298 q 469 137 526 194 q 314 79 412 79 q 218 110 254 79 q 182 204 182 140 m 831 663 q 956 606 912 663 q 999 443 999 549 l 647 443 q 702 606 654 550 q 831 663 749 663 "},"ç":{"ha":661,"x_min":78,"x_max":615,"o":"m 416 -14 q 604 25 530 -14 l 604 125 q 414 85 507 85 q 250 158 305 85 q 195 368 195 231 q 421 657 195 657 q 499 647 455 657 q 581 623 543 637 l 615 718 q 531 745 585 734 q 424 757 477 757 q 168 655 258 757 q 78 367 78 553 q 166 86 78 185 q 416 -14 255 -14 m 517 -196 q 395 -78 517 -104 l 432 0 l 357 0 l 298 -121 q 398 -150 372 -132 q 425 -197 425 -168 q 398 -248 425 -234 q 317 -261 370 -261 q 246 -256 277 -261 l 246 -328 q 311 -334 277 -334 q 465 -298 413 -334 q 517 -196 517 -262 "},"è":{"ha":779,"x_min":78,"x_max":707,"o":"m 433 -14 q 562 -2 509 -14 q 675 35 615 9 l 675 135 q 437 85 557 85 q 261 153 323 85 q 195 351 198 220 l 707 351 l 707 422 q 625 665 707 573 q 404 757 544 757 q 166 651 255 757 q 78 366 78 545 q 173 87 78 187 q 433 -14 269 -14 m 403 663 q 538 606 491 663 q 586 443 586 549 l 197 443 q 260 604 207 546 q 403 663 313 663 m 482 842 l 482 859 q 414 956 452 895 q 353 1064 375 1017 l 216 1064 l 216 1050 q 303 942 243 1007 q 408 842 363 877 l 482 842 "},"é":{"ha":779,"x_min":78,"x_max":707,"o":"m 433 -14 q 562 -2 509 -14 q 675 35 615 9 l 675 135 q 437 85 557 85 q 261 153 323 85 q 195 351 198 220 l 707 351 l 707 422 q 625 665 707 573 q 404 757 544 757 q 166 651 255 757 q 78 366 78 545 q 173 87 78 187 q 433 -14 269 -14 m 403 663 q 538 606 491 663 q 586 443 586 549 l 197 443 q 260 604 207 546 q 403 663 313 663 m 319 859 l 319 842 l 395 842 q 497 941 438 877 q 586 1050 556 1006 l 586 1064 l 449 1064 q 390 960 427 1020 q 319 859 352 901 "},"ê":{"ha":779,"x_min":78,"x_max":707,"o":"m 433 -14 q 562 -2 509 -14 q 675 35 615 9 l 675 135 q 437 85 557 85 q 261 153 323 85 q 195 351 198 220 l 707 351 l 707 422 q 625 665 707 573 q 404 757 544 757 q 166 651 255 757 q 78 366 78 545 q 173 87 78 187 q 433 -14 269 -14 m 403 663 q 538 606 491 663 q 586 443 586 549 l 197 443 q 260 604 207 546 q 403 663 313 663 m 176 857 l 176 842 l 254 842 q 402 968 310 877 q 552 842 492 879 l 633 842 l 633 857 q 511 990 548 945 q 459 1064 474 1036 l 347 1064 q 296 993 331 1036 q 176 857 262 949 "},"ë":{"ha":779,"x_min":78,"x_max":707,"o":"m 433 -14 q 562 -2 509 -14 q 675 35 615 9 l 675 135 q 437 85 557 85 q 261 153 323 85 q 195 351 198 220 l 707 351 l 707 422 q 625 665 707 573 q 404 757 544 757 q 166 651 255 757 q 78 366 78 545 q 173 87 78 187 q 433 -14 269 -14 m 403 663 q 538 606 491 663 q 586 443 586 549 l 197 443 q 260 604 207 546 q 403 663 313 663 m 216 945 q 234 894 216 911 q 277 878 252 878 q 322 894 303 878 q 340 945 340 911 q 322 996 340 980 q 277 1011 303 1011 q 234 996 252 1011 q 216 945 216 980 m 475 945 q 493 894 475 911 q 536 878 511 878 q 579 894 561 878 q 598 945 598 911 q 579 996 598 980 q 536 1011 561 1011 q 493 996 511 1011 q 475 945 475 980 "},"ì":{"ha":351,"x_min":-26,"x_max":241,"o":"m 232 0 l 232 743 l 119 743 l 119 0 l 232 0 m 241 842 l 241 859 q 172 956 211 895 q 112 1064 134 1017 l -26 1064 l -26 1050 q 62 942 1 1007 q 166 842 122 877 l 241 842 "},"í":{"ha":351,"x_min":115,"x_max":381,"o":"m 232 0 l 232 743 l 119 743 l 119 0 l 232 0 m 115 859 l 115 842 l 190 842 q 292 941 233 877 q 381 1050 351 1006 l 381 1064 l 244 1064 q 185 960 222 1020 q 115 859 147 901 "},"î":{"ha":351,"x_min":-52,"x_max":405,"o":"m 232 0 l 232 743 l 119 743 l 119 0 l 232 0 m -52 857 l -52 842 l 26 842 q 174 968 82 877 q 324 842 264 879 l 405 842 l 405 857 q 283 990 320 945 q 231 1064 246 1036 l 119 1064 q 68 993 103 1036 q -52 857 34 949 "},"ï":{"ha":351,"x_min":-14,"x_max":368,"o":"m 232 0 l 232 743 l 119 743 l 119 0 l 232 0 m -14 945 q 4 894 -14 911 q 47 878 22 878 q 92 894 73 878 q 111 945 111 911 q 92 996 111 980 q 47 1011 73 1011 q 4 996 22 1011 q -14 945 -14 980 m 245 945 q 263 894 245 911 q 306 878 281 878 q 350 894 331 878 q 368 945 368 911 q 350 996 368 980 q 306 1011 331 1011 q 263 996 281 1011 q 245 945 245 980 "},"ð":{"ha":828,"x_min":77,"x_max":761,"o":"m 761 382 q 705 672 761 537 q 546 904 649 807 l 686 985 l 635 1057 l 473 964 q 298 1064 404 1015 l 252 985 q 378 909 315 951 l 220 819 l 269 746 l 453 851 q 631 576 592 722 l 625 574 q 404 656 557 656 q 166 567 255 656 q 77 322 77 478 q 171 78 77 169 q 416 -14 266 -14 q 672 89 584 -14 q 761 382 761 191 m 647 347 q 592 149 647 217 q 419 81 538 81 q 250 143 309 81 q 191 318 191 205 q 419 562 191 562 q 586 505 525 562 q 647 347 647 447 "},"ñ":{"ha":852,"x_min":119,"x_max":741,"o":"m 628 0 l 741 0 l 741 485 q 673 692 741 627 q 471 757 605 757 q 332 727 394 757 q 235 642 269 696 l 229 642 l 211 743 l 119 743 l 119 0 l 232 0 l 232 390 q 286 598 232 535 q 457 661 340 661 q 587 616 545 661 q 628 481 628 572 l 628 0 m 544 843 q 646 889 608 843 q 693 1018 684 936 l 626 1018 q 600 956 616 976 q 550 936 583 936 q 504 948 528 936 q 453 976 479 961 q 397 1004 427 991 q 337 1017 368 1017 q 236 970 275 1017 q 189 842 197 924 l 255 842 q 282 903 264 883 q 333 924 299 924 q 381 911 356 924 q 432 883 406 899 q 487 856 459 868 q 544 843 515 843 "},"ò":{"ha":839,"x_min":78,"x_max":761,"o":"m 761 372 q 669 653 761 549 q 421 757 577 757 q 169 655 260 757 q 78 372 78 554 q 120 168 78 255 q 239 33 162 80 q 416 -14 317 -14 q 669 89 578 -14 q 761 372 761 191 m 195 372 q 251 589 195 516 q 418 661 307 661 q 587 588 530 661 q 644 372 644 514 q 587 155 644 229 q 419 81 530 81 q 252 155 309 81 q 195 372 195 230 m 503 842 l 503 859 q 435 956 473 895 q 374 1064 396 1017 l 237 1064 l 237 1050 q 324 942 264 1007 q 429 842 385 877 l 503 842 "},"ó":{"ha":839,"x_min":78,"x_max":761,"o":"m 761 372 q 669 653 761 549 q 421 757 577 757 q 169 655 260 757 q 78 372 78 554 q 120 168 78 255 q 239 33 162 80 q 416 -14 317 -14 q 669 89 578 -14 q 761 372 761 191 m 195 372 q 251 589 195 516 q 418 661 307 661 q 587 588 530 661 q 644 372 644 514 q 587 155 644 229 q 419 81 530 81 q 252 155 309 81 q 195 372 195 230 m 325 859 l 325 842 l 400 842 q 503 941 444 877 q 591 1050 562 1006 l 591 1064 l 454 1064 q 395 960 433 1020 q 325 859 357 901 "},"ô":{"ha":839,"x_min":78,"x_max":761,"o":"m 761 372 q 669 653 761 549 q 421 757 577 757 q 169 655 260 757 q 78 372 78 554 q 120 168 78 255 q 239 33 162 80 q 416 -14 317 -14 q 669 89 578 -14 q 761 372 761 191 m 195 372 q 251 589 195 516 q 418 661 307 661 q 587 588 530 661 q 644 372 644 514 q 587 155 644 229 q 419 81 530 81 q 252 155 309 81 q 195 372 195 230 m 191 857 l 191 842 l 269 842 q 418 968 326 877 q 568 842 508 879 l 648 842 l 648 857 q 527 990 564 945 q 475 1064 490 1036 l 362 1064 q 312 993 347 1036 q 191 857 277 949 "},"õ":{"ha":839,"x_min":78,"x_max":761,"o":"m 761 372 q 669 653 761 549 q 421 757 577 757 q 169 655 260 757 q 78 372 78 554 q 120 168 78 255 q 239 33 162 80 q 416 -14 317 -14 q 669 89 578 -14 q 761 372 761 191 m 195 372 q 251 589 195 516 q 418 661 307 661 q 587 588 530 661 q 644 372 644 514 q 587 155 644 229 q 419 81 530 81 q 252 155 309 81 q 195 372 195 230 m 524 843 q 626 889 588 843 q 673 1018 665 936 l 606 1018 q 580 956 596 976 q 530 936 564 936 q 484 948 509 936 q 433 976 460 961 q 378 1004 407 991 q 317 1017 349 1017 q 217 970 256 1017 q 169 842 178 924 l 235 842 q 262 903 245 883 q 313 924 279 924 q 361 911 336 924 q 413 883 386 899 q 467 856 439 868 q 524 843 495 843 "},"ö":{"ha":839,"x_min":78,"x_max":761,"o":"m 761 372 q 669 653 761 549 q 421 757 577 757 q 169 655 260 757 q 78 372 78 554 q 120 168 78 255 q 239 33 162 80 q 416 -14 317 -14 q 669 89 578 -14 q 761 372 761 191 m 195 372 q 251 589 195 516 q 418 661 307 661 q 587 588 530 661 q 644 372 644 514 q 587 155 644 229 q 419 81 530 81 q 252 155 309 81 q 195 372 195 230 m 228 945 q 246 894 228 911 q 289 878 264 878 q 333 894 315 878 q 352 945 352 911 q 333 996 352 980 q 289 1011 315 1011 q 246 996 264 1011 q 228 945 228 980 m 486 945 q 504 894 486 911 q 547 878 522 878 q 591 894 572 878 q 610 945 610 911 q 591 996 610 980 q 547 1011 572 1011 q 504 996 522 1011 q 486 945 486 980 "},"÷":{"ha":794,"x_min":71,"x_max":722,"o":"m 71 443 l 722 443 l 722 536 l 71 536 l 71 443 m 319 253 q 340 192 319 214 q 396 171 361 171 q 451 193 431 171 q 471 253 471 214 q 451 314 471 292 q 396 335 431 335 q 339 314 359 335 q 319 253 319 294 m 319 726 q 340 666 319 687 q 396 644 361 644 q 451 666 431 644 q 471 726 471 688 q 451 787 471 766 q 396 808 431 808 q 339 788 359 808 q 319 726 319 767 "},"ø":{"ha":839,"x_min":78,"x_max":761,"o":"m 761 372 q 675 644 761 541 l 741 734 l 661 786 l 604 705 q 421 757 526 757 q 169 655 260 757 q 78 372 78 554 q 165 96 78 199 l 102 7 l 179 -46 l 236 33 q 416 -14 312 -14 q 669 89 578 -14 q 761 372 761 191 m 195 372 q 251 589 195 516 q 418 661 307 661 q 546 625 495 661 l 231 187 q 195 372 195 256 m 644 372 q 587 155 644 229 q 419 81 530 81 q 294 115 342 81 l 610 551 q 644 372 644 484 "},"ù":{"ha":852,"x_min":111,"x_max":733,"o":"m 225 743 l 111 743 l 111 257 q 179 51 111 115 q 382 -14 246 -14 q 522 16 460 -14 q 618 100 583 45 l 624 100 l 640 0 l 733 0 l 733 743 l 621 743 l 621 353 q 567 144 621 208 q 396 81 513 81 q 267 125 308 81 q 225 261 225 170 l 225 743 m 492 842 l 492 859 q 424 956 463 895 q 363 1064 385 1017 l 226 1064 l 226 1050 q 313 942 253 1007 q 418 842 374 877 l 492 842 "},"ú":{"ha":852,"x_min":111,"x_max":733,"o":"m 225 743 l 111 743 l 111 257 q 179 51 111 115 q 382 -14 246 -14 q 522 16 460 -14 q 618 100 583 45 l 624 100 l 640 0 l 733 0 l 733 743 l 621 743 l 621 353 q 567 144 621 208 q 396 81 513 81 q 267 125 308 81 q 225 261 225 170 l 225 743 m 343 859 l 343 842 l 418 842 q 521 941 462 877 q 610 1050 580 1006 l 610 1064 l 473 1064 q 413 960 451 1020 q 343 859 376 901 "},"û":{"ha":852,"x_min":111,"x_max":733,"o":"m 225 743 l 111 743 l 111 257 q 179 51 111 115 q 382 -14 246 -14 q 522 16 460 -14 q 618 100 583 45 l 624 100 l 640 0 l 733 0 l 733 743 l 621 743 l 621 353 q 567 144 621 208 q 396 81 513 81 q 267 125 308 81 q 225 261 225 170 l 225 743 m 194 857 l 194 842 l 272 842 q 420 968 328 877 q 570 842 511 879 l 651 842 l 651 857 q 529 990 566 945 q 477 1064 492 1036 l 365 1064 q 315 993 349 1036 q 194 857 280 949 "},"ü":{"ha":852,"x_min":111,"x_max":733,"o":"m 225 743 l 111 743 l 111 257 q 179 51 111 115 q 382 -14 246 -14 q 522 16 460 -14 q 618 100 583 45 l 624 100 l 640 0 l 733 0 l 733 743 l 621 743 l 621 353 q 567 144 621 208 q 396 81 513 81 q 267 125 308 81 q 225 261 225 170 l 225 743 m 232 945 q 250 894 232 911 q 293 878 268 878 q 337 894 319 878 q 356 945 356 911 q 337 996 356 980 q 293 1011 319 1011 q 250 996 268 1011 q 232 945 232 980 m 490 945 q 508 894 490 911 q 551 878 526 878 q 595 894 576 878 q 614 945 614 911 q 595 996 614 980 q 551 1011 576 1011 q 508 996 526 1011 q 490 945 490 980 "},"ý":{"ha":700,"x_min":1,"x_max":699,"o":"m 1 743 l 301 -4 l 260 -110 q 94 -240 210 -240 q 11 -232 48 -240 l 11 -322 q 113 -334 61 -334 q 268 -281 205 -334 q 379 -103 332 -229 l 699 743 l 578 743 q 394 228 422 312 q 357 110 366 144 l 351 110 q 285 319 338 174 l 122 743 l 1 743 m 279 859 l 279 842 l 354 842 q 456 941 397 877 q 545 1050 515 1006 l 545 1064 l 408 1064 q 349 960 387 1020 q 279 859 311 901 "},"þ":{"ha":851,"x_min":119,"x_max":774,"o":"m 233 643 l 228 643 q 232 739 232 704 l 232 1055 l 119 1055 l 119 -334 l 232 -334 l 232 -22 q 227 73 232 20 l 224 96 l 232 96 q 465 -14 315 -14 q 692 89 610 -14 q 774 372 774 191 q 692 655 774 553 q 465 757 611 757 q 336 730 393 757 q 233 643 278 703 m 450 661 q 607 590 557 661 q 657 374 657 519 q 452 81 657 81 q 284 148 336 81 q 232 372 232 216 l 232 400 q 285 599 233 536 q 450 661 336 661 "},"ÿ":{"ha":700,"x_min":1,"x_max":699,"o":"m 1 743 l 301 -4 l 260 -110 q 94 -240 210 -240 q 11 -232 48 -240 l 11 -322 q 113 -334 61 -334 q 268 -281 205 -334 q 379 -103 332 -229 l 699 743 l 578 743 q 394 228 422 312 q 357 110 366 144 l 351 110 q 285 319 338 174 l 122 743 l 1 743 m 159 945 q 177 894 159 911 q 220 878 195 878 q 264 894 245 878 q 283 945 283 911 q 264 996 283 980 q 220 1011 245 1011 q 177 996 195 1011 q 159 945 159 980 m 417 945 q 435 894 417 911 q 478 878 453 878 q 522 894 503 878 q 541 945 541 911 q 522 996 541 980 q 478 1011 503 1011 q 435 996 453 1011 q 417 945 417 980 "},"Ā":{"ha":879,"x_min":0,"x_max":879,"o":"m 760 0 l 879 0 l 489 996 l 392 996 l 0 0 l 117 0 l 239 315 l 636 315 l 760 0 m 600 419 l 279 419 l 396 726 q 439 869 424 804 q 485 726 463 785 l 600 419 m 247 1164 l 247 1071 l 654 1071 l 654 1164 l 247 1164 "},"ā":{"ha":772,"x_min":64,"x_max":660,"o":"m 576 0 l 660 0 l 660 507 q 596 696 660 637 q 399 755 532 755 q 268 739 333 755 q 147 692 202 722 l 182 606 q 392 663 299 663 q 512 621 475 663 q 550 492 550 579 l 550 446 l 424 441 q 64 205 64 431 q 126 43 64 100 q 300 -14 189 -14 q 438 11 382 -14 q 549 106 493 36 l 554 106 l 576 0 m 322 79 q 219 111 256 79 q 182 204 182 143 q 241 319 182 282 q 435 361 300 356 l 547 366 l 547 298 q 487 137 547 195 q 322 79 427 79 m 197 935 l 197 842 l 604 842 l 604 935 l 197 935 "},"Ă":{"ha":879,"x_min":0,"x_max":879,"o":"m 760 0 l 879 0 l 489 996 l 392 996 l 0 0 l 117 0 l 239 315 l 636 315 l 760 0 m 600 419 l 279 419 l 396 726 q 439 869 424 804 q 485 726 463 785 l 600 419 m 435 1071 q 585 1119 528 1071 q 648 1253 642 1167 l 578 1253 q 538 1185 571 1207 q 437 1164 506 1164 q 355 1173 380 1164 q 316 1200 330 1181 q 298 1253 302 1219 l 228 1253 q 287 1117 234 1164 q 435 1071 340 1071 "},"ă":{"ha":772,"x_min":64,"x_max":660,"o":"m 576 0 l 660 0 l 660 507 q 596 696 660 637 q 399 755 532 755 q 268 739 333 755 q 147 692 202 722 l 182 606 q 392 663 299 663 q 512 621 475 663 q 550 492 550 579 l 550 446 l 424 441 q 64 205 64 431 q 126 43 64 100 q 300 -14 189 -14 q 438 11 382 -14 q 549 106 493 36 l 554 106 l 576 0 m 322 79 q 219 111 256 79 q 182 204 182 143 q 241 319 182 282 q 435 361 300 356 l 547 366 l 547 298 q 487 137 547 195 q 322 79 427 79 m 387 842 q 537 890 480 842 q 600 1023 593 938 l 530 1023 q 490 956 523 978 q 389 935 458 935 q 307 943 332 935 q 268 971 282 952 q 250 1023 254 990 l 180 1023 q 239 888 186 935 q 387 842 292 842 "},"Ą":{"ha":879,"x_min":0,"x_max":880,"o":"m 760 0 l 879 0 l 489 996 l 392 996 l 0 0 l 117 0 l 239 315 l 636 315 l 760 0 m 600 419 l 279 419 l 396 726 q 439 869 424 804 q 485 726 463 785 l 600 419 m 750 -161 q 773 -82 750 -119 q 843 0 797 -45 l 762 0 q 684 -82 713 -36 q 654 -175 654 -127 q 795 -302 654 -302 q 880 -290 836 -302 l 880 -216 q 814 -225 842 -225 q 750 -161 750 -225 "},"ą":{"ha":772,"x_min":64,"x_max":694,"o":"m 576 0 l 660 0 l 660 507 q 596 696 660 637 q 399 755 532 755 q 268 739 333 755 q 147 692 202 722 l 182 606 q 392 663 299 663 q 512 621 475 663 q 550 492 550 579 l 550 446 l 424 441 q 64 205 64 431 q 126 43 64 100 q 300 -14 189 -14 q 438 11 382 -14 q 549 106 493 36 l 554 106 l 576 0 m 322 79 q 219 111 256 79 q 182 204 182 143 q 241 319 182 282 q 435 361 300 356 l 547 366 l 547 298 q 487 137 547 195 q 322 79 427 79 m 565 -161 q 588 -82 565 -119 q 658 0 612 -45 l 576 0 q 498 -82 528 -36 q 469 -175 469 -127 q 610 -302 469 -302 q 694 -290 650 -302 l 694 -216 q 629 -225 657 -225 q 565 -161 565 -225 "},"Ć":{"ha":876,"x_min":85,"x_max":835,"o":"m 561 903 q 786 850 673 903 l 835 949 q 562 1006 718 1006 q 308 943 416 1006 q 142 766 199 881 q 85 497 85 650 q 204 119 85 252 q 542 -14 323 -14 q 796 25 693 -14 l 796 126 q 559 89 663 89 q 299 195 391 89 q 208 496 208 301 q 303 794 208 685 q 561 903 397 903 m 446 1088 l 446 1071 l 521 1071 q 623 1171 564 1106 q 712 1279 682 1235 l 712 1293 l 575 1293 q 516 1190 553 1249 q 446 1088 478 1130 "},"ć":{"ha":661,"x_min":78,"x_max":615,"o":"m 416 -14 q 604 25 530 -14 l 604 125 q 414 85 507 85 q 250 158 305 85 q 195 368 195 231 q 421 657 195 657 q 499 647 455 657 q 581 623 543 637 l 615 718 q 531 745 585 734 q 424 757 477 757 q 168 655 258 757 q 78 367 78 553 q 166 86 78 185 q 416 -14 255 -14 m 313 859 l 313 842 l 388 842 q 490 941 431 877 q 579 1050 549 1006 l 579 1064 l 442 1064 q 383 960 420 1020 q 313 859 345 901 "},"Ĉ":{"ha":876,"x_min":85,"x_max":835,"o":"m 561 903 q 786 850 673 903 l 835 949 q 562 1006 718 1006 q 308 943 416 1006 q 142 766 199 881 q 85 497 85 650 q 204 119 85 252 q 542 -14 323 -14 q 796 25 693 -14 l 796 126 q 559 89 663 89 q 299 195 391 89 q 208 496 208 301 q 303 794 208 685 q 561 903 397 903 m 298 1086 l 298 1071 l 376 1071 q 525 1197 433 1106 q 675 1071 615 1108 l 755 1071 l 755 1086 q 634 1220 671 1175 q 582 1293 597 1265 l 469 1293 q 419 1222 454 1265 q 298 1086 385 1179 "},"ĉ":{"ha":661,"x_min":78,"x_max":615,"o":"m 416 -14 q 604 25 530 -14 l 604 125 q 414 85 507 85 q 250 158 305 85 q 195 368 195 231 q 421 657 195 657 q 499 647 455 657 q 581 623 543 637 l 615 718 q 531 745 585 734 q 424 757 477 757 q 168 655 258 757 q 78 367 78 553 q 166 86 78 185 q 416 -14 255 -14 m 152 857 l 152 842 l 230 842 q 378 968 286 877 q 528 842 469 879 l 609 842 l 609 857 q 487 990 524 945 q 435 1064 450 1036 l 323 1064 q 273 993 307 1036 q 152 857 238 949 "},"Ċ":{"ha":876,"x_min":85,"x_max":835,"o":"m 561 903 q 786 850 673 903 l 835 949 q 562 1006 718 1006 q 308 943 416 1006 q 142 766 199 881 q 85 497 85 650 q 204 119 85 252 q 542 -14 323 -14 q 796 25 693 -14 l 796 126 q 559 89 663 89 q 299 195 391 89 q 208 496 208 301 q 303 794 208 685 q 561 903 397 903 m 475 1174 q 494 1117 475 1136 q 542 1099 513 1099 q 589 1117 569 1099 q 608 1174 608 1136 q 589 1230 608 1212 q 542 1249 569 1249 q 494 1231 513 1249 q 475 1174 475 1213 "},"ċ":{"ha":661,"x_min":78,"x_max":615,"o":"m 416 -14 q 604 25 530 -14 l 604 125 q 414 85 507 85 q 250 158 305 85 q 195 368 195 231 q 421 657 195 657 q 499 647 455 657 q 581 623 543 637 l 615 718 q 531 745 585 734 q 424 757 477 757 q 168 655 258 757 q 78 367 78 553 q 166 86 78 185 q 416 -14 255 -14 m 338 945 q 357 888 338 907 q 404 869 376 869 q 451 888 431 869 q 471 945 471 907 q 451 1001 471 983 q 404 1019 431 1019 q 357 1001 376 1019 q 338 945 338 983 "},"Č":{"ha":876,"x_min":85,"x_max":835,"o":"m 561 903 q 786 850 673 903 l 835 949 q 562 1006 718 1006 q 308 943 416 1006 q 142 766 199 881 q 85 497 85 650 q 204 119 85 252 q 542 -14 323 -14 q 796 25 693 -14 l 796 126 q 559 89 663 89 q 299 195 391 89 q 208 496 208 301 q 303 794 208 685 q 561 903 397 903 m 313 1293 l 313 1276 q 433 1141 399 1184 q 484 1071 468 1099 l 596 1071 q 725 1230 627 1130 l 770 1276 l 770 1293 l 689 1293 q 539 1165 627 1253 q 391 1293 468 1243 l 313 1293 "},"č":{"ha":661,"x_min":78,"x_max":630,"o":"m 416 -14 q 604 25 530 -14 l 604 125 q 414 85 507 85 q 250 158 305 85 q 195 368 195 231 q 421 657 195 657 q 499 647 455 657 q 581 623 543 637 l 615 718 q 531 745 585 734 q 424 757 477 757 q 168 655 258 757 q 78 367 78 553 q 166 86 78 185 q 416 -14 255 -14 m 173 1064 l 173 1047 q 294 912 259 955 q 344 842 328 869 l 456 842 q 585 1001 488 901 l 630 1047 l 630 1064 l 549 1064 q 399 936 488 1024 q 251 1064 328 1014 l 173 1064 "},"Ď":{"ha":1013,"x_min":136,"x_max":928,"o":"m 928 505 q 800 863 928 735 q 440 991 671 991 l 136 991 l 136 0 l 411 0 q 794 130 661 0 q 928 505 928 260 m 806 501 q 702 201 806 302 q 392 100 598 100 l 252 100 l 252 892 l 419 892 q 708 793 611 892 q 806 501 806 695 m 241 1293 l 241 1276 q 362 1141 328 1184 q 412 1071 397 1099 l 525 1071 q 654 1230 556 1130 l 699 1276 l 699 1293 l 618 1293 q 468 1165 556 1253 q 319 1293 397 1243 l 241 1293 "},"ď":{"ha":851,"x_min":78,"x_max":956,"o":"m 625 100 l 640 0 l 732 0 l 732 1055 l 619 1055 l 619 753 l 622 701 l 627 647 l 618 647 q 386 757 537 757 q 159 655 241 757 q 78 370 78 553 q 159 86 78 186 q 386 -14 240 -14 q 619 100 541 -14 l 625 100 m 400 81 q 247 153 299 81 q 195 368 195 226 q 247 586 195 509 q 399 663 300 663 q 567 595 514 663 q 619 370 619 528 l 619 346 q 567 143 619 206 q 400 81 515 81 m 795 850 l 795 833 l 857 833 q 918 945 888 881 q 956 1043 948 1008 l 956 1055 l 842 1055 q 822 944 835 1000 q 795 850 808 887 "},"Đ":{"ha":1003,"x_min":32,"x_max":917,"o":"m 917 505 q 788 864 917 737 q 431 991 659 991 l 136 991 l 136 542 l 32 542 l 32 440 l 136 440 l 136 0 l 400 0 q 784 130 650 0 q 917 505 917 260 m 794 501 q 380 100 794 100 l 252 100 l 252 440 l 509 440 l 509 542 l 252 542 l 252 892 l 408 892 q 794 501 794 892 "},"đ":{"ha":851,"x_min":78,"x_max":838,"o":"m 625 100 l 640 0 l 732 0 l 732 843 l 838 843 l 838 930 l 732 930 l 732 1055 l 619 1055 l 619 930 l 315 930 l 315 843 l 619 843 l 619 753 q 627 647 619 703 l 618 647 q 386 757 537 757 q 159 655 241 757 q 78 370 78 553 q 159 86 78 186 q 386 -14 240 -14 q 619 100 541 -14 l 625 100 m 400 81 q 247 153 299 81 q 195 368 195 226 q 247 586 195 509 q 399 663 300 663 q 567 595 514 663 q 619 370 619 528 l 619 346 q 567 143 619 206 q 400 81 515 81 "},"Ē":{"ha":772,"x_min":136,"x_max":689,"o":"m 689 0 l 689 103 l 252 103 l 252 468 l 663 468 l 663 570 l 252 570 l 252 889 l 689 889 l 689 991 l 136 991 l 136 0 l 689 0 m 216 1164 l 216 1071 l 623 1071 l 623 1164 l 216 1164 "},"ē":{"ha":779,"x_min":78,"x_max":707,"o":"m 433 -14 q 562 -2 509 -14 q 675 35 615 9 l 675 135 q 437 85 557 85 q 261 153 323 85 q 195 351 198 220 l 707 351 l 707 422 q 625 665 707 573 q 404 757 544 757 q 166 651 255 757 q 78 366 78 545 q 173 87 78 187 q 433 -14 269 -14 m 403 663 q 538 606 491 663 q 586 443 586 549 l 197 443 q 260 604 207 546 q 403 663 313 663 m 211 935 l 211 842 l 618 842 l 618 935 l 211 935 "},"Ĕ":{"ha":772,"x_min":136,"x_max":689,"o":"m 689 0 l 689 103 l 252 103 l 252 468 l 663 468 l 663 570 l 252 570 l 252 889 l 689 889 l 689 991 l 136 991 l 136 0 l 689 0 m 416 1071 q 567 1119 510 1071 q 630 1253 623 1167 l 559 1253 q 520 1185 553 1207 q 419 1164 488 1164 q 337 1173 361 1164 q 298 1200 312 1181 q 280 1253 284 1219 l 210 1253 q 269 1117 216 1164 q 416 1071 321 1071 "},"ĕ":{"ha":779,"x_min":78,"x_max":707,"o":"m 433 -14 q 562 -2 509 -14 q 675 35 615 9 l 675 135 q 437 85 557 85 q 261 153 323 85 q 195 351 198 220 l 707 351 l 707 422 q 625 665 707 573 q 404 757 544 757 q 166 651 255 757 q 78 366 78 545 q 173 87 78 187 q 433 -14 269 -14 m 403 663 q 538 606 491 663 q 586 443 586 549 l 197 443 q 260 604 207 546 q 403 663 313 663 m 402 842 q 552 890 496 842 q 616 1023 609 938 l 545 1023 q 506 956 538 978 q 405 935 473 935 q 322 943 347 935 q 284 971 298 952 q 266 1023 270 990 l 195 1023 q 254 888 201 935 q 402 842 307 842 "},"Ė":{"ha":772,"x_min":136,"x_max":689,"o":"m 689 0 l 689 103 l 252 103 l 252 468 l 663 468 l 663 570 l 252 570 l 252 889 l 689 889 l 689 991 l 136 991 l 136 0 l 689 0 m 359 1154 q 378 1098 359 1116 q 425 1079 397 1079 q 472 1098 452 1079 q 492 1154 492 1116 q 472 1211 492 1192 q 425 1229 452 1229 q 378 1211 397 1229 q 359 1154 359 1193 "},"ė":{"ha":779,"x_min":78,"x_max":707,"o":"m 433 -14 q 562 -2 509 -14 q 675 35 615 9 l 675 135 q 437 85 557 85 q 261 153 323 85 q 195 351 198 220 l 707 351 l 707 422 q 625 665 707 573 q 404 757 544 757 q 166 651 255 757 q 78 366 78 545 q 173 87 78 187 q 433 -14 269 -14 m 403 663 q 538 606 491 663 q 586 443 586 549 l 197 443 q 260 604 207 546 q 403 663 313 663 m 340 945 q 359 888 340 907 q 407 869 378 869 q 454 888 434 869 q 473 945 473 907 q 454 1001 473 983 q 407 1019 434 1019 q 359 1001 378 1019 q 340 945 340 983 "},"Ę":{"ha":772,"x_min":136,"x_max":689,"o":"m 689 0 l 689 103 l 252 103 l 252 468 l 663 468 l 663 570 l 252 570 l 252 889 l 689 889 l 689 991 l 136 991 l 136 0 l 689 0 m 546 -161 q 569 -82 546 -119 q 639 0 593 -45 l 557 0 q 479 -82 509 -36 q 450 -175 450 -127 q 591 -302 450 -302 q 675 -290 631 -302 l 675 -216 q 610 -225 638 -225 q 546 -161 546 -225 "},"ę":{"ha":779,"x_min":78,"x_max":707,"o":"m 433 -14 q 562 -2 509 -14 q 675 35 615 9 l 675 135 q 437 85 557 85 q 261 153 323 85 q 195 351 198 220 l 707 351 l 707 422 q 625 665 707 573 q 404 757 544 757 q 166 651 255 757 q 78 366 78 545 q 173 87 78 187 q 433 -14 269 -14 m 403 663 q 538 606 491 663 q 586 443 586 549 l 197 443 q 260 604 207 546 q 403 663 313 663 m 537 -140 q 561 -61 537 -98 q 630 21 584 -24 l 549 21 q 471 -61 500 -15 q 441 -154 441 -106 q 582 -281 441 -281 q 667 -269 623 -281 l 667 -195 q 601 -204 629 -204 q 537 -140 537 -204 "},"Ě":{"ha":772,"x_min":136,"x_max":689,"o":"m 689 0 l 689 103 l 252 103 l 252 468 l 663 468 l 663 570 l 252 570 l 252 889 l 689 889 l 689 991 l 136 991 l 136 0 l 689 0 m 193 1293 l 193 1276 q 313 1141 279 1184 q 363 1071 348 1099 l 476 1071 q 605 1230 507 1130 l 650 1276 l 650 1293 l 569 1293 q 419 1165 507 1253 q 271 1293 348 1243 l 193 1293 "},"ě":{"ha":779,"x_min":78,"x_max":707,"o":"m 433 -14 q 562 -2 509 -14 q 675 35 615 9 l 675 135 q 437 85 557 85 q 261 153 323 85 q 195 351 198 220 l 707 351 l 707 422 q 625 665 707 573 q 404 757 544 757 q 166 651 255 757 q 78 366 78 545 q 173 87 78 187 q 433 -14 269 -14 m 403 663 q 538 606 491 663 q 586 443 586 549 l 197 443 q 260 604 207 546 q 403 663 313 663 m 178 1064 l 178 1047 q 299 912 264 955 q 349 842 334 869 l 462 842 q 591 1001 493 901 l 635 1047 l 635 1064 l 555 1064 q 405 936 493 1024 q 256 1064 334 1014 l 178 1064 "},"Ĝ":{"ha":1011,"x_min":85,"x_max":909,"o":"m 572 519 l 572 416 l 794 416 l 794 111 q 593 87 696 87 q 305 191 403 87 q 207 496 207 295 q 309 795 207 687 q 591 903 410 903 q 850 846 715 903 l 895 947 q 599 1006 758 1006 q 326 944 442 1006 q 147 767 209 883 q 85 496 85 650 q 210 120 85 254 q 561 -14 336 -14 q 749 -1 668 -14 q 909 37 831 12 l 909 519 l 572 519 m 340 1086 l 340 1071 l 418 1071 q 566 1197 474 1106 q 716 1071 656 1108 l 797 1071 l 797 1086 q 675 1220 712 1175 q 623 1293 638 1265 l 511 1293 q 460 1222 495 1265 q 340 1086 426 1179 "},"ĝ":{"ha":761,"x_min":26,"x_max":728,"o":"m 728 743 l 471 743 q 366 757 424 757 q 158 691 231 757 q 85 503 85 625 q 121 372 85 429 q 215 292 157 315 q 146 233 168 263 q 125 161 125 202 q 144 98 125 125 q 192 58 163 71 q 70 -9 113 41 q 26 -126 26 -58 q 105 -279 26 -225 q 330 -334 184 -334 q 619 -269 520 -334 q 718 -81 718 -204 q 653 67 718 16 q 468 118 589 118 l 336 118 q 250 133 275 118 q 225 178 225 147 q 297 273 225 235 q 359 268 326 268 q 564 333 490 268 q 639 507 639 398 q 624 594 639 555 q 590 656 609 632 l 728 672 l 728 743 m 135 -125 q 178 -20 135 -56 q 297 17 220 17 l 432 17 q 572 -6 535 17 q 610 -90 610 -30 q 542 -205 610 -163 q 332 -248 473 -248 q 186 -216 237 -248 q 135 -125 135 -185 m 196 505 q 239 632 196 589 q 361 675 281 675 q 528 507 528 675 q 363 347 528 347 q 240 387 284 347 q 196 505 196 427 m 145 857 l 145 842 l 223 842 q 372 968 279 877 q 522 842 462 879 l 602 842 l 602 857 q 480 990 517 945 q 429 1064 444 1036 l 316 1064 q 266 993 300 1036 q 145 857 231 949 "},"Ğ":{"ha":1011,"x_min":85,"x_max":909,"o":"m 572 519 l 572 416 l 794 416 l 794 111 q 593 87 696 87 q 305 191 403 87 q 207 496 207 295 q 309 795 207 687 q 591 903 410 903 q 850 846 715 903 l 895 947 q 599 1006 758 1006 q 326 944 442 1006 q 147 767 209 883 q 85 496 85 650 q 210 120 85 254 q 561 -14 336 -14 q 749 -1 668 -14 q 909 37 831 12 l 909 519 l 572 519 m 579 1071 q 729 1119 673 1071 q 793 1253 786 1167 l 722 1253 q 683 1185 715 1207 q 582 1164 650 1164 q 499 1173 524 1164 q 461 1200 475 1181 q 443 1253 447 1219 l 372 1253 q 431 1117 378 1164 q 579 1071 484 1071 "},"ğ":{"ha":761,"x_min":26,"x_max":728,"o":"m 728 743 l 471 743 q 366 757 424 757 q 158 691 231 757 q 85 503 85 625 q 121 372 85 429 q 215 292 157 315 q 146 233 168 263 q 125 161 125 202 q 144 98 125 125 q 192 58 163 71 q 70 -9 113 41 q 26 -126 26 -58 q 105 -279 26 -225 q 330 -334 184 -334 q 619 -269 520 -334 q 718 -81 718 -204 q 653 67 718 16 q 468 118 589 118 l 336 118 q 250 133 275 118 q 225 178 225 147 q 297 273 225 235 q 359 268 326 268 q 564 333 490 268 q 639 507 639 398 q 624 594 639 555 q 590 656 609 632 l 728 672 l 728 743 m 135 -125 q 178 -20 135 -56 q 297 17 220 17 l 432 17 q 572 -6 535 17 q 610 -90 610 -30 q 542 -205 610 -163 q 332 -248 473 -248 q 186 -216 237 -248 q 135 -125 135 -185 m 196 505 q 239 632 196 589 q 361 675 281 675 q 528 507 528 675 q 363 347 528 347 q 240 387 284 347 q 196 505 196 427 m 372 842 q 522 890 465 842 q 585 1023 578 938 l 515 1023 q 475 956 508 978 q 374 935 443 935 q 292 943 317 935 q 253 971 267 952 q 235 1023 239 990 l 165 1023 q 224 888 171 935 q 372 842 277 842 "},"Ġ":{"ha":1011,"x_min":85,"x_max":909,"o":"m 572 519 l 572 416 l 794 416 l 794 111 q 593 87 696 87 q 305 191 403 87 q 207 496 207 295 q 309 795 207 687 q 591 903 410 903 q 850 846 715 903 l 895 947 q 599 1006 758 1006 q 326 944 442 1006 q 147 767 209 883 q 85 496 85 650 q 210 120 85 254 q 561 -14 336 -14 q 749 -1 668 -14 q 909 37 831 12 l 909 519 l 572 519 m 525 1174 q 544 1117 525 1136 q 591 1099 563 1099 q 638 1117 618 1099 q 658 1174 658 1136 q 638 1230 658 1212 q 591 1249 618 1249 q 544 1231 563 1249 q 525 1174 525 1213 "},"ġ":{"ha":761,"x_min":26,"x_max":728,"o":"m 728 743 l 471 743 q 366 757 424 757 q 158 691 231 757 q 85 503 85 625 q 121 372 85 429 q 215 292 157 315 q 146 233 168 263 q 125 161 125 202 q 144 98 125 125 q 192 58 163 71 q 70 -9 113 41 q 26 -126 26 -58 q 105 -279 26 -225 q 330 -334 184 -334 q 619 -269 520 -334 q 718 -81 718 -204 q 653 67 718 16 q 468 118 589 118 l 336 118 q 250 133 275 118 q 225 178 225 147 q 297 273 225 235 q 359 268 326 268 q 564 333 490 268 q 639 507 639 398 q 624 594 639 555 q 590 656 609 632 l 728 672 l 728 743 m 135 -125 q 178 -20 135 -56 q 297 17 220 17 l 432 17 q 572 -6 535 17 q 610 -90 610 -30 q 542 -205 610 -163 q 332 -248 473 -248 q 186 -216 237 -248 q 135 -125 135 -185 m 196 505 q 239 632 196 589 q 361 675 281 675 q 528 507 528 675 q 363 347 528 347 q 240 387 284 347 q 196 505 196 427 m 304 945 q 323 888 304 907 q 371 869 342 869 q 418 888 398 869 q 437 945 437 907 q 418 1001 437 983 q 371 1019 398 1019 q 323 1001 342 1019 q 304 945 304 983 "},"Ģ":{"ha":1011,"x_min":85,"x_max":909,"o":"m 572 519 l 572 416 l 794 416 l 794 111 q 593 87 696 87 q 305 191 403 87 q 207 496 207 295 q 309 795 207 687 q 591 903 410 903 q 850 846 715 903 l 895 947 q 599 1006 758 1006 q 326 944 442 1006 q 147 767 209 883 q 85 496 85 650 q 210 120 85 254 q 561 -14 336 -14 q 749 -1 668 -14 q 909 37 831 12 l 909 519 l 572 519 m 450 -290 l 450 -307 l 511 -307 q 582 -197 549 -262 q 623 -97 615 -132 l 623 -85 l 509 -85 q 487 -184 504 -121 q 450 -290 469 -247 "},"ģ":{"ha":761,"x_min":26,"x_max":728,"o":"m 728 743 l 471 743 q 366 757 424 757 q 158 691 231 757 q 85 503 85 625 q 121 372 85 429 q 215 292 157 315 q 146 233 168 263 q 125 161 125 202 q 144 98 125 125 q 192 58 163 71 q 70 -9 113 41 q 26 -126 26 -58 q 105 -279 26 -225 q 330 -334 184 -334 q 619 -269 520 -334 q 718 -81 718 -204 q 653 67 718 16 q 468 118 589 118 l 336 118 q 250 133 275 118 q 225 178 225 147 q 297 273 225 235 q 359 268 326 268 q 564 333 490 268 q 639 507 639 398 q 624 594 639 555 q 590 656 609 632 l 728 672 l 728 743 m 135 -125 q 178 -20 135 -56 q 297 17 220 17 l 432 17 q 572 -6 535 17 q 610 -90 610 -30 q 542 -205 610 -163 q 332 -248 473 -248 q 186 -216 237 -248 q 135 -125 135 -185 m 196 505 q 239 632 196 589 q 361 675 281 675 q 528 507 528 675 q 363 347 528 347 q 240 387 284 347 q 196 505 196 427 m 479 1047 l 479 1064 l 417 1064 q 350 961 384 1025 q 307 854 317 896 l 307 842 l 420 842 q 442 940 424 875 q 479 1047 460 1006 "},"Ĥ":{"ha":1025,"x_min":136,"x_max":889,"o":"m 889 0 l 889 991 l 774 991 l 774 570 l 252 570 l 252 991 l 136 991 l 136 0 l 252 0 l 252 467 l 774 467 l 774 0 l 889 0 m 283 1086 l 283 1071 l 361 1071 q 510 1197 418 1106 q 660 1071 600 1108 l 741 1071 l 741 1086 q 619 1220 656 1175 q 567 1293 582 1265 l 454 1293 q 404 1222 439 1265 q 283 1086 370 1179 "},"ĥ":{"ha":852,"x_min":119,"x_max":741,"o":"m 628 0 l 741 0 l 741 485 q 672 691 741 626 q 468 755 604 755 q 328 725 389 755 q 233 640 267 694 l 227 640 q 232 736 232 678 l 232 1055 l 119 1055 l 119 0 l 232 0 l 232 389 q 286 597 232 534 q 457 661 340 661 q 587 616 545 661 q 628 481 628 572 l 628 0 m 203 1124 l 203 1108 l 281 1108 q 429 1234 337 1143 q 579 1108 519 1145 l 660 1108 l 660 1124 q 538 1257 575 1212 q 486 1331 501 1302 l 374 1331 q 323 1259 358 1303 q 203 1124 289 1216 "},"Ħ":{"ha":1025,"x_min":0,"x_max":1025,"o":"m 136 823 l 0 823 l 0 728 l 136 728 l 136 0 l 252 0 l 252 467 l 774 467 l 774 0 l 889 0 l 889 728 l 1025 728 l 1025 823 l 889 823 l 889 991 l 774 991 l 774 823 l 252 823 l 252 991 l 136 991 l 136 823 m 774 570 l 252 570 l 252 728 l 774 728 l 774 570 "},"ħ":{"ha":852,"x_min":14,"x_max":741,"o":"m 628 0 l 741 0 l 741 458 q 672 666 741 601 q 468 730 604 730 q 328 700 389 730 q 233 615 267 669 l 227 615 q 232 710 232 653 l 232 843 l 536 843 l 536 929 l 232 929 l 232 1055 l 119 1055 l 119 929 l 14 929 l 14 843 l 119 843 l 119 0 l 232 0 l 232 364 q 286 572 232 509 q 457 635 339 635 q 587 590 545 635 q 628 454 628 545 l 628 0 "},"ĩ":{"ha":351,"x_min":-76,"x_max":429,"o":"m 232 0 l 232 743 l 119 743 l 119 0 l 232 0 m 279 843 q 381 889 343 843 q 429 1018 420 936 l 361 1018 q 335 956 351 976 q 286 936 319 936 q 239 948 264 936 q 189 976 215 961 q 133 1004 162 991 q 73 1017 104 1017 q -28 970 11 1017 q -76 842 -67 924 l -9 842 q 17 903 0 883 q 68 924 35 924 q 116 911 92 924 q 168 883 141 899 q 222 856 195 868 q 279 843 250 843 "},"ī":{"ha":351,"x_min":-26,"x_max":381,"o":"m 232 0 l 232 743 l 119 743 l 119 0 l 232 0 m -26 935 l -26 842 l 381 842 l 381 935 l -26 935 "},"ĭ":{"ha":351,"x_min":-35,"x_max":385,"o":"m 232 0 l 232 743 l 119 743 l 119 0 l 232 0 m 172 842 q 322 890 265 842 q 385 1023 378 938 l 315 1023 q 275 956 308 978 q 174 935 243 935 q 92 943 117 935 q 53 971 67 952 q 35 1023 39 990 l -35 1023 q 24 888 -29 935 q 172 842 77 842 "},"į":{"ha":351,"x_min":36,"x_max":261,"o":"m 232 0 l 232 743 l 119 743 l 119 0 l 232 0 m 110 945 q 129 888 110 907 q 176 869 148 869 q 223 888 203 869 q 243 945 243 907 q 223 1001 243 983 q 176 1019 203 1019 q 129 1001 148 1019 q 110 945 110 983 m 132 -161 q 155 -82 132 -119 q 224 0 178 -45 l 143 0 q 65 -82 94 -36 q 36 -175 36 -127 q 176 -302 36 -302 q 261 -290 217 -302 l 261 -216 q 195 -225 224 -225 q 132 -161 132 -225 "},"ı":{"ha":351,"x_min":119,"x_max":232,"o":"m 232 0 l 232 743 l 119 743 l 119 0 l 232 0 "},"ĳ":{"ha":703,"x_min":110,"x_max":594,"o":"m 232 0 l 232 743 l 119 743 l 119 0 l 232 0 m 110 945 q 129 888 110 907 q 176 869 148 869 q 223 888 203 869 q 243 945 243 907 q 223 1001 243 983 q 176 1019 203 1019 q 129 1001 148 1019 q 110 945 110 983 m 380 -334 q 583 -114 583 -334 l 583 743 l 471 743 l 471 -122 q 446 -210 471 -181 q 368 -239 421 -239 q 276 -225 323 -239 l 276 -317 q 380 -334 316 -334 m 461 945 q 480 888 461 907 q 528 869 499 869 q 574 888 555 869 q 594 945 594 907 q 574 1001 594 983 q 528 1019 555 1019 q 480 1001 499 1019 q 461 945 461 983 "},"Ĵ":{"ha":371,"x_min":-109,"x_max":416,"o":"m -8 -261 q 179 -190 114 -261 q 244 9 244 -119 l 244 991 l 129 991 l 129 0 q 94 -117 129 -77 q -8 -158 59 -158 q -109 -144 -60 -158 l -109 -243 q -8 -261 -72 -261 m -41 1086 l -41 1071 l 37 1071 q 185 1197 93 1106 q 335 1071 275 1108 l 416 1071 l 416 1086 q 294 1220 331 1175 q 242 1293 257 1265 l 130 1293 q 79 1222 114 1265 q -41 1086 45 1179 "},"ĵ":{"ha":351,"x_min":-75,"x_max":401,"o":"m 29 -334 q 232 -114 232 -334 l 232 743 l 119 743 l 119 -122 q 95 -210 119 -181 q 17 -239 70 -239 q -75 -225 -28 -239 l -75 -317 q 29 -334 -35 -334 m -56 857 l -56 842 l 22 842 q 170 968 78 877 q 320 842 260 879 l 401 842 l 401 857 q 279 990 316 945 q 227 1064 242 1036 l 115 1064 q 64 993 99 1036 q -56 857 30 949 "},"Ķ":{"ha":852,"x_min":136,"x_max":852,"o":"m 852 0 l 439 561 l 838 991 l 701 991 l 252 500 l 252 991 l 136 991 l 136 0 l 252 0 l 252 389 l 355 481 l 717 0 l 852 0 m 343 -290 l 343 -307 l 404 -307 q 475 -197 441 -262 q 515 -97 508 -132 l 515 -85 l 401 -85 q 379 -184 397 -121 q 343 -290 362 -247 "},"ķ":{"ha":729,"x_min":119,"x_max":714,"o":"m 231 380 l 225 380 q 231 496 231 458 l 231 1055 l 119 1055 l 119 0 l 231 0 l 231 278 l 315 351 l 578 0 l 714 0 l 392 427 l 693 743 l 559 743 l 319 489 q 231 380 260 422 m 279 -290 l 279 -307 l 340 -307 q 411 -197 378 -262 q 452 -97 444 -132 l 452 -85 l 338 -85 q 316 -184 333 -121 q 279 -290 298 -247 "},"ĸ":{"ha":720,"x_min":119,"x_max":713,"o":"m 553 742 l 232 361 q 240 550 240 437 l 240 742 l 119 742 l 119 0 l 240 0 l 240 265 l 332 342 l 576 0 l 713 0 l 412 415 l 693 742 l 553 742 "},"Ĺ":{"ha":721,"x_min":136,"x_max":689,"o":"m 136 0 l 689 0 l 689 104 l 252 104 l 252 991 l 136 991 l 136 0 m 160 1088 l 160 1071 l 235 1071 q 338 1171 279 1106 q 427 1279 397 1235 l 427 1293 l 290 1293 q 230 1190 268 1249 q 160 1088 193 1130 "},"ĺ":{"ha":351,"x_min":111,"x_max":377,"o":"m 232 0 l 232 1055 l 119 1055 l 119 0 l 232 0 m 111 1126 l 111 1109 l 186 1109 q 288 1209 229 1145 q 377 1318 347 1274 l 377 1332 l 240 1332 q 181 1228 218 1288 q 111 1126 143 1168 "},"Ļ":{"ha":721,"x_min":136,"x_max":689,"o":"m 136 0 l 689 0 l 689 104 l 252 104 l 252 991 l 136 991 l 136 0 m 283 -290 l 283 -307 l 345 -307 q 415 -197 382 -262 q 456 -97 448 -132 l 456 -85 l 342 -85 q 320 -184 337 -121 q 283 -290 302 -247 "},"ļ":{"ha":351,"x_min":60,"x_max":233,"o":"m 232 0 l 232 1055 l 119 1055 l 119 0 l 232 0 m 60 -290 l 60 -307 l 121 -307 q 192 -197 159 -262 q 233 -97 225 -132 l 233 -85 l 119 -85 q 97 -184 114 -121 q 60 -290 79 -247 "},"Ľ":{"ha":721,"x_min":136,"x_max":689,"o":"m 136 0 l 689 0 l 689 104 l 252 104 l 252 991 l 136 991 l 136 0 m 460 787 l 460 770 l 521 770 q 583 882 553 818 q 620 980 612 945 l 620 992 l 506 992 q 486 881 499 937 q 460 787 473 824 "},"ľ":{"ha":351,"x_min":119,"x_max":456,"o":"m 232 0 l 232 1055 l 119 1055 l 119 0 l 232 0 m 296 850 l 296 833 l 357 833 q 418 945 389 881 q 456 1043 448 1008 l 456 1055 l 342 1055 q 322 944 335 1000 q 296 850 309 887 "},"Ŀ":{"ha":721,"x_min":136,"x_max":689,"o":"m 136 0 l 689 0 l 689 104 l 252 104 l 252 991 l 136 991 l 136 0 m 460 494 q 479 437 460 456 q 526 418 498 418 q 573 437 553 418 q 593 494 593 456 q 573 550 593 532 q 526 568 553 568 q 479 550 498 568 q 460 494 460 532 "},"ŀ":{"ha":436,"x_min":119,"x_max":461,"o":"m 232 0 l 232 1055 l 119 1055 l 119 0 l 232 0 m 328 462 q 347 405 328 424 q 395 387 366 387 q 441 405 422 387 q 461 462 461 424 q 441 518 461 500 q 395 536 422 536 q 347 518 366 536 q 328 462 328 500 "},"Ł":{"ha":726,"x_min":20,"x_max":689,"o":"m 136 0 l 689 0 l 689 104 l 252 104 l 252 411 l 498 554 l 453 636 l 252 518 l 252 991 l 136 991 l 136 450 l 20 382 l 65 304 l 136 345 l 136 0 "},"ł":{"ha":363,"x_min":-3,"x_max":374,"o":"m 232 586 l 232 1055 l 119 1055 l 119 513 l -3 432 l 45 355 l 119 404 l 119 0 l 232 0 l 232 478 l 374 574 l 325 650 l 232 586 "},"Ń":{"ha":1047,"x_min":136,"x_max":911,"o":"m 911 0 l 911 991 l 803 991 l 803 422 q 806 280 802 380 q 812 163 811 181 l 807 163 l 267 991 l 136 991 l 136 0 l 243 0 l 243 564 q 232 832 243 686 l 237 832 l 779 0 l 911 0 m 441 1088 l 441 1071 l 517 1071 q 619 1171 560 1106 q 708 1279 678 1235 l 708 1293 l 571 1293 q 512 1190 549 1249 q 441 1088 474 1130 "},"ń":{"ha":852,"x_min":119,"x_max":741,"o":"m 628 0 l 741 0 l 741 485 q 673 692 741 627 q 471 757 605 757 q 332 727 394 757 q 235 642 269 696 l 229 642 l 211 743 l 119 743 l 119 0 l 232 0 l 232 390 q 286 598 232 535 q 457 661 340 661 q 587 616 545 661 q 628 481 628 572 l 628 0 m 349 859 l 349 842 l 424 842 q 526 941 467 877 q 615 1050 585 1006 l 615 1064 l 478 1064 q 419 960 456 1020 q 349 859 381 901 "},"Ņ":{"ha":1047,"x_min":136,"x_max":911,"o":"m 911 0 l 911 991 l 803 991 l 803 422 q 806 280 802 380 q 812 163 811 181 l 807 163 l 267 991 l 136 991 l 136 0 l 243 0 l 243 564 q 232 832 243 686 l 237 832 l 779 0 l 911 0 m 389 -290 l 389 -307 l 450 -307 q 521 -197 488 -262 q 562 -97 554 -132 l 562 -85 l 448 -85 q 426 -184 443 -121 q 389 -290 408 -247 "},"ņ":{"ha":852,"x_min":119,"x_max":741,"o":"m 628 0 l 741 0 l 741 485 q 673 692 741 627 q 471 757 605 757 q 332 727 394 757 q 235 642 269 696 l 229 642 l 211 743 l 119 743 l 119 0 l 232 0 l 232 390 q 286 598 232 535 q 457 661 340 661 q 587 616 545 661 q 628 481 628 572 l 628 0 m 309 -290 l 309 -307 l 370 -307 q 440 -197 407 -262 q 481 -97 473 -132 l 481 -85 l 367 -85 q 345 -184 362 -121 q 309 -290 328 -247 "},"Ň":{"ha":1047,"x_min":136,"x_max":911,"o":"m 911 0 l 911 991 l 803 991 l 803 422 q 806 280 802 380 q 812 163 811 181 l 807 163 l 267 991 l 136 991 l 136 0 l 243 0 l 243 564 q 232 832 243 686 l 237 832 l 779 0 l 911 0 m 294 1293 l 294 1276 q 415 1141 380 1184 q 465 1071 450 1099 l 578 1071 q 707 1230 609 1130 l 751 1276 l 751 1293 l 671 1293 q 521 1165 609 1253 q 372 1293 450 1243 l 294 1293 "},"ň":{"ha":852,"x_min":119,"x_max":741,"o":"m 628 0 l 741 0 l 741 485 q 673 692 741 627 q 471 757 605 757 q 332 727 394 757 q 235 642 269 696 l 229 642 l 211 743 l 119 743 l 119 0 l 232 0 l 232 390 q 286 598 232 535 q 457 661 340 661 q 587 616 545 661 q 628 481 628 572 l 628 0 m 203 1064 l 203 1047 q 323 912 289 955 q 374 842 358 869 l 486 842 q 615 1001 517 901 l 660 1047 l 660 1064 l 579 1064 q 429 936 517 1024 q 281 1064 358 1014 l 203 1064 "},"ŉ":{"ha":946,"x_min":1,"x_max":832,"o":"m 720 0 l 832 0 l 832 485 q 764 692 832 627 q 562 757 696 757 q 423 727 486 757 q 326 642 361 696 l 321 642 l 302 743 l 211 743 l 211 0 l 323 0 l 323 390 q 378 598 323 535 q 549 661 432 661 q 678 616 637 661 q 720 481 720 572 l 720 0 m 193 991 l 70 991 q 1 652 48 845 l 83 652 q 153 819 119 729 q 203 977 186 909 l 193 991 "},"Ŋ":{"ha":1047,"x_min":136,"x_max":911,"o":"m 657 -261 q 845 -192 780 -261 q 911 9 911 -123 l 911 991 l 803 991 l 803 429 q 812 176 803 277 l 807 176 l 267 991 l 136 991 l 136 0 l 243 0 l 243 546 q 232 832 243 653 l 237 832 l 802 0 q 766 -117 802 -75 q 659 -158 730 -158 q 554 -144 602 -158 l 554 -243 q 657 -261 591 -261 "},"ŋ":{"ha":852,"x_min":119,"x_max":741,"o":"m 546 -334 q 693 -276 646 -334 q 741 -114 741 -218 l 741 485 q 673 692 741 627 q 468 757 606 757 q 332 727 393 757 q 236 642 271 697 l 229 642 l 211 743 l 119 743 l 119 0 l 232 0 l 232 390 q 286 598 232 535 q 457 661 340 661 q 587 616 545 661 q 628 481 628 572 l 628 -122 q 533 -239 628 -239 q 450 -225 491 -239 l 450 -317 q 546 -334 488 -334 "},"Ō":{"ha":1082,"x_min":85,"x_max":997,"o":"m 997 497 q 877 871 997 736 q 543 1007 757 1007 q 204 874 323 1007 q 85 498 85 741 q 204 120 85 254 q 542 -14 323 -14 q 877 123 756 -14 q 997 497 997 259 m 207 497 q 293 800 207 696 q 543 904 378 904 q 791 801 707 904 q 875 497 875 697 q 791 191 875 295 q 542 87 707 87 q 293 192 378 87 q 207 497 207 296 m 339 1164 l 339 1071 l 746 1071 l 746 1164 l 339 1164 "},"ō":{"ha":839,"x_min":78,"x_max":761,"o":"m 761 372 q 669 653 761 549 q 421 757 577 757 q 169 655 260 757 q 78 372 78 554 q 120 168 78 255 q 239 33 162 80 q 416 -14 317 -14 q 669 89 578 -14 q 761 372 761 191 m 195 372 q 251 589 195 516 q 418 661 307 661 q 587 588 530 661 q 644 372 644 514 q 587 155 644 229 q 419 81 530 81 q 252 155 309 81 q 195 372 195 230 m 216 935 l 216 842 l 623 842 l 623 935 l 216 935 "},"Ŏ":{"ha":1082,"x_min":85,"x_max":997,"o":"m 997 497 q 877 871 997 736 q 543 1007 757 1007 q 204 874 323 1007 q 85 498 85 741 q 204 120 85 254 q 542 -14 323 -14 q 877 123 756 -14 q 997 497 997 259 m 207 497 q 293 800 207 696 q 543 904 378 904 q 791 801 707 904 q 875 497 875 697 q 791 191 875 295 q 542 87 707 87 q 293 192 378 87 q 207 497 207 296 m 536 1071 q 687 1119 630 1071 q 750 1253 743 1167 l 680 1253 q 640 1185 673 1207 q 539 1164 608 1164 q 457 1173 481 1164 q 418 1200 432 1181 q 400 1253 404 1219 l 330 1253 q 389 1117 336 1164 q 536 1071 441 1071 "},"ŏ":{"ha":839,"x_min":78,"x_max":761,"o":"m 761 372 q 669 653 761 549 q 421 757 577 757 q 169 655 260 757 q 78 372 78 554 q 120 168 78 255 q 239 33 162 80 q 416 -14 317 -14 q 669 89 578 -14 q 761 372 761 191 m 195 372 q 251 589 195 516 q 418 661 307 661 q 587 588 530 661 q 644 372 644 514 q 587 155 644 229 q 419 81 530 81 q 252 155 309 81 q 195 372 195 230 m 415 842 q 565 890 509 842 q 629 1023 622 938 l 558 1023 q 519 956 551 978 q 418 935 486 935 q 335 943 360 935 q 297 971 311 952 q 279 1023 283 990 l 208 1023 q 267 888 214 935 q 415 842 320 842 "},"Ő":{"ha":1082,"x_min":85,"x_max":997,"o":"m 997 497 q 877 871 997 736 q 543 1007 757 1007 q 204 874 323 1007 q 85 498 85 741 q 204 120 85 254 q 542 -14 323 -14 q 877 123 756 -14 q 997 497 997 259 m 207 497 q 293 800 207 696 q 543 904 378 904 q 791 801 707 904 q 875 497 875 697 q 791 191 875 295 q 542 87 707 87 q 293 192 378 87 q 207 497 207 296 m 344 1088 l 344 1071 l 410 1071 q 507 1170 449 1103 q 590 1279 565 1236 l 590 1293 l 464 1293 q 406 1183 443 1246 q 344 1088 368 1120 m 586 1088 l 586 1071 l 651 1071 q 748 1170 690 1103 q 831 1279 806 1236 l 831 1293 l 705 1293 q 653 1194 688 1254 q 586 1088 619 1134 "},"ő":{"ha":839,"x_min":78,"x_max":761,"o":"m 761 372 q 669 653 761 549 q 421 757 577 757 q 169 655 260 757 q 78 372 78 554 q 120 168 78 255 q 239 33 162 80 q 416 -14 317 -14 q 669 89 578 -14 q 761 372 761 191 m 195 372 q 251 589 195 516 q 418 661 307 661 q 587 588 530 661 q 644 372 644 514 q 587 155 644 229 q 419 81 530 81 q 252 155 309 81 q 195 372 195 230 m 218 859 l 218 842 l 283 842 q 381 941 323 874 q 464 1050 439 1007 l 464 1064 l 338 1064 q 279 954 317 1017 q 218 859 242 891 m 460 859 l 460 842 l 525 842 q 622 941 564 874 q 705 1050 680 1007 l 705 1064 l 579 1064 q 527 965 562 1025 q 460 859 493 905 "},"Œ":{"ha":1282,"x_min":85,"x_max":1198,"o":"m 1198 0 l 1198 103 l 799 103 l 799 468 l 1173 468 l 1173 570 l 799 570 l 799 889 l 1198 889 l 1198 991 l 668 991 q 538 1007 607 1007 q 203 875 321 1007 q 85 498 85 743 q 204 120 85 253 q 546 -14 324 -14 q 677 0 608 -14 l 1198 0 m 550 904 q 684 884 625 904 l 684 110 q 549 87 625 87 q 294 192 381 87 q 207 497 207 296 q 294 801 207 697 q 550 904 381 904 "},"œ":{"ha":1308,"x_min":77,"x_max":1236,"o":"m 970 -14 q 1092 -3 1040 -14 q 1203 35 1143 8 l 1203 135 q 1089 97 1144 109 q 971 85 1035 85 q 742 351 747 85 l 1236 351 l 1236 422 q 1156 666 1236 576 q 939 755 1075 755 q 788 714 853 755 q 684 597 723 673 q 572 715 642 675 q 414 755 503 755 q 165 654 254 755 q 77 372 77 552 q 168 90 77 193 q 410 -14 258 -14 q 573 27 503 -14 q 686 146 644 67 q 970 -14 771 -14 m 195 372 q 245 588 195 515 q 408 661 296 661 q 573 589 520 661 q 625 367 625 517 q 573 153 625 225 q 411 81 522 81 q 246 155 298 81 q 195 372 195 229 m 937 661 q 1069 606 1024 661 q 1114 443 1114 550 l 745 443 q 802 606 753 550 q 937 661 851 661 "},"Ŕ":{"ha":859,"x_min":136,"x_max":835,"o":"m 252 412 l 458 412 l 699 0 l 835 0 l 566 446 q 765 711 765 515 q 678 922 765 852 q 408 991 591 991 l 136 991 l 136 0 l 252 0 l 252 412 m 252 511 l 252 890 l 401 890 q 588 847 530 890 q 646 705 646 804 q 589 560 646 608 q 410 511 532 511 l 252 511 m 349 1088 l 349 1071 l 424 1071 q 526 1171 467 1106 q 615 1279 585 1235 l 615 1293 l 478 1293 q 419 1190 456 1249 q 349 1088 381 1130 "},"ŕ":{"ha":567,"x_min":119,"x_max":547,"o":"m 458 757 q 330 718 389 757 q 231 606 272 678 l 225 606 l 212 743 l 119 743 l 119 0 l 232 0 l 232 399 q 296 581 232 508 q 450 654 360 654 q 532 644 486 654 l 547 749 q 458 757 508 757 m 242 859 l 242 842 l 317 842 q 420 941 361 877 q 509 1050 479 1006 l 509 1064 l 372 1064 q 312 960 350 1020 q 242 859 275 901 "},"Ŗ":{"ha":859,"x_min":136,"x_max":835,"o":"m 252 412 l 458 412 l 699 0 l 835 0 l 566 446 q 765 711 765 515 q 678 922 765 852 q 408 991 591 991 l 136 991 l 136 0 l 252 0 l 252 412 m 252 511 l 252 890 l 401 890 q 588 847 530 890 q 646 705 646 804 q 589 560 646 608 q 410 511 532 511 l 252 511 m 335 -290 l 335 -307 l 396 -307 q 467 -197 433 -262 q 507 -97 500 -132 l 507 -85 l 393 -85 q 371 -184 389 -121 q 335 -290 354 -247 "},"ŗ":{"ha":567,"x_min":65,"x_max":547,"o":"m 458 757 q 330 718 389 757 q 231 606 272 678 l 225 606 l 212 743 l 119 743 l 119 0 l 232 0 l 232 399 q 296 581 232 508 q 450 654 360 654 q 532 644 486 654 l 547 749 q 458 757 508 757 m 65 -290 l 65 -307 l 126 -307 q 197 -197 163 -262 q 237 -97 230 -132 l 237 -85 l 123 -85 q 101 -184 119 -121 q 65 -290 84 -247 "},"Ř":{"ha":859,"x_min":136,"x_max":835,"o":"m 252 412 l 458 412 l 699 0 l 835 0 l 566 446 q 765 711 765 515 q 678 922 765 852 q 408 991 591 991 l 136 991 l 136 0 l 252 0 l 252 412 m 252 511 l 252 890 l 401 890 q 588 847 530 890 q 646 705 646 804 q 589 560 646 608 q 410 511 532 511 l 252 511 m 200 1293 l 200 1276 q 321 1141 286 1184 q 371 1071 355 1099 l 484 1071 q 612 1230 515 1130 l 657 1276 l 657 1293 l 576 1293 q 427 1165 515 1253 q 278 1293 355 1243 l 200 1293 "},"ř":{"ha":567,"x_min":88,"x_max":547,"o":"m 458 757 q 330 718 389 757 q 231 606 272 678 l 225 606 l 212 743 l 119 743 l 119 0 l 232 0 l 232 399 q 296 581 232 508 q 450 654 360 654 q 532 644 486 654 l 547 749 q 458 757 508 757 m 88 1064 l 88 1047 q 209 912 174 955 q 259 842 243 869 l 372 842 q 500 1001 403 901 l 545 1047 l 545 1064 l 465 1064 q 315 936 403 1024 q 166 1064 243 1014 l 88 1064 "},"Ś":{"ha":762,"x_min":72,"x_max":696,"o":"m 696 264 q 637 429 696 366 q 422 549 578 493 q 284 609 330 582 q 220 670 239 637 q 201 754 201 703 q 253 863 201 824 q 396 903 304 903 q 635 851 512 903 l 671 951 q 399 1006 547 1006 q 171 938 257 1006 q 85 755 85 870 q 144 578 85 646 q 342 461 203 511 q 489 398 441 426 q 558 337 538 370 q 579 253 579 304 q 521 131 579 175 q 347 87 463 87 q 205 102 277 87 q 72 143 133 117 l 72 32 q 343 -14 167 -14 q 601 60 506 -14 q 696 264 696 133 m 321 1088 l 321 1071 l 396 1071 q 498 1171 439 1106 q 587 1279 557 1235 l 587 1293 l 450 1293 q 391 1190 429 1249 q 321 1088 353 1130 "},"ś":{"ha":663,"x_min":72,"x_max":599,"o":"m 599 203 q 552 326 599 277 q 374 422 506 374 q 243 477 277 458 q 194 517 210 496 q 179 568 179 538 q 220 637 179 612 q 340 663 260 663 q 543 616 431 663 l 583 708 q 349 757 469 757 q 146 704 220 757 q 72 561 72 652 q 93 473 72 510 q 158 408 115 437 q 306 340 202 379 q 453 268 415 298 q 490 193 490 237 q 443 107 490 136 q 307 79 395 79 q 189 95 250 79 q 74 138 127 111 l 74 33 q 304 -14 157 -14 q 522 43 444 -14 q 599 203 599 99 m 252 859 l 252 842 l 327 842 q 429 941 370 877 q 518 1050 488 1006 l 518 1064 l 381 1064 q 322 960 359 1020 q 252 859 284 901 "},"Ŝ":{"ha":762,"x_min":72,"x_max":696,"o":"m 696 264 q 637 429 696 366 q 422 549 578 493 q 284 609 330 582 q 220 670 239 637 q 201 754 201 703 q 253 863 201 824 q 396 903 304 903 q 635 851 512 903 l 671 951 q 399 1006 547 1006 q 171 938 257 1006 q 85 755 85 870 q 144 578 85 646 q 342 461 203 511 q 489 398 441 426 q 558 337 538 370 q 579 253 579 304 q 521 131 579 175 q 347 87 463 87 q 205 102 277 87 q 72 143 133 117 l 72 32 q 343 -14 167 -14 q 601 60 506 -14 q 696 264 696 133 m 167 1086 l 167 1071 l 245 1071 q 393 1197 301 1106 q 543 1071 484 1108 l 624 1071 l 624 1086 q 502 1220 539 1175 q 450 1293 465 1265 l 338 1293 q 288 1222 322 1265 q 167 1086 253 1179 "},"ŝ":{"ha":663,"x_min":72,"x_max":599,"o":"m 599 203 q 552 326 599 277 q 374 422 506 374 q 243 477 277 458 q 194 517 210 496 q 179 568 179 538 q 220 637 179 612 q 340 663 260 663 q 543 616 431 663 l 583 708 q 349 757 469 757 q 146 704 220 757 q 72 561 72 652 q 93 473 72 510 q 158 408 115 437 q 306 340 202 379 q 453 268 415 298 q 490 193 490 237 q 443 107 490 136 q 307 79 395 79 q 189 95 250 79 q 74 138 127 111 l 74 33 q 304 -14 157 -14 q 522 43 444 -14 q 599 203 599 99 m 111 857 l 111 842 l 189 842 q 337 968 245 877 q 487 842 427 879 l 568 842 l 568 857 q 446 990 483 945 q 394 1064 409 1036 l 281 1064 q 231 993 266 1036 q 111 857 197 949 "},"Ş":{"ha":762,"x_min":72,"x_max":696,"o":"m 696 264 q 637 429 696 366 q 422 549 578 493 q 284 609 330 582 q 220 670 239 637 q 201 754 201 703 q 253 863 201 824 q 396 903 304 903 q 635 851 512 903 l 671 951 q 399 1006 547 1006 q 171 938 257 1006 q 85 755 85 870 q 144 578 85 646 q 342 461 203 511 q 489 398 441 426 q 558 337 538 370 q 579 253 579 304 q 521 131 579 175 q 347 87 463 87 q 205 102 277 87 q 72 143 133 117 l 72 32 q 343 -14 167 -14 q 601 60 506 -14 q 696 264 696 133 m 496 -196 q 374 -78 496 -104 l 411 0 l 336 0 l 277 -121 q 377 -150 351 -132 q 404 -197 404 -168 q 377 -248 404 -234 q 296 -261 349 -261 q 225 -256 256 -261 l 225 -328 q 290 -334 256 -334 q 444 -298 392 -334 q 496 -196 496 -262 "},"ş":{"ha":663,"x_min":72,"x_max":599,"o":"m 599 203 q 552 326 599 277 q 374 422 506 374 q 243 477 277 458 q 194 517 210 496 q 179 568 179 538 q 220 637 179 612 q 340 663 260 663 q 543 616 431 663 l 583 708 q 349 757 469 757 q 146 704 220 757 q 72 561 72 652 q 93 473 72 510 q 158 408 115 437 q 306 340 202 379 q 453 268 415 298 q 490 193 490 237 q 443 107 490 136 q 307 79 395 79 q 189 95 250 79 q 74 138 127 111 l 74 33 q 304 -14 157 -14 q 522 43 444 -14 q 599 203 599 99 m 440 -196 q 318 -78 440 -104 l 355 0 l 281 0 l 221 -121 q 322 -150 295 -132 q 349 -197 349 -168 q 321 -248 349 -234 q 240 -261 294 -261 q 170 -256 200 -261 l 170 -328 q 235 -334 200 -334 q 388 -298 336 -334 q 440 -196 440 -262 "},"Š":{"ha":762,"x_min":72,"x_max":696,"o":"m 696 264 q 637 429 696 366 q 422 549 578 493 q 284 609 330 582 q 220 670 239 637 q 201 754 201 703 q 253 863 201 824 q 396 903 304 903 q 635 851 512 903 l 671 951 q 399 1006 547 1006 q 171 938 257 1006 q 85 755 85 870 q 144 578 85 646 q 342 461 203 511 q 489 398 441 426 q 558 337 538 370 q 579 253 579 304 q 521 131 579 175 q 347 87 463 87 q 205 102 277 87 q 72 143 133 117 l 72 32 q 343 -14 167 -14 q 601 60 506 -14 q 696 264 696 133 m 163 1293 l 163 1276 q 283 1141 249 1184 q 334 1071 318 1099 l 446 1071 q 575 1230 477 1130 l 620 1276 l 620 1293 l 539 1293 q 389 1165 477 1253 q 241 1293 318 1243 l 163 1293 "},"š":{"ha":663,"x_min":72,"x_max":599,"o":"m 599 203 q 552 326 599 277 q 374 422 506 374 q 243 477 277 458 q 194 517 210 496 q 179 568 179 538 q 220 637 179 612 q 340 663 260 663 q 543 616 431 663 l 583 708 q 349 757 469 757 q 146 704 220 757 q 72 561 72 652 q 93 473 72 510 q 158 408 115 437 q 306 340 202 379 q 453 268 415 298 q 490 193 490 237 q 443 107 490 136 q 307 79 395 79 q 189 95 250 79 q 74 138 127 111 l 74 33 q 304 -14 157 -14 q 522 43 444 -14 q 599 203 599 99 m 112 1064 l 112 1047 q 233 912 198 955 q 283 842 267 869 l 395 842 q 524 1001 427 901 l 569 1047 l 569 1064 l 488 1064 q 338 936 427 1024 q 190 1064 267 1014 l 112 1064 "},"Ț":{"ha":768,"x_min":12,"x_max":755,"o":"m 441 0 l 441 889 l 755 889 l 755 991 l 12 991 l 12 889 l 326 889 l 326 0 l 441 0 m 267 -290 l 267 -307 l 328 -307 q 399 -197 366 -262 q 439 -97 432 -132 l 439 -85 l 326 -85 q 303 -184 321 -121 q 267 -290 286 -247 "},"ț":{"ha":490,"x_min":21,"x_max":461,"o":"m 359 79 q 272 115 304 79 q 240 218 240 151 l 240 656 l 456 656 l 456 743 l 240 743 l 240 916 l 175 916 l 127 757 l 21 710 l 21 656 l 127 656 l 127 214 q 343 -14 127 -14 q 407 -8 372 -14 q 461 7 443 -2 l 461 93 q 417 84 445 88 q 359 79 389 79 m 165 -290 l 165 -307 l 226 -307 q 296 -197 263 -262 q 337 -97 330 -132 l 337 -85 l 223 -85 q 201 -184 218 -121 q 165 -290 184 -247 "},"Ť":{"ha":768,"x_min":12,"x_max":755,"o":"m 441 0 l 441 889 l 755 889 l 755 991 l 12 991 l 12 889 l 326 889 l 326 0 l 441 0 m 157 1293 l 157 1276 q 278 1141 243 1184 q 328 1071 313 1099 l 441 1071 q 570 1230 472 1130 l 614 1276 l 614 1293 l 534 1293 q 384 1165 472 1253 q 235 1293 313 1243 l 157 1293 "},"ť":{"ha":490,"x_min":21,"x_max":493,"o":"m 359 79 q 272 115 304 79 q 240 218 240 151 l 240 656 l 456 656 l 456 743 l 240 743 l 240 916 l 175 916 l 127 757 l 21 710 l 21 656 l 127 656 l 127 214 q 343 -14 127 -14 q 407 -8 372 -14 q 461 7 443 -2 l 461 93 q 417 84 445 88 q 359 79 389 79 m 333 850 l 333 833 l 394 833 q 456 945 426 881 q 493 1043 486 1008 l 493 1055 l 379 1055 q 359 944 372 1000 q 333 850 346 887 "},"Ŧ":{"ha":768,"x_min":12,"x_max":755,"o":"m 326 553 l 114 553 l 114 457 l 326 457 l 326 0 l 441 0 l 441 457 l 652 457 l 652 553 l 441 553 l 441 889 l 755 889 l 755 991 l 12 991 l 12 889 l 326 889 l 326 553 "},"ŧ":{"ha":490,"x_min":21,"x_max":461,"o":"m 363 79 q 240 229 240 79 l 240 395 l 444 395 l 444 482 l 240 482 l 240 656 l 456 656 l 456 743 l 240 743 l 240 916 l 175 916 l 127 757 l 21 710 l 21 656 l 127 656 l 127 482 l 32 482 l 32 395 l 127 395 l 127 222 q 339 -14 127 -14 q 404 -8 368 -14 q 461 7 439 -3 l 461 93 q 363 79 420 79 "},"Ũ":{"ha":1011,"x_min":126,"x_max":885,"o":"m 885 991 l 770 991 l 770 346 q 702 154 770 221 q 509 87 634 87 q 309 154 377 87 q 241 345 241 220 l 241 991 l 126 991 l 126 353 q 224 84 126 182 q 501 -14 322 -14 q 783 83 680 -14 q 885 350 885 180 l 885 991 m 610 1072 q 712 1119 673 1072 q 759 1247 750 1165 l 692 1247 q 665 1185 682 1205 q 616 1165 649 1165 q 570 1178 594 1165 q 519 1205 545 1190 q 463 1233 492 1221 q 403 1246 434 1246 q 302 1199 341 1246 q 254 1071 263 1153 l 321 1071 q 348 1133 330 1112 q 399 1153 365 1153 q 447 1140 422 1153 q 498 1113 471 1128 q 553 1085 525 1097 q 610 1072 581 1072 "},"ũ":{"ha":852,"x_min":111,"x_max":733,"o":"m 225 743 l 111 743 l 111 257 q 179 51 111 115 q 382 -14 246 -14 q 522 16 460 -14 q 618 100 583 45 l 624 100 l 640 0 l 733 0 l 733 743 l 621 743 l 621 353 q 567 144 621 208 q 396 81 513 81 q 267 125 308 81 q 225 261 225 170 l 225 743 m 528 843 q 630 889 592 843 q 677 1018 669 936 l 610 1018 q 584 956 600 976 q 534 936 568 936 q 488 948 513 936 q 437 976 464 961 q 382 1004 411 991 q 321 1017 353 1017 q 221 970 260 1017 q 173 842 182 924 l 239 842 q 266 903 249 883 q 317 924 283 924 q 365 911 340 924 q 417 883 390 899 q 471 856 444 868 q 528 843 499 843 "},"Ū":{"ha":1011,"x_min":126,"x_max":885,"o":"m 885 991 l 770 991 l 770 346 q 702 154 770 221 q 509 87 634 87 q 309 154 377 87 q 241 345 241 220 l 241 991 l 126 991 l 126 353 q 224 84 126 182 q 501 -14 322 -14 q 783 83 680 -14 q 885 350 885 180 l 885 991 m 302 1164 l 302 1071 l 709 1071 l 709 1164 l 302 1164 "},"ū":{"ha":852,"x_min":111,"x_max":733,"o":"m 225 743 l 111 743 l 111 257 q 179 51 111 115 q 382 -14 246 -14 q 522 16 460 -14 q 618 100 583 45 l 624 100 l 640 0 l 733 0 l 733 743 l 621 743 l 621 353 q 567 144 621 208 q 396 81 513 81 q 267 125 308 81 q 225 261 225 170 l 225 743 m 221 935 l 221 842 l 628 842 l 628 935 l 221 935 "},"Ŭ":{"ha":1011,"x_min":126,"x_max":885,"o":"m 885 991 l 770 991 l 770 346 q 702 154 770 221 q 509 87 634 87 q 309 154 377 87 q 241 345 241 220 l 241 991 l 126 991 l 126 353 q 224 84 126 182 q 501 -14 322 -14 q 783 83 680 -14 q 885 350 885 180 l 885 991 m 500 1071 q 650 1119 593 1071 q 713 1253 707 1167 l 643 1253 q 604 1185 636 1207 q 503 1164 571 1164 q 420 1173 445 1164 q 381 1200 395 1181 q 363 1253 368 1219 l 293 1253 q 352 1117 299 1164 q 500 1071 405 1071 "},"ŭ":{"ha":852,"x_min":111,"x_max":733,"o":"m 225 743 l 111 743 l 111 257 q 179 51 111 115 q 382 -14 246 -14 q 522 16 460 -14 q 618 100 583 45 l 624 100 l 640 0 l 733 0 l 733 743 l 621 743 l 621 353 q 567 144 621 208 q 396 81 513 81 q 267 125 308 81 q 225 261 225 170 l 225 743 m 418 842 q 568 890 511 842 q 631 1023 625 938 l 561 1023 q 522 956 554 978 q 420 935 489 935 q 338 943 363 935 q 299 971 313 952 q 281 1023 286 990 l 211 1023 q 270 888 217 935 q 418 842 323 842 "},"Ů":{"ha":1011,"x_min":126,"x_max":885,"o":"m 885 991 l 770 991 l 770 346 q 702 154 770 221 q 509 87 634 87 q 309 154 377 87 q 241 345 241 220 l 241 991 l 126 991 l 126 353 q 224 84 126 182 q 501 -14 322 -14 q 783 83 680 -14 q 885 350 885 180 l 885 991 m 657 1218 q 615 1321 657 1280 q 505 1361 573 1361 q 396 1322 437 1361 q 355 1217 355 1283 q 395 1111 355 1150 q 505 1071 436 1071 q 615 1111 574 1071 q 657 1218 657 1152 m 584 1217 q 562 1158 584 1179 q 505 1137 540 1137 q 446 1158 466 1137 q 425 1217 425 1179 q 448 1275 425 1255 q 505 1296 470 1296 q 562 1275 539 1296 q 584 1217 584 1255 "},"ů":{"ha":852,"x_min":111,"x_max":733,"o":"m 225 743 l 111 743 l 111 257 q 179 51 111 115 q 382 -14 246 -14 q 522 16 460 -14 q 618 100 583 45 l 624 100 l 640 0 l 733 0 l 733 743 l 621 743 l 621 353 q 567 144 621 208 q 396 81 513 81 q 267 125 308 81 q 225 261 225 170 l 225 743 m 575 989 q 533 1092 575 1051 q 422 1132 491 1132 q 314 1093 355 1132 q 273 987 273 1054 q 313 881 273 921 q 422 842 354 842 q 533 882 492 842 q 575 989 575 922 m 502 987 q 480 929 502 949 q 422 908 458 908 q 363 929 384 908 q 343 987 343 949 q 366 1046 343 1025 q 422 1067 388 1067 q 479 1046 457 1067 q 502 987 502 1025 "},"Ű":{"ha":1011,"x_min":126,"x_max":885,"o":"m 885 991 l 770 991 l 770 346 q 702 154 770 221 q 509 87 634 87 q 309 154 377 87 q 241 345 241 220 l 241 991 l 126 991 l 126 353 q 224 84 126 182 q 501 -14 322 -14 q 783 83 680 -14 q 885 350 885 180 l 885 991 m 309 1088 l 309 1071 l 375 1071 q 472 1170 414 1103 q 555 1279 530 1236 l 555 1293 l 429 1293 q 371 1183 408 1246 q 309 1088 334 1120 m 551 1088 l 551 1071 l 616 1071 q 714 1170 656 1103 q 797 1279 772 1236 l 797 1293 l 671 1293 q 619 1194 653 1254 q 551 1088 585 1134 "},"ű":{"ha":852,"x_min":111,"x_max":733,"o":"m 225 743 l 111 743 l 111 257 q 179 51 111 115 q 382 -14 246 -14 q 522 16 460 -14 q 618 100 583 45 l 624 100 l 640 0 l 733 0 l 733 743 l 621 743 l 621 353 q 567 144 621 208 q 396 81 513 81 q 267 125 308 81 q 225 261 225 170 l 225 743 m 227 859 l 227 842 l 293 842 q 390 941 332 874 q 473 1050 448 1007 l 473 1064 l 347 1064 q 289 954 326 1017 q 227 859 252 891 m 469 859 l 469 842 l 534 842 q 632 941 574 874 q 715 1050 690 1007 l 715 1064 l 589 1064 q 537 965 571 1025 q 469 859 503 905 "},"Ų":{"ha":1011,"x_min":126,"x_max":885,"o":"m 885 991 l 770 991 l 770 346 q 702 154 770 221 q 509 87 634 87 q 309 154 377 87 q 241 345 241 220 l 241 991 l 126 991 l 126 353 q 224 84 126 182 q 501 -14 322 -14 q 783 83 680 -14 q 885 350 885 180 l 885 991 m 490 -161 q 514 -82 490 -119 q 583 0 537 -45 l 502 0 q 424 -82 453 -36 q 395 -175 395 -127 q 535 -302 395 -302 q 620 -290 576 -302 l 620 -216 q 554 -225 583 -225 q 490 -161 490 -225 "},"ų":{"ha":852,"x_min":111,"x_max":763,"o":"m 225 743 l 111 743 l 111 257 q 179 51 111 115 q 382 -14 246 -14 q 522 16 460 -14 q 618 100 583 45 l 624 100 l 640 0 l 733 0 l 733 743 l 621 743 l 621 353 q 567 144 621 208 q 396 81 513 81 q 267 125 308 81 q 225 261 225 170 l 225 743 m 633 -161 q 657 -82 633 -119 q 726 0 680 -45 l 645 0 q 567 -82 596 -36 q 538 -175 538 -127 q 678 -302 538 -302 q 763 -290 719 -302 l 763 -216 q 697 -225 726 -225 q 633 -161 633 -225 "},"Ŵ":{"ha":1286,"x_min":18,"x_max":1267,"o":"m 1002 0 l 1267 991 l 1145 991 l 989 380 q 940 146 953 242 q 885 383 918 278 l 699 991 l 576 991 l 399 389 q 345 146 363 270 q 297 379 330 250 l 140 991 l 18 991 l 282 0 l 396 0 l 590 660 q 637 856 623 766 q 656 775 638 842 q 688 664 673 708 l 888 0 l 1002 0 m 412 1086 l 412 1071 l 490 1071 q 639 1197 547 1106 q 789 1071 729 1108 l 869 1071 l 869 1086 q 748 1220 785 1175 q 696 1293 711 1265 l 583 1293 q 533 1222 568 1265 q 412 1086 498 1179 "},"ŵ":{"ha":1080,"x_min":16,"x_max":1065,"o":"m 726 0 l 860 0 l 1065 743 l 949 743 q 807 196 819 247 q 793 121 795 145 l 787 121 q 736 317 774 200 l 603 743 l 481 743 l 345 317 q 316 219 332 281 q 292 119 299 158 l 286 119 q 243 317 281 170 q 134 743 205 463 l 16 743 l 218 0 l 349 0 l 489 435 q 536 618 509 499 l 542 618 q 590 436 577 476 l 726 0 m 313 857 l 313 842 l 391 842 q 539 968 447 877 q 689 842 629 879 l 770 842 l 770 857 q 648 990 685 945 q 596 1064 611 1036 l 484 1064 q 433 993 468 1036 q 313 857 399 949 "},"Ŷ":{"ha":778,"x_min":0,"x_max":778,"o":"m 389 496 l 126 991 l 0 991 l 330 379 l 330 0 l 447 0 l 447 385 l 778 991 l 653 991 l 389 496 m 160 1086 l 160 1071 l 238 1071 q 387 1197 294 1106 q 536 1071 477 1108 l 617 1071 l 617 1086 q 495 1220 532 1175 q 444 1293 458 1265 l 331 1293 q 281 1222 315 1265 q 160 1086 246 1179 "},"ŷ":{"ha":700,"x_min":1,"x_max":699,"o":"m 1 743 l 301 -4 l 260 -110 q 94 -240 210 -240 q 11 -232 48 -240 l 11 -322 q 113 -334 61 -334 q 268 -281 205 -334 q 379 -103 332 -229 l 699 743 l 578 743 q 394 228 422 312 q 357 110 366 144 l 351 110 q 285 319 338 174 l 122 743 l 1 743 m 125 857 l 125 842 l 203 842 q 352 968 260 877 q 502 842 442 879 l 583 842 l 583 857 q 461 990 498 945 q 409 1064 424 1036 l 296 1064 q 246 993 281 1036 q 125 857 212 949 "},"Ÿ":{"ha":778,"x_min":0,"x_max":778,"o":"m 389 496 l 126 991 l 0 991 l 330 379 l 330 0 l 447 0 l 447 385 l 778 991 l 653 991 l 389 496 m 199 1174 q 217 1123 199 1140 q 260 1107 235 1107 q 305 1123 286 1107 q 323 1174 323 1140 q 305 1225 323 1209 q 260 1240 286 1240 q 217 1225 235 1240 q 199 1174 199 1209 m 458 1174 q 476 1123 458 1140 q 519 1107 494 1107 q 563 1123 544 1107 q 581 1174 581 1140 q 563 1225 581 1209 q 519 1240 544 1240 q 476 1225 494 1240 q 458 1174 458 1209 "},"Ź":{"ha":793,"x_min":56,"x_max":737,"o":"m 737 0 l 737 104 l 196 104 l 722 901 l 722 991 l 72 991 l 72 888 l 582 888 l 56 90 l 56 0 l 737 0 m 311 1088 l 311 1071 l 387 1071 q 489 1171 430 1106 q 578 1279 548 1235 l 578 1293 l 441 1293 q 381 1190 419 1249 q 311 1088 344 1130 "},"ź":{"ha":650,"x_min":56,"x_max":595,"o":"m 595 0 l 595 87 l 184 87 l 585 656 l 585 743 l 81 743 l 81 656 l 461 656 l 56 77 l 56 0 l 595 0 m 250 859 l 250 842 l 326 842 q 428 941 369 877 q 517 1050 487 1006 l 517 1064 l 380 1064 q 320 960 358 1020 q 250 859 283 901 "},"Ż":{"ha":793,"x_min":56,"x_max":737,"o":"m 737 0 l 737 104 l 196 104 l 722 901 l 722 991 l 72 991 l 72 888 l 582 888 l 56 90 l 56 0 l 737 0 m 330 1174 q 349 1117 330 1136 q 396 1099 368 1099 q 443 1117 423 1099 q 463 1174 463 1136 q 443 1230 463 1212 q 396 1249 423 1249 q 349 1231 368 1249 q 330 1174 330 1213 "},"ż":{"ha":650,"x_min":56,"x_max":595,"o":"m 595 0 l 595 87 l 184 87 l 585 656 l 585 743 l 81 743 l 81 656 l 461 656 l 56 77 l 56 0 l 595 0 m 261 945 q 280 888 261 907 q 328 869 299 869 q 374 888 355 869 q 394 945 394 907 q 374 1001 394 983 q 328 1019 355 1019 q 280 1001 299 1019 q 261 945 261 983 "},"Ž":{"ha":793,"x_min":56,"x_max":737,"o":"m 737 0 l 737 104 l 196 104 l 722 901 l 722 991 l 72 991 l 72 888 l 582 888 l 56 90 l 56 0 l 737 0 m 169 1293 l 169 1276 q 290 1141 255 1184 q 340 1071 324 1099 l 452 1071 q 581 1230 484 1130 l 626 1276 l 626 1293 l 545 1293 q 395 1165 484 1253 q 247 1293 324 1243 l 169 1293 "},"ž":{"ha":650,"x_min":56,"x_max":595,"o":"m 595 0 l 595 87 l 184 87 l 585 656 l 585 743 l 81 743 l 81 656 l 461 656 l 56 77 l 56 0 l 595 0 m 99 1064 l 99 1047 q 220 912 185 955 q 270 842 254 869 l 382 842 q 511 1001 414 901 l 556 1047 l 556 1064 l 475 1064 q 326 936 414 1024 q 177 1064 254 1014 l 99 1064 "},"ſ":{"ha":444,"x_min":119,"x_max":496,"o":"m 232 0 l 232 802 q 262 926 232 884 q 358 968 292 968 q 467 947 408 968 l 496 1038 q 363 1063 428 1063 q 119 800 119 1063 l 119 0 l 232 0 "},"ƒ":{"ha":802,"x_min":132,"x_max":710,"o":"m 222 -334 q 399 -274 346 -334 q 453 -90 453 -215 l 453 567 l 642 567 l 642 654 l 450 654 l 450 755 q 477 875 450 840 q 571 911 505 911 q 681 889 612 911 l 695 933 l 710 977 q 571 1006 629 1006 q 393 945 448 1006 q 338 753 338 885 l 338 659 l 187 618 l 187 567 l 338 567 l 338 -93 q 312 -204 338 -170 q 221 -239 286 -239 q 132 -227 180 -239 l 132 -321 q 222 -334 176 -334 "},"Ǻ":{"ha":882,"x_min":0,"x_max":882,"o":"m 591 970 q 549 1074 591 1034 q 439 1114 507 1114 q 330 1075 372 1114 q 289 968 289 1036 q 361 840 289 876 l 0 0 l 118 0 l 231 272 l 644 272 l 764 0 l 882 0 l 521 842 q 591 970 591 880 m 610 376 l 272 376 l 392 667 q 414 729 398 683 q 440 807 431 774 q 489 669 472 709 l 610 376 m 375 1161 l 375 1149 l 450 1149 q 552 1234 495 1179 q 631 1320 609 1289 l 631 1331 l 493 1331 q 443 1252 477 1302 q 375 1161 408 1201 m 518 968 q 496 910 518 930 q 439 889 475 889 q 380 910 400 889 q 359 968 359 930 q 382 1027 359 1006 q 439 1047 404 1047 q 496 1027 473 1047 q 518 968 518 1006 "},"ǻ":{"ha":772,"x_min":64,"x_max":660,"o":"m 319 1189 l 401 1189 q 544 1271 488 1235 q 614 1322 600 1306 l 614 1331 l 437 1331 q 387 1269 422 1310 q 319 1200 351 1228 l 319 1189 m 576 0 l 660 0 l 660 507 q 592 696 660 637 q 382 755 524 755 q 243 738 313 755 q 115 692 172 721 l 153 606 q 257 645 201 627 q 379 663 314 663 q 510 621 469 663 q 550 492 550 580 l 550 446 l 428 441 q 64 205 64 431 q 126 43 64 100 q 300 -14 189 -14 q 438 11 382 -14 q 549 106 493 36 l 554 106 l 576 0 m 322 79 q 219 111 256 79 q 182 204 182 143 q 241 319 182 282 q 435 361 300 356 l 547 366 l 547 298 q 487 137 547 195 q 322 79 427 79 m 545 989 q 503 1092 545 1051 q 392 1132 460 1132 q 282 1093 323 1132 q 241 987 241 1054 q 282 881 241 920 q 392 842 323 842 q 503 882 461 842 q 545 989 545 922 m 471 987 q 449 929 471 949 q 392 908 427 908 q 333 929 353 908 q 313 987 313 949 q 335 1046 313 1025 q 392 1067 357 1067 q 449 1046 427 1067 q 471 987 471 1025 "},"Ǽ":{"ha":1213,"x_min":-1,"x_max":1129,"o":"m 1129 0 l 1129 103 l 736 103 l 736 468 l 1103 468 l 1103 570 l 736 570 l 736 889 l 1129 889 l 1129 991 l 472 991 l -1 0 l 118 0 l 272 315 l 621 315 l 621 0 l 1129 0 m 318 419 l 541 889 l 621 889 l 621 419 l 318 419 m 665 1088 l 665 1071 l 741 1071 q 843 1171 784 1106 q 932 1279 902 1235 l 932 1293 l 795 1293 q 735 1190 773 1249 q 665 1088 698 1130 "},"ǽ":{"ha":1192,"x_min":64,"x_max":1120,"o":"m 64 205 q 126 44 64 102 q 300 -14 189 -14 q 457 22 391 -14 q 579 144 524 58 q 860 -14 664 -14 q 979 -2 928 -14 q 1088 35 1029 9 l 1088 135 q 978 97 1031 109 q 863 85 924 85 q 644 353 650 85 l 1120 353 l 1120 425 q 1041 666 1120 576 q 832 757 962 757 q 700 724 758 757 q 606 632 642 692 q 522 726 578 696 q 378 755 466 755 q 244 738 311 755 q 126 692 176 720 l 161 606 q 370 663 272 663 q 490 621 450 663 q 529 492 529 579 l 529 446 l 404 441 q 148 375 232 436 q 64 205 64 315 m 182 204 q 237 318 182 281 q 419 361 293 355 l 526 366 l 526 298 q 469 137 526 194 q 314 79 412 79 q 218 110 254 79 q 182 204 182 140 m 831 663 q 956 606 912 663 q 999 443 999 549 l 647 443 q 702 606 654 550 q 831 663 749 663 m 530 859 l 530 842 l 606 842 q 708 941 649 877 q 797 1050 767 1006 l 797 1064 l 660 1064 q 601 960 638 1020 q 530 859 563 901 "},"Ǿ":{"ha":1082,"x_min":85,"x_max":997,"o":"m 997 497 q 867 880 997 743 l 939 981 l 857 1035 l 791 943 q 543 1007 685 1007 q 204 874 323 1007 q 85 498 85 741 q 205 117 85 251 l 132 12 l 214 -41 l 282 54 q 542 -14 382 -14 q 877 123 756 -14 q 997 497 997 259 m 875 497 q 791 191 875 295 q 542 87 707 87 q 345 143 422 87 l 800 786 q 875 497 875 682 m 207 497 q 293 800 207 696 q 543 904 378 904 q 729 854 657 904 l 275 215 q 207 497 207 319 m 457 1088 l 457 1071 l 532 1071 q 635 1171 576 1106 q 724 1279 694 1235 l 724 1293 l 587 1293 q 527 1190 565 1249 q 457 1088 490 1130 "},"ǿ":{"ha":839,"x_min":78,"x_max":761,"o":"m 761 372 q 675 644 761 541 l 741 734 l 661 786 l 604 705 q 421 757 526 757 q 169 655 260 757 q 78 372 78 554 q 165 96 78 199 l 102 7 l 179 -46 l 236 33 q 416 -14 312 -14 q 669 89 578 -14 q 761 372 761 191 m 195 372 q 251 589 195 516 q 418 661 307 661 q 546 625 495 661 l 231 187 q 195 372 195 256 m 644 372 q 587 155 644 229 q 419 81 530 81 q 294 115 342 81 l 610 551 q 644 372 644 484 m 325 859 l 325 842 l 400 842 q 503 941 444 877 q 591 1050 562 1006 l 591 1064 l 454 1064 q 395 960 433 1020 q 325 859 357 901 "},"Ș":{"ha":762,"x_min":72,"x_max":696,"o":"m 696 264 q 637 429 696 366 q 422 549 578 493 q 284 609 330 582 q 220 670 239 637 q 201 754 201 703 q 253 863 201 824 q 396 903 304 903 q 635 851 512 903 l 671 951 q 399 1006 547 1006 q 171 938 257 1006 q 85 755 85 870 q 144 578 85 646 q 342 461 203 511 q 489 398 441 426 q 558 337 538 370 q 579 253 579 304 q 521 131 579 175 q 347 87 463 87 q 205 102 277 87 q 72 143 133 117 l 72 32 q 343 -14 167 -14 q 601 60 506 -14 q 696 264 696 133 m 254 -290 l 254 -307 l 315 -307 q 386 -197 353 -262 q 427 -97 419 -132 l 427 -85 l 313 -85 q 291 -184 308 -121 q 254 -290 273 -247 "},"ș":{"ha":663,"x_min":72,"x_max":599,"o":"m 599 203 q 552 326 599 277 q 374 422 506 374 q 243 477 277 458 q 194 517 210 496 q 179 568 179 538 q 220 637 179 612 q 340 663 260 663 q 543 616 431 663 l 583 708 q 349 757 469 757 q 146 704 220 757 q 72 561 72 652 q 93 473 72 510 q 158 408 115 437 q 306 340 202 379 q 453 268 415 298 q 490 193 490 237 q 443 107 490 136 q 307 79 395 79 q 189 95 250 79 q 74 138 127 111 l 74 33 q 304 -14 157 -14 q 522 43 444 -14 q 599 203 599 99 m 202 -290 l 202 -307 l 263 -307 q 334 -197 300 -262 q 374 -97 367 -132 l 374 -85 l 260 -85 q 238 -184 256 -121 q 202 -290 221 -247 "},"ˆ":{"ha":822,"x_min":182,"x_max":639,"o":"m 182 857 l 182 842 l 260 842 q 408 968 316 877 q 558 842 498 879 l 639 842 l 639 857 q 517 990 554 945 q 465 1064 480 1036 l 353 1064 q 302 993 337 1036 q 182 857 268 949 "},"ˇ":{"ha":822,"x_min":182,"x_max":639,"o":"m 182 1064 l 182 1047 q 302 912 268 955 q 353 842 337 869 l 465 842 q 594 1001 496 901 l 639 1047 l 639 1064 l 558 1064 q 408 936 496 1024 q 260 1064 337 1014 l 182 1064 "},"ˉ":{"ha":815,"x_min":204,"x_max":611,"o":"m 204 935 l 204 842 l 611 842 l 611 935 l 204 935 "},"˘":{"ha":822,"x_min":199,"x_max":619,"o":"m 406 842 q 556 890 499 842 q 619 1023 612 938 l 549 1023 q 509 956 542 978 q 408 935 477 935 q 326 943 351 935 q 287 971 301 952 q 269 1023 273 990 l 199 1023 q 258 888 205 935 q 406 842 311 842 "},"˙":{"ha":351,"x_min":110,"x_max":243,"o":"m 110 945 q 129 888 110 907 q 176 869 148 869 q 223 888 203 869 q 243 945 243 907 q 223 1001 243 983 q 176 1019 203 1019 q 129 1001 148 1019 q 110 945 110 983 "},"˚":{"ha":802,"x_min":249,"x_max":551,"o":"m 551 989 q 509 1092 551 1051 q 399 1132 467 1132 q 290 1093 331 1132 q 249 987 249 1054 q 290 881 249 921 q 399 842 330 842 q 510 882 468 842 q 551 989 551 922 m 478 987 q 456 929 478 949 q 399 908 434 908 q 340 929 360 908 q 319 987 319 949 q 342 1046 319 1025 q 399 1067 364 1067 q 456 1046 433 1067 q 478 987 478 1025 "},"˛":{"ha":273,"x_min":25,"x_max":250,"o":"m 121 -161 q 144 -82 121 -119 q 214 0 168 -45 l 132 0 q 54 -82 83 -36 q 25 -175 25 -127 q 165 -302 25 -302 q 250 -290 206 -302 l 250 -216 q 184 -225 213 -225 q 121 -161 121 -225 "},"˜":{"ha":822,"x_min":179,"x_max":684,"o":"m 534 843 q 636 889 598 843 q 684 1018 675 936 l 616 1018 q 590 956 606 976 q 541 936 574 936 q 494 948 519 936 q 444 976 470 961 q 388 1004 417 991 q 328 1017 359 1017 q 227 970 266 1017 q 179 842 188 924 l 245 842 q 272 903 255 883 q 323 924 290 924 q 371 911 347 924 q 423 883 396 899 q 477 856 450 868 q 534 843 505 843 "},"˝":{"ha":802,"x_min":157,"x_max":644,"o":"m 157 859 l 157 842 l 222 842 q 320 941 262 874 q 403 1050 378 1007 l 403 1064 l 277 1064 q 218 954 256 1017 q 157 859 181 891 m 399 859 l 399 842 l 464 842 q 561 941 503 874 q 644 1050 619 1007 l 644 1064 l 518 1064 q 466 965 500 1025 q 399 859 432 905 "},"΄":{"ha":802,"x_min":345,"x_max":532,"o":"m 345 861 l 345 842 l 412 842 q 483 974 446 893 q 532 1104 519 1054 l 532 1120 l 407 1120 q 381 987 399 1064 q 345 861 363 910 "},"΅":{"ha":802,"x_min":192,"x_max":610,"o":"m 347 958 l 347 942 l 401 942 q 477 1044 436 983 q 541 1150 518 1105 l 541 1164 l 412 1164 q 347 958 391 1073 m 192 945 q 210 894 192 911 q 253 878 227 878 q 295 894 277 878 q 314 945 314 911 q 297 994 314 976 q 253 1011 281 1011 q 210 996 227 1011 q 192 945 192 980 m 488 945 q 505 894 488 911 q 549 878 523 878 q 591 894 572 878 q 610 945 610 911 q 593 994 610 976 q 549 1011 576 1011 q 505 996 523 1011 q 488 945 488 980 "},"Ά":{"ha":879,"x_min":0,"x_max":879,"o":"m 760 0 l 879 0 l 489 996 l 392 996 l 0 0 l 117 0 l 239 315 l 636 315 l 760 0 m 600 419 l 279 419 l 396 726 q 439 869 424 804 q 485 726 463 785 l 600 419 m 19 790 l 19 770 l 87 770 q 157 902 120 822 q 206 1033 194 983 l 206 1048 l 81 1048 q 55 916 73 993 q 19 790 37 839 "},"·":{"ha":370,"x_min":103,"x_max":267,"o":"m 103 490 q 126 420 103 441 q 183 399 149 399 q 244 422 222 399 q 267 490 267 446 q 244 558 267 535 q 183 582 222 582 q 124 558 145 582 q 103 490 103 535 "},"Έ":{"ha":859,"x_min":-30,"x_max":774,"o":"m 774 0 l 774 103 l 336 103 l 336 468 l 747 468 l 747 570 l 336 570 l 336 889 l 774 889 l 774 991 l 221 991 l 221 0 l 774 0 m -30 790 l -30 770 l 38 770 q 108 902 71 822 q 157 1033 145 983 l 157 1048 l 33 1048 q 6 916 24 993 q -30 790 -12 839 "},"Ή":{"ha":1126,"x_min":-30,"x_max":991,"o":"m 991 0 l 991 991 l 876 991 l 876 570 l 353 570 l 353 991 l 238 991 l 238 0 l 353 0 l 353 467 l 876 467 l 876 0 l 991 0 m -30 790 l -30 770 l 38 770 q 108 902 71 822 q 157 1033 145 983 l 157 1048 l 33 1048 q 6 916 24 993 q -30 790 -12 839 "},"Ό":{"ha":1129,"x_min":-19,"x_max":1043,"o":"m 1043 497 q 923 871 1043 736 q 589 1007 803 1007 q 250 874 370 1007 q 131 498 131 741 q 250 120 131 254 q 588 -14 369 -14 q 923 123 802 -14 q 1043 497 1043 259 m 253 497 q 339 800 253 696 q 589 904 425 904 q 837 801 753 904 q 921 497 921 697 q 837 191 921 295 q 588 87 753 87 q 339 192 425 87 q 253 497 253 296 m -19 790 l -19 770 l 49 770 q 119 902 82 822 q 168 1033 156 983 l 168 1048 l 43 1048 q 17 916 35 993 q -19 790 -1 839 "},"Ύ":{"ha":958,"x_min":-30,"x_max":958,"o":"m 569 496 l 307 991 l 180 991 l 511 379 l 511 0 l 627 0 l 627 385 l 958 991 l 833 991 l 569 496 m -30 790 l -30 770 l 38 770 q 108 902 71 822 q 157 1033 145 983 l 157 1048 l 33 1048 q 6 916 24 993 q -30 790 -12 839 "},"Ώ":{"ha":1129,"x_min":-19,"x_max":1076,"o":"m 586 904 q 833 817 749 904 q 918 558 918 729 q 860 294 918 408 q 679 90 803 181 l 679 0 l 1076 0 l 1076 103 l 830 103 q 986 302 932 184 q 1040 559 1040 419 q 920 889 1040 772 q 586 1007 800 1007 q 253 888 373 1007 q 133 558 133 768 q 187 302 133 420 q 344 103 241 183 l 97 103 l 97 0 l 494 0 l 494 90 q 314 293 372 180 q 255 558 255 406 q 340 817 255 730 q 586 904 425 904 m -19 790 l -19 770 l 49 770 q 119 902 82 822 q 168 1033 156 983 l 168 1048 l 43 1048 q 17 916 35 993 q -19 790 -1 839 "},"ΐ":{"ha":471,"x_min":-16,"x_max":447,"o":"m 227 743 l 114 743 l 114 215 q 163 43 114 100 q 321 -14 212 -14 q 390 -8 355 -14 q 447 7 426 -2 l 447 93 q 394 84 429 88 q 335 79 360 79 q 251 114 276 79 q 227 218 227 148 l 227 743 m 140 958 l 140 942 l 194 942 q 270 1044 229 983 q 333 1150 311 1105 l 333 1164 l 205 1164 q 140 958 184 1073 m -16 945 q 2 894 -16 911 q 45 878 20 878 q 88 894 69 878 q 106 945 106 911 q 90 994 106 976 q 45 1011 73 1011 q 2 996 20 1011 q -16 945 -16 980 m 280 945 q 298 894 280 911 q 341 878 315 878 q 384 894 365 878 q 402 945 402 911 q 386 994 402 976 q 341 1011 369 1011 q 298 996 315 1011 q 280 945 280 980 "},"Α":{"ha":879,"x_min":0,"x_max":879,"o":"m 760 0 l 879 0 l 489 996 l 392 996 l 0 0 l 117 0 l 239 315 l 636 315 l 760 0 m 600 419 l 279 419 l 396 726 q 439 869 424 804 q 485 726 463 785 l 600 419 "},"Β":{"ha":900,"x_min":136,"x_max":823,"o":"m 136 991 l 136 0 l 482 0 q 733 75 644 0 q 823 282 823 149 q 597 519 823 481 l 597 526 q 741 601 692 543 q 790 746 790 658 q 702 932 790 873 q 416 991 614 991 l 136 991 m 252 567 l 252 892 l 421 892 q 611 855 551 892 q 671 734 671 818 q 617 605 671 644 q 441 567 564 567 l 252 567 m 252 469 l 449 469 q 638 426 576 469 q 700 290 700 382 q 639 145 700 191 q 458 98 578 98 l 252 98 l 252 469 "},"Γ":{"ha":722,"x_min":136,"x_max":689,"o":"m 689 991 l 136 991 l 136 0 l 252 0 l 252 888 l 689 888 l 689 991 "},"Δ":{"ha":794,"x_min":26,"x_max":768,"o":"m 26 71 l 26 0 l 768 0 l 768 69 l 453 991 l 340 991 l 26 71 m 396 860 q 465 619 419 756 l 640 103 l 151 103 l 328 625 q 396 860 355 707 "},"Ε":{"ha":772,"x_min":136,"x_max":689,"o":"m 689 0 l 689 103 l 252 103 l 252 468 l 663 468 l 663 570 l 252 570 l 252 889 l 689 889 l 689 991 l 136 991 l 136 0 l 689 0 "},"Ζ":{"ha":793,"x_min":56,"x_max":737,"o":"m 737 0 l 737 104 l 196 104 l 722 901 l 722 991 l 72 991 l 72 888 l 582 888 l 56 90 l 56 0 l 737 0 "},"Η":{"ha":1025,"x_min":136,"x_max":889,"o":"m 889 0 l 889 991 l 774 991 l 774 570 l 252 570 l 252 991 l 136 991 l 136 0 l 252 0 l 252 467 l 774 467 l 774 0 l 889 0 "},"Θ":{"ha":1082,"x_min":85,"x_max":997,"o":"m 328 555 l 328 454 l 754 454 l 754 555 l 328 555 m 997 497 q 877 871 997 736 q 543 1007 757 1007 q 204 874 323 1007 q 85 498 85 741 q 204 120 85 254 q 542 -14 323 -14 q 877 123 756 -14 q 997 497 997 259 m 207 497 q 292 800 207 696 q 543 904 377 904 q 791 802 707 904 q 875 497 875 699 q 791 191 875 294 q 542 87 707 87 q 292 192 376 87 q 207 497 207 296 "},"Κ":{"ha":852,"x_min":136,"x_max":852,"o":"m 852 0 l 439 561 l 838 991 l 701 991 l 252 500 l 252 991 l 136 991 l 136 0 l 252 0 l 252 389 l 355 481 l 717 0 l 852 0 "},"Λ":{"ha":838,"x_min":0,"x_max":838,"o":"m 838 0 l 478 991 l 358 991 l 0 0 l 123 0 l 346 631 q 416 861 394 767 q 490 629 431 800 l 714 0 l 838 0 "},"Μ":{"ha":1254,"x_min":136,"x_max":1118,"o":"m 575 0 l 668 0 l 1007 878 l 1013 878 q 1003 639 1003 749 l 1003 0 l 1118 0 l 1118 991 l 946 991 l 629 174 l 624 174 l 310 991 l 136 991 l 136 0 l 243 0 l 243 631 q 233 879 243 774 l 239 879 l 575 0 "},"Ν":{"ha":1047,"x_min":136,"x_max":911,"o":"m 911 0 l 911 991 l 803 991 l 803 422 q 806 280 802 380 q 812 163 811 181 l 807 163 l 267 991 l 136 991 l 136 0 l 243 0 l 243 564 q 232 832 243 686 l 237 832 l 779 0 l 911 0 "},"Ξ":{"ha":768,"x_min":49,"x_max":720,"o":"m 132 570 l 132 468 l 636 468 l 636 570 l 132 570 m 77 991 l 77 889 l 692 889 l 692 991 l 77 991 m 720 103 l 49 103 l 49 0 l 720 0 l 720 103 "},"Ο":{"ha":1082,"x_min":85,"x_max":997,"o":"m 997 497 q 877 871 997 736 q 543 1007 757 1007 q 204 874 323 1007 q 85 498 85 741 q 204 120 85 254 q 542 -14 323 -14 q 877 123 756 -14 q 997 497 997 259 m 207 497 q 293 800 207 696 q 543 904 378 904 q 791 801 707 904 q 875 497 875 697 q 791 191 875 295 q 542 87 707 87 q 293 192 378 87 q 207 497 207 296 "},"Π":{"ha":1013,"x_min":136,"x_max":876,"o":"m 876 0 l 876 991 l 136 991 l 136 0 l 252 0 l 252 889 l 761 889 l 761 0 l 876 0 "},"Ρ":{"ha":836,"x_min":136,"x_max":765,"o":"m 765 703 q 393 991 765 991 l 136 991 l 136 0 l 252 0 l 252 390 l 368 390 q 662 471 559 390 q 765 703 765 552 m 252 489 l 252 892 l 380 892 q 581 844 517 892 q 646 697 646 795 q 577 538 646 588 q 355 489 509 489 l 252 489 "},"Σ":{"ha":787,"x_min":50,"x_max":757,"o":"m 50 0 l 757 0 l 757 103 l 179 103 l 505 519 l 193 889 l 258 888 l 717 888 l 717 991 l 58 991 l 58 895 l 376 518 l 50 96 l 50 0 "},"Τ":{"ha":768,"x_min":12,"x_max":755,"o":"m 441 0 l 441 889 l 755 889 l 755 991 l 12 991 l 12 889 l 326 889 l 326 0 l 441 0 "},"Υ":{"ha":778,"x_min":0,"x_max":778,"o":"m 389 496 l 126 991 l 0 991 l 330 379 l 330 0 l 447 0 l 447 385 l 778 991 l 653 991 l 389 496 "},"Φ":{"ha":1108,"x_min":72,"x_max":1036,"o":"m 496 1006 l 496 884 l 450 884 q 249 837 334 884 q 118 705 163 789 q 72 514 72 621 q 121 317 72 405 q 258 184 171 229 q 465 139 346 139 l 496 139 l 496 -14 l 612 -14 l 612 139 l 640 139 q 847 183 760 139 q 986 315 935 227 q 1036 515 1036 403 q 991 707 1036 623 q 861 838 946 791 q 660 884 776 884 l 612 884 l 612 1006 l 496 1006 m 612 236 l 612 785 l 652 785 q 847 713 777 785 q 917 517 917 642 q 841 310 917 385 q 629 236 766 236 l 612 236 m 496 785 l 496 236 l 479 236 q 267 310 342 236 q 192 517 192 383 q 263 713 192 641 q 457 785 334 785 l 496 785 "},"Χ":{"ha":802,"x_min":5,"x_max":796,"o":"m 796 0 l 465 522 l 772 991 l 650 991 l 401 599 l 155 991 l 28 991 l 335 518 l 5 0 l 127 0 l 399 436 l 665 0 l 796 0 "},"Ψ":{"ha":1105,"x_min":74,"x_max":1032,"o":"m 610 0 l 610 302 l 640 302 q 847 344 759 302 q 983 470 935 386 q 1032 665 1032 553 l 1032 991 l 913 991 l 913 664 q 843 470 913 537 q 629 403 772 403 l 610 403 l 610 991 l 494 991 l 494 403 l 476 403 q 262 471 332 403 q 192 667 192 539 l 192 991 l 74 991 l 74 664 q 123 469 74 553 q 258 344 172 385 q 464 302 345 302 l 494 302 l 494 0 l 610 0 "},"Ω":{"ha":1086,"x_min":54,"x_max":1034,"o":"m 543 904 q 790 817 706 904 q 875 558 875 729 q 818 294 875 408 q 636 90 760 181 l 636 0 l 1034 0 l 1034 103 l 787 103 q 943 302 890 184 q 997 559 997 419 q 877 889 997 772 q 543 1007 757 1007 q 210 888 330 1007 q 90 558 90 768 q 144 302 90 420 q 301 103 199 183 l 54 103 l 54 0 l 452 0 l 452 90 q 271 293 330 180 q 212 558 212 406 q 297 817 212 730 q 543 904 382 904 "},"Ϋ":{"ha":778,"x_min":0,"x_max":778,"o":"m 389 496 l 126 991 l 0 991 l 330 379 l 330 0 l 447 0 l 447 385 l 778 991 l 653 991 l 389 496 m 198 1174 q 216 1123 198 1140 q 259 1107 234 1107 q 303 1123 285 1107 q 322 1174 322 1140 q 303 1225 322 1209 q 259 1240 285 1240 q 216 1225 234 1240 q 198 1174 198 1209 m 456 1174 q 474 1123 456 1140 q 517 1107 492 1107 q 561 1123 543 1107 q 580 1174 580 1140 q 561 1225 580 1209 q 517 1240 543 1240 q 474 1225 492 1240 q 456 1174 456 1209 "},"ά":{"ha":848,"x_min":78,"x_max":829,"o":"m 401 81 q 244 153 294 81 q 195 368 195 224 q 400 661 195 661 q 566 594 515 661 q 618 371 618 526 l 618 361 q 567 147 618 213 q 401 81 516 81 m 385 -14 q 521 14 465 -14 q 618 100 578 41 l 627 100 q 669 14 639 41 q 754 -14 699 -14 q 829 4 798 -14 l 829 85 q 787 78 807 78 q 730 155 730 78 l 730 453 q 740 615 730 532 q 764 743 749 699 l 676 743 q 632 643 648 705 l 624 643 q 533 728 587 700 q 396 757 478 757 q 161 656 243 757 q 78 370 78 555 q 159 87 78 188 q 385 -14 239 -14 m 364 861 l 364 842 l 432 842 q 502 974 465 893 q 551 1104 539 1054 l 551 1120 l 427 1120 q 400 987 418 1064 q 364 861 382 910 "},"έ":{"ha":660,"x_min":61,"x_max":612,"o":"m 485 435 l 410 435 q 195 551 195 435 q 364 661 195 661 q 462 652 418 661 q 570 614 506 642 l 612 704 q 489 746 545 734 q 367 757 433 757 q 161 703 237 757 q 85 559 85 650 q 121 454 85 497 q 224 392 157 411 l 224 385 q 98 312 136 357 q 61 201 61 268 q 143 44 61 101 q 367 -14 224 -14 q 610 37 517 -14 l 610 138 q 486 93 542 106 q 372 79 429 79 q 223 113 273 79 q 174 207 174 146 q 385 339 174 339 l 485 339 l 485 435 m 307 861 l 307 842 l 374 842 q 445 974 408 893 q 494 1104 481 1054 l 494 1120 l 369 1120 q 343 987 361 1064 q 307 861 325 910 "},"ή":{"ha":852,"x_min":119,"x_max":741,"o":"m 628 -334 l 741 -334 l 741 485 q 673 692 741 627 q 471 757 605 757 q 332 727 394 757 q 235 642 269 696 l 229 642 l 211 743 l 119 743 l 119 0 l 232 0 l 232 390 q 286 598 232 535 q 457 661 340 661 q 587 616 545 661 q 628 481 628 572 l 628 -334 m 385 861 l 385 842 l 452 842 q 523 974 486 893 q 572 1104 559 1054 l 572 1120 l 447 1120 q 421 987 439 1064 q 385 861 403 910 "},"ί":{"ha":471,"x_min":114,"x_max":447,"o":"m 227 743 l 114 743 l 114 215 q 163 43 114 100 q 321 -14 212 -14 q 390 -8 355 -14 q 447 7 426 -2 l 447 93 q 394 84 429 88 q 335 79 360 79 q 251 114 276 79 q 227 218 227 148 l 227 743 m 130 861 l 130 842 l 198 842 q 268 974 231 893 q 317 1104 305 1054 l 317 1120 l 193 1120 q 166 987 184 1064 q 130 861 149 910 "},"ΰ":{"ha":846,"x_min":111,"x_max":771,"o":"m 425 -14 q 684 88 596 -14 q 771 406 771 190 q 762 573 771 500 q 728 743 752 646 l 615 743 q 648 575 638 651 q 657 411 657 499 q 603 160 657 241 q 435 79 548 79 q 277 145 331 79 q 224 342 224 212 l 224 743 l 111 743 l 111 336 q 190 71 111 156 q 425 -14 269 -14 m 387 958 l 387 942 l 441 942 q 517 1044 476 983 q 581 1150 558 1105 l 581 1164 l 452 1164 q 387 958 431 1073 m 232 945 q 250 894 232 911 q 293 878 267 878 q 335 894 317 878 q 354 945 354 911 q 337 994 354 976 q 293 1011 321 1011 q 250 996 267 1011 q 232 945 232 980 m 528 945 q 545 894 528 911 q 589 878 563 878 q 631 894 612 878 q 650 945 650 911 q 633 994 650 976 q 589 1011 616 1011 q 545 996 563 1011 q 528 945 528 980 "},"α":{"ha":848,"x_min":78,"x_max":829,"o":"m 401 81 q 244 153 294 81 q 195 368 195 224 q 400 661 195 661 q 566 594 515 661 q 618 371 618 526 l 618 361 q 567 147 618 213 q 401 81 516 81 m 385 -14 q 521 14 465 -14 q 618 100 578 41 l 627 100 q 669 14 639 41 q 754 -14 699 -14 q 829 4 798 -14 l 829 85 q 787 78 807 78 q 730 155 730 78 l 730 453 q 740 615 730 532 q 764 743 749 699 l 676 743 q 632 643 648 705 l 624 643 q 533 728 587 700 q 396 757 478 757 q 161 656 243 757 q 78 370 78 555 q 159 87 78 188 q 385 -14 239 -14 "},"β":{"ha":872,"x_min":119,"x_max":808,"o":"m 447 1063 q 205 979 291 1063 q 119 743 119 896 l 119 -334 l 232 -334 l 232 33 q 340 -3 286 7 q 468 -14 394 -14 q 719 63 629 -14 q 808 281 808 139 q 553 558 808 530 l 553 564 q 765 798 765 598 q 681 992 765 922 q 447 1063 596 1063 m 446 968 q 595 923 543 968 q 648 794 648 878 q 593 651 648 701 q 433 602 538 602 l 371 602 l 371 505 l 447 505 q 631 450 567 505 q 696 288 696 394 q 637 130 696 181 q 463 79 578 79 q 350 92 404 79 q 232 138 295 104 l 232 739 q 285 909 232 851 q 446 968 338 968 "},"γ":{"ha":711,"x_min":7,"x_max":704,"o":"m 361 -334 q 379 -165 361 -264 q 429 18 397 -66 l 704 743 l 587 743 q 414 278 429 322 q 386 186 399 235 q 368 118 372 138 l 363 118 q 286 347 350 188 l 123 743 l 7 743 l 311 8 q 260 -169 282 -69 q 239 -334 239 -269 l 361 -334 "},"δ":{"ha":806,"x_min":77,"x_max":760,"o":"m 370 635 q 153 506 230 594 q 77 297 77 417 q 169 71 77 155 q 415 -14 261 -14 q 667 76 575 -14 q 760 325 760 165 q 700 518 760 436 q 497 677 640 600 q 348 777 384 739 q 311 863 311 814 q 344 934 311 907 q 435 961 377 961 q 544 946 490 961 q 673 889 597 931 l 722 981 q 573 1039 637 1023 q 439 1054 509 1054 q 262 1002 328 1054 q 196 863 196 951 q 235 742 196 795 q 370 635 275 688 m 643 325 q 584 144 643 207 q 415 81 525 81 q 255 139 315 81 q 195 294 195 197 q 259 476 195 403 q 464 586 324 550 q 601 474 559 536 q 643 325 643 412 "},"ε":{"ha":660,"x_min":61,"x_max":612,"o":"m 485 435 l 410 435 q 195 551 195 435 q 364 661 195 661 q 462 652 418 661 q 570 614 506 642 l 612 704 q 489 746 545 734 q 367 757 433 757 q 161 703 237 757 q 85 559 85 650 q 121 454 85 497 q 224 392 157 411 l 224 385 q 98 312 136 357 q 61 201 61 268 q 143 44 61 101 q 367 -14 224 -14 q 610 37 517 -14 l 610 138 q 486 93 542 106 q 372 79 429 79 q 223 113 273 79 q 174 207 174 146 q 385 339 174 339 l 485 339 l 485 435 "},"ζ":{"ha":671,"x_min":78,"x_max":629,"o":"m 119 960 l 283 960 q 494 965 467 960 q 262 740 330 817 q 156 596 194 662 q 98 459 118 530 q 78 311 78 389 q 142 105 78 180 q 343 7 205 31 q 478 -32 440 -11 q 515 -90 515 -52 q 431 -272 515 -163 l 543 -272 q 629 -60 629 -161 q 583 39 629 2 q 436 97 537 76 q 277 147 319 122 q 215 212 235 172 q 195 318 195 252 q 241 529 195 431 q 386 736 288 627 q 629 968 484 846 l 629 1055 l 119 1055 l 119 960 "},"η":{"ha":852,"x_min":119,"x_max":741,"o":"m 628 -334 l 741 -334 l 741 485 q 673 692 741 627 q 471 757 605 757 q 332 727 394 757 q 235 642 269 696 l 229 642 l 211 743 l 119 743 l 119 0 l 232 0 l 232 390 q 286 598 232 535 q 457 661 340 661 q 587 616 545 661 q 628 481 628 572 l 628 -334 "},"θ":{"ha":822,"x_min":78,"x_max":745,"o":"m 745 529 q 660 933 745 796 q 410 1071 575 1071 q 161 938 244 1071 q 78 529 78 805 q 162 123 78 260 q 410 -14 247 -14 q 662 120 579 -14 q 745 529 745 254 m 410 81 q 245 185 296 81 q 192 496 195 290 l 631 496 q 574 184 627 288 q 410 81 521 81 m 410 977 q 570 879 519 977 q 629 591 622 782 l 192 591 q 250 879 199 782 q 410 977 300 977 "},"ι":{"ha":471,"x_min":114,"x_max":447,"o":"m 227 743 l 114 743 l 114 215 q 163 43 114 100 q 321 -14 212 -14 q 390 -8 355 -14 q 447 7 426 -2 l 447 93 q 394 84 429 88 q 335 79 360 79 q 251 114 276 79 q 227 218 227 148 l 227 743 "},"κ":{"ha":720,"x_min":119,"x_max":713,"o":"m 553 742 l 232 361 q 240 550 240 437 l 240 742 l 119 742 l 119 0 l 240 0 l 240 265 l 332 342 l 576 0 l 713 0 l 412 415 l 693 742 l 553 742 "},"λ":{"ha":742,"x_min":-9,"x_max":742,"o":"m -9 0 l 107 0 l 279 397 q 358 618 339 539 l 364 618 q 436 390 379 553 l 542 94 q 590 12 562 38 q 668 -14 618 -14 q 742 3 709 -14 l 742 85 q 701 78 720 78 q 663 95 677 78 q 636 146 649 113 l 390 832 q 323 979 353 935 q 253 1044 294 1023 q 150 1064 212 1064 q 61 1053 107 1064 l 61 962 q 139 971 100 971 q 195 959 172 971 q 235 923 218 947 q 272 842 252 899 l 311 732 l -9 0 "},"μ":{"ha":860,"x_min":119,"x_max":741,"o":"m 232 258 l 232 743 l 119 743 l 119 -334 l 232 -334 l 232 -117 q 225 49 232 -8 l 232 49 q 393 -14 292 -14 q 624 100 549 -14 l 631 100 l 648 0 l 741 0 l 741 743 l 628 743 l 628 353 q 574 145 628 209 q 404 81 520 81 q 232 258 232 81 "},"ν":{"ha":753,"x_min":0,"x_max":696,"o":"m 0 743 l 277 0 l 403 0 q 626 325 555 153 q 696 743 696 497 l 583 743 q 529 364 583 515 q 355 94 475 213 l 350 94 q 311 217 339 136 q 265 343 283 298 l 117 743 l 0 743 "},"ξ":{"ha":660,"x_min":77,"x_max":629,"o":"m 579 511 l 579 599 l 464 599 q 289 635 345 599 q 232 750 232 672 q 275 863 232 814 q 394 939 318 912 q 558 966 470 966 l 593 966 l 593 1055 l 119 1055 l 119 960 l 165 960 q 330 968 243 960 q 171 880 218 934 q 123 747 123 827 q 271 557 123 600 l 271 549 q 130 451 184 522 q 77 285 77 380 q 144 98 77 165 q 347 7 212 30 q 483 -31 444 -10 q 522 -89 522 -52 q 500 -174 522 -124 q 441 -272 477 -224 l 547 -272 q 611 -154 593 -205 q 629 -60 629 -104 q 584 39 629 1 q 441 96 538 76 q 339 120 385 108 q 261 153 293 132 q 212 207 229 174 q 195 294 195 240 q 267 451 195 391 q 458 511 339 511 l 579 511 "},"ο":{"ha":839,"x_min":78,"x_max":761,"o":"m 761 372 q 669 653 761 549 q 421 757 577 757 q 169 655 260 757 q 78 372 78 554 q 120 168 78 255 q 239 33 162 80 q 416 -14 317 -14 q 669 89 578 -14 q 761 372 761 191 m 195 372 q 251 589 195 516 q 418 661 307 661 q 587 588 530 661 q 644 372 644 514 q 587 155 644 229 q 419 81 530 81 q 252 155 309 81 q 195 372 195 230 "},"π":{"ha":903,"x_min":17,"x_max":860,"o":"m 779 79 q 733 98 750 79 q 715 167 715 117 l 715 647 l 860 647 l 860 743 l 114 743 l 17 697 l 17 647 l 167 647 l 167 0 l 279 0 l 279 647 l 603 647 l 603 158 q 751 -14 603 -14 q 838 3 808 -14 l 838 92 q 779 79 805 79 "},"ρ":{"ha":839,"x_min":113,"x_max":761,"o":"m 761 372 q 675 654 761 551 q 441 757 590 757 q 198 660 283 757 q 113 382 113 562 l 113 -334 l 227 -334 l 227 -135 q 221 50 227 9 l 227 50 q 429 -14 308 -14 q 674 87 587 -14 q 761 372 761 189 m 436 661 q 595 589 547 661 q 644 372 644 517 q 593 151 644 222 q 433 81 541 81 q 227 150 309 81 l 227 379 q 278 591 227 521 q 436 661 329 661 "},"ς":{"ha":669,"x_min":78,"x_max":631,"o":"m 195 354 q 252 583 195 509 q 429 657 310 657 q 595 623 507 657 l 631 718 q 541 746 594 734 q 433 757 487 757 q 172 652 265 757 q 78 353 78 547 q 144 118 78 204 q 349 7 210 32 q 452 -18 414 -5 q 506 -47 489 -31 q 524 -90 524 -63 q 501 -174 524 -124 q 441 -272 478 -224 l 547 -272 q 611 -156 593 -208 q 629 -60 629 -104 q 585 38 629 1 q 440 96 541 74 q 283 146 332 119 q 215 218 235 173 q 195 354 195 262 "},"σ":{"ha":851,"x_min":78,"x_max":818,"o":"m 760 345 q 639 647 760 534 l 818 647 l 818 743 l 479 743 q 78 354 78 743 q 168 84 78 182 q 416 -14 257 -14 q 598 31 521 -14 q 718 156 676 75 q 760 345 760 238 m 195 354 q 262 576 195 506 q 481 647 330 647 l 525 647 q 643 338 643 521 q 585 148 643 214 q 419 81 527 81 q 252 152 310 81 q 195 354 195 222 "},"τ":{"ha":657,"x_min":12,"x_max":621,"o":"m 621 743 l 113 743 l 12 697 l 12 647 l 214 647 l 214 214 q 271 41 214 98 q 452 -17 329 -17 q 522 -11 484 -17 q 583 5 559 -5 l 583 90 q 532 81 565 85 q 467 77 498 77 q 328 228 328 77 l 328 647 l 621 647 l 621 743 "},"υ":{"ha":846,"x_min":111,"x_max":771,"o":"m 425 -14 q 684 88 596 -14 q 771 406 771 190 q 762 573 771 500 q 728 743 752 646 l 615 743 q 648 575 638 651 q 657 411 657 499 q 603 160 657 241 q 435 79 548 79 q 277 145 331 79 q 224 342 224 212 l 224 743 l 111 743 l 111 336 q 190 71 111 156 q 425 -14 269 -14 "},"φ":{"ha":997,"x_min":78,"x_max":920,"o":"m 436 -334 l 547 -334 l 547 -12 q 743 42 659 -7 q 873 179 827 91 q 920 389 920 268 q 846 657 920 558 q 650 757 772 757 q 492 692 549 757 q 436 501 436 628 l 436 81 q 192 372 192 104 q 219 532 192 456 q 307 688 247 608 l 218 749 q 78 376 78 577 q 169 94 78 193 q 436 -12 260 -5 l 436 -334 m 803 387 q 736 172 803 252 q 547 81 669 92 l 547 503 q 574 621 547 580 q 650 661 600 661 q 761 587 719 661 q 803 387 803 513 "},"χ":{"ha":758,"x_min":-14,"x_max":749,"o":"m 121 747 q 39 736 72 747 l 39 648 q 82 656 57 656 q 135 629 111 656 q 184 534 159 602 l 301 233 l -14 -334 l 107 -334 l 353 117 l 454 -146 q 542 -294 494 -254 q 668 -334 590 -334 q 749 -323 708 -334 l 749 -236 q 688 -241 718 -241 q 617 -216 645 -241 q 557 -109 589 -191 l 428 220 l 718 743 l 596 743 l 380 330 l 282 581 q 231 687 252 656 q 184 733 210 718 q 121 747 157 747 "},"ψ":{"ha":1046,"x_min":111,"x_max":960,"o":"m 582 1054 l 471 1054 l 471 82 q 285 165 346 91 q 224 371 224 239 l 224 743 l 111 743 l 111 375 q 201 92 111 191 q 471 -12 292 -6 l 471 -334 l 582 -334 l 582 -12 q 863 102 766 -1 q 960 393 960 206 q 917 743 960 559 l 804 743 q 838 550 829 629 q 847 389 847 470 q 778 172 847 250 q 582 83 709 94 l 582 1054 "},"ω":{"ha":1074,"x_min":78,"x_max":996,"o":"m 339 -14 q 533 110 489 -14 l 539 110 q 734 -14 585 -14 q 927 87 858 -14 q 996 359 996 189 q 976 555 996 466 q 913 743 957 644 l 796 743 q 862 549 843 637 q 880 358 880 460 q 840 154 880 227 q 726 81 799 81 q 627 128 663 81 q 591 262 591 176 l 591 473 l 482 473 l 482 262 q 447 129 482 178 q 347 81 411 81 q 234 154 275 81 q 193 358 193 227 q 213 551 193 465 q 278 743 232 637 l 161 743 q 97 552 115 640 q 78 359 78 465 q 147 87 78 187 q 339 -14 216 -14 "},"ϊ":{"ha":471,"x_min":6,"x_max":447,"o":"m 227 743 l 114 743 l 114 215 q 163 43 114 100 q 321 -14 212 -14 q 390 -8 355 -14 q 447 7 426 -2 l 447 93 q 394 84 429 88 q 335 79 360 79 q 251 114 276 79 q 227 218 227 148 l 227 743 m 6 945 q 24 894 6 911 q 67 878 42 878 q 112 894 93 878 q 130 945 130 911 q 112 996 130 980 q 67 1011 93 1011 q 24 996 42 1011 q 6 945 6 980 m 264 945 q 282 894 264 911 q 326 878 300 878 q 369 894 351 878 q 388 945 388 911 q 369 996 388 980 q 326 1011 351 1011 q 282 996 300 1011 q 264 945 264 980 "},"ϋ":{"ha":846,"x_min":111,"x_max":771,"o":"m 425 -14 q 684 88 596 -14 q 771 406 771 190 q 762 573 771 500 q 728 743 752 646 l 615 743 q 648 575 638 651 q 657 411 657 499 q 603 160 657 241 q 435 79 548 79 q 277 145 331 79 q 224 342 224 212 l 224 743 l 111 743 l 111 336 q 190 71 111 156 q 425 -14 269 -14 m 248 945 q 266 894 248 911 q 309 878 284 878 q 354 894 335 878 q 372 945 372 911 q 354 996 372 980 q 309 1011 335 1011 q 266 996 284 1011 q 248 945 248 980 m 507 945 q 525 894 507 911 q 568 878 543 878 q 611 894 593 878 q 630 945 630 911 q 611 996 630 980 q 568 1011 593 1011 q 525 996 543 1011 q 507 945 507 980 "},"ό":{"ha":839,"x_min":78,"x_max":761,"o":"m 761 372 q 669 653 761 549 q 421 757 577 757 q 169 655 260 757 q 78 372 78 554 q 120 168 78 255 q 239 33 162 80 q 416 -14 317 -14 q 669 89 578 -14 q 761 372 761 191 m 195 372 q 251 589 195 516 q 418 661 307 661 q 587 588 530 661 q 644 372 644 514 q 587 155 644 229 q 419 81 530 81 q 252 155 309 81 q 195 372 195 230 m 367 861 l 367 842 l 435 842 q 505 974 468 893 q 554 1104 542 1054 l 554 1120 l 429 1120 q 403 987 421 1064 q 367 861 385 910 "},"ύ":{"ha":846,"x_min":111,"x_max":771,"o":"m 425 -14 q 684 88 596 -14 q 771 406 771 190 q 762 573 771 500 q 728 743 752 646 l 615 743 q 648 575 638 651 q 657 411 657 499 q 603 160 657 241 q 435 79 548 79 q 277 145 331 79 q 224 342 224 212 l 224 743 l 111 743 l 111 336 q 190 71 111 156 q 425 -14 269 -14 m 371 861 l 371 842 l 439 842 q 509 974 472 893 q 558 1104 546 1054 l 558 1120 l 433 1120 q 407 987 425 1064 q 371 861 389 910 "},"ώ":{"ha":1074,"x_min":78,"x_max":996,"o":"m 339 -14 q 533 110 489 -14 l 539 110 q 734 -14 585 -14 q 927 87 858 -14 q 996 359 996 189 q 976 555 996 466 q 913 743 957 644 l 796 743 q 862 549 843 637 q 880 358 880 460 q 840 154 880 227 q 726 81 799 81 q 627 128 663 81 q 591 262 591 176 l 591 473 l 482 473 l 482 262 q 447 129 482 178 q 347 81 411 81 q 234 154 275 81 q 193 358 193 227 q 213 551 193 465 q 278 743 232 637 l 161 743 q 97 552 115 640 q 78 359 78 465 q 147 87 78 187 q 339 -14 216 -14 m 481 861 l 481 842 l 549 842 q 619 974 582 893 q 668 1104 656 1054 l 668 1120 l 543 1120 q 517 987 535 1064 q 481 861 499 910 "},"Ё":{"ha":772,"x_min":136,"x_max":689,"o":"m 689 0 l 689 103 l 252 103 l 252 468 l 663 468 l 663 570 l 252 570 l 252 889 l 689 889 l 689 991 l 136 991 l 136 0 l 689 0 m 236 1174 q 254 1123 236 1140 q 297 1107 272 1107 q 341 1123 323 1107 q 360 1174 360 1140 q 341 1225 360 1209 q 297 1240 323 1240 q 254 1225 272 1240 q 236 1174 236 1209 m 494 1174 q 512 1123 494 1140 q 555 1107 530 1107 q 599 1123 581 1107 q 618 1174 618 1140 q 599 1225 618 1209 q 555 1240 581 1240 q 512 1225 530 1240 q 494 1174 494 1209 "},"Ђ":{"ha":1019,"x_min":12,"x_max":913,"o":"m 661 -14 q 846 58 780 -14 q 913 258 913 130 l 913 355 q 838 541 913 476 q 624 606 763 606 l 355 606 l 355 889 l 657 889 l 657 991 l 12 991 l 12 889 l 240 889 l 240 0 l 355 0 l 355 503 l 614 503 q 753 464 709 503 q 798 339 798 426 l 798 250 q 762 132 798 174 q 659 90 727 90 q 559 103 597 90 l 559 1 q 661 -14 596 -14 "},"Ѓ":{"ha":722,"x_min":136,"x_max":689,"o":"m 689 991 l 136 991 l 136 0 l 252 0 l 252 888 l 689 888 l 689 991 m 328 1088 l 328 1071 l 403 1071 q 505 1171 446 1106 q 594 1279 564 1235 l 594 1293 l 457 1293 q 398 1190 435 1249 q 328 1088 360 1130 "},"Є":{"ha":888,"x_min":85,"x_max":848,"o":"m 566 903 q 800 847 686 903 l 848 947 q 567 1007 728 1007 q 213 871 340 1007 q 85 497 85 735 q 203 118 85 250 q 547 -14 322 -14 q 810 25 701 -14 l 810 126 q 564 89 673 89 q 304 185 395 89 q 207 468 214 282 l 700 468 l 700 570 l 210 570 q 321 818 230 733 q 566 903 412 903 "},"Ѕ":{"ha":762,"x_min":72,"x_max":696,"o":"m 696 264 q 637 429 696 366 q 422 549 578 493 q 284 609 330 582 q 220 670 239 637 q 201 754 201 703 q 253 863 201 824 q 396 903 304 903 q 635 851 512 903 l 671 951 q 399 1006 547 1006 q 171 938 257 1006 q 85 755 85 870 q 144 578 85 646 q 342 461 203 511 q 489 398 441 426 q 558 337 538 370 q 579 253 579 304 q 521 131 579 175 q 347 87 463 87 q 205 102 277 87 q 72 143 133 117 l 72 32 q 343 -14 167 -14 q 601 60 506 -14 q 696 264 696 133 "},"Ј":{"ha":371,"x_min":-109,"x_max":244,"o":"m -8 -261 q 179 -190 114 -261 q 244 9 244 -119 l 244 991 l 129 991 l 129 0 q 94 -117 129 -77 q -8 -158 59 -158 q -109 -144 -60 -158 l -109 -243 q -8 -261 -72 -261 "},"Љ":{"ha":1291,"x_min":0,"x_max":1239,"o":"m 1239 289 q 852 568 1239 568 l 770 568 l 770 991 l 310 991 q 243 513 266 665 q 201 277 220 362 q 168 158 182 193 q 131 102 153 123 q 77 81 109 81 q 0 98 34 81 l 0 1 q 90 -16 43 -16 q 210 25 163 -16 q 284 152 257 66 q 340 414 311 237 q 407 889 368 591 l 654 889 l 654 0 l 876 0 q 1146 75 1053 0 q 1239 289 1239 149 m 770 100 l 770 467 l 839 467 q 1053 425 988 467 q 1118 289 1118 382 q 1056 147 1118 194 q 860 100 994 100 l 770 100 "},"Њ":{"ha":1324,"x_min":136,"x_max":1272,"o":"m 1272 289 q 886 568 1272 568 l 804 568 l 804 991 l 688 991 l 688 570 l 252 570 l 252 991 l 136 991 l 136 0 l 252 0 l 252 467 l 688 467 l 688 0 l 911 0 q 1180 75 1088 0 q 1272 289 1272 149 m 804 100 l 804 467 l 873 467 q 1087 424 1022 467 q 1153 289 1153 382 q 1090 147 1153 194 q 895 100 1027 100 l 804 100 "},"Ћ":{"ha":1019,"x_min":12,"x_max":913,"o":"m 355 606 l 355 889 l 700 889 l 700 991 l 12 991 l 12 889 l 240 889 l 240 0 l 355 0 l 355 503 l 618 503 q 755 464 713 503 q 798 340 798 426 l 798 0 l 913 0 l 913 355 q 839 542 913 478 q 627 606 766 606 l 355 606 "},"Ќ":{"ha":850,"x_min":136,"x_max":850,"o":"m 850 0 l 392 510 l 831 991 l 699 991 l 252 511 l 252 991 l 136 991 l 136 0 l 252 0 l 252 503 l 710 0 l 850 0 m 376 1088 l 376 1071 l 452 1071 q 554 1171 495 1106 q 643 1279 613 1235 l 643 1293 l 506 1293 q 447 1190 484 1249 q 376 1088 409 1130 "},"Ў":{"ha":863,"x_min":18,"x_max":863,"o":"m 199 -14 q 340 13 283 -14 q 443 98 397 40 q 546 282 489 155 l 863 991 l 741 991 l 497 435 q 471 363 490 420 l 465 363 q 439 428 456 395 l 146 991 l 18 991 l 404 253 q 314 124 359 159 q 195 90 269 90 q 66 119 130 90 l 66 7 q 199 -14 123 -14 m 442 1071 q 627 1121 567 1071 q 696 1279 688 1172 l 589 1279 q 548 1183 582 1213 q 445 1153 515 1153 q 337 1181 368 1153 q 300 1279 307 1208 l 195 1279 q 259 1119 201 1168 q 442 1071 317 1071 "},"Џ":{"ha":1013,"x_min":136,"x_max":876,"o":"m 876 0 l 876 991 l 761 991 l 761 104 l 252 104 l 252 991 l 136 991 l 136 0 l 441 0 l 441 -258 l 561 -258 l 561 0 l 876 0 "},"А":{"ha":879,"x_min":0,"x_max":879,"o":"m 760 0 l 879 0 l 489 996 l 392 996 l 0 0 l 117 0 l 239 315 l 636 315 l 760 0 m 600 419 l 279 419 l 396 726 q 439 869 424 804 q 485 726 463 785 l 600 419 "},"Б":{"ha":851,"x_min":136,"x_max":779,"o":"m 779 289 q 740 449 779 390 q 618 538 701 508 q 406 568 536 568 l 252 568 l 252 889 l 721 889 l 721 991 l 136 991 l 136 0 l 427 0 q 691 71 604 0 q 779 289 779 141 m 252 100 l 252 467 l 392 467 q 600 426 541 467 q 660 289 660 385 q 601 144 660 188 q 414 100 543 100 l 252 100 "},"В":{"ha":900,"x_min":136,"x_max":823,"o":"m 136 991 l 136 0 l 482 0 q 733 75 644 0 q 823 282 823 149 q 597 519 823 481 l 597 526 q 741 601 692 543 q 790 746 790 658 q 702 932 790 873 q 416 991 614 991 l 136 991 m 252 567 l 252 892 l 421 892 q 611 855 551 892 q 671 734 671 818 q 617 605 671 644 q 441 567 564 567 l 252 567 m 252 469 l 449 469 q 638 426 576 469 q 700 290 700 382 q 639 145 700 191 q 458 98 578 98 l 252 98 l 252 469 "},"Г":{"ha":722,"x_min":136,"x_max":689,"o":"m 689 991 l 136 991 l 136 0 l 252 0 l 252 888 l 689 888 l 689 991 "},"Д":{"ha":949,"x_min":9,"x_max":918,"o":"m 918 -258 l 918 104 l 793 104 l 793 991 l 347 991 q 265 532 339 783 q 86 104 191 280 l 9 104 l 9 -258 l 119 -258 l 119 0 l 808 0 l 808 -258 l 918 -258 m 677 104 l 207 104 q 370 493 300 263 q 452 888 439 724 l 677 888 l 677 104 "},"Е":{"ha":772,"x_min":136,"x_max":689,"o":"m 689 0 l 689 103 l 252 103 l 252 468 l 663 468 l 663 570 l 252 570 l 252 889 l 689 889 l 689 991 l 136 991 l 136 0 l 689 0 "},"Ж":{"ha":1173,"x_min":1,"x_max":1169,"o":"m 406 510 l 1 0 l 136 0 l 530 503 l 530 0 l 642 0 l 642 503 l 1036 0 l 1169 0 l 766 511 l 1157 991 l 1028 991 l 642 511 l 642 991 l 530 991 l 530 511 l 144 991 l 16 991 l 406 510 "},"З":{"ha":807,"x_min":50,"x_max":730,"o":"m 711 760 q 625 939 711 872 q 386 1006 538 1006 q 209 980 294 1006 q 56 903 124 954 l 113 825 q 252 892 192 876 q 387 909 313 909 q 535 866 480 909 q 590 750 590 823 q 514 611 590 661 q 298 561 437 561 l 157 561 l 157 464 l 304 464 q 532 417 456 464 q 608 279 608 370 q 539 133 608 184 q 336 82 471 82 q 191 99 267 82 q 50 147 115 116 l 50 40 q 334 -14 161 -14 q 627 64 523 -14 q 730 281 730 142 q 666 440 730 379 q 478 518 602 501 l 478 524 q 649 601 587 540 q 711 760 711 662 "},"И":{"ha":1059,"x_min":138,"x_max":924,"o":"m 138 991 l 138 0 l 264 0 l 821 832 l 827 832 q 815 546 815 682 l 815 0 l 924 0 l 924 991 l 798 991 l 241 164 l 236 164 q 245 440 245 288 l 245 991 l 138 991 "},"Й":{"ha":1059,"x_min":138,"x_max":924,"o":"m 138 991 l 138 0 l 264 0 l 821 832 l 827 832 q 815 546 815 682 l 815 0 l 924 0 l 924 991 l 798 991 l 241 164 l 236 164 q 245 440 245 288 l 245 991 l 138 991 m 549 1071 q 734 1121 673 1071 q 802 1279 794 1172 l 696 1279 q 655 1183 688 1213 q 551 1153 621 1153 q 444 1181 475 1153 q 407 1279 413 1208 l 301 1279 q 366 1119 308 1168 q 549 1071 423 1071 "},"К":{"ha":850,"x_min":136,"x_max":850,"o":"m 850 0 l 392 510 l 831 991 l 699 991 l 252 511 l 252 991 l 136 991 l 136 0 l 252 0 l 252 503 l 710 0 l 850 0 "},"Л":{"ha":978,"x_min":0,"x_max":842,"o":"m 842 0 l 842 991 l 309 991 q 239 489 271 693 q 187 213 208 286 q 139 110 166 140 q 77 81 113 81 q 0 98 37 81 l 0 1 q 90 -16 40 -16 q 227 42 176 -17 q 310 251 279 101 q 383 726 342 401 l 404 889 l 726 889 l 726 0 l 842 0 "},"М":{"ha":1254,"x_min":136,"x_max":1118,"o":"m 575 0 l 668 0 l 1007 878 l 1013 878 q 1003 639 1003 749 l 1003 0 l 1118 0 l 1118 991 l 946 991 l 629 174 l 624 174 l 310 991 l 136 991 l 136 0 l 243 0 l 243 631 q 233 879 243 774 l 239 879 l 575 0 "},"Н":{"ha":1025,"x_min":136,"x_max":889,"o":"m 889 0 l 889 991 l 774 991 l 774 570 l 252 570 l 252 991 l 136 991 l 136 0 l 252 0 l 252 467 l 774 467 l 774 0 l 889 0 "},"О":{"ha":1082,"x_min":85,"x_max":997,"o":"m 997 497 q 877 871 997 736 q 543 1007 757 1007 q 204 874 323 1007 q 85 498 85 741 q 204 120 85 254 q 542 -14 323 -14 q 877 123 756 -14 q 997 497 997 259 m 207 497 q 293 800 207 696 q 543 904 378 904 q 791 801 707 904 q 875 497 875 697 q 791 191 875 295 q 542 87 707 87 q 293 192 378 87 q 207 497 207 296 "},"П":{"ha":1013,"x_min":136,"x_max":876,"o":"m 876 0 l 876 991 l 136 991 l 136 0 l 252 0 l 252 889 l 761 889 l 761 0 l 876 0 "},"Р":{"ha":836,"x_min":136,"x_max":765,"o":"m 765 703 q 393 991 765 991 l 136 991 l 136 0 l 252 0 l 252 390 l 368 390 q 662 471 559 390 q 765 703 765 552 m 252 489 l 252 892 l 380 892 q 581 844 517 892 q 646 697 646 795 q 577 538 646 588 q 355 489 509 489 l 252 489 "},"С":{"ha":876,"x_min":85,"x_max":835,"o":"m 561 903 q 786 850 673 903 l 835 949 q 562 1006 718 1006 q 308 943 416 1006 q 142 766 199 881 q 85 497 85 650 q 204 119 85 252 q 542 -14 323 -14 q 796 25 693 -14 l 796 126 q 559 89 663 89 q 299 195 391 89 q 208 496 208 301 q 303 794 208 685 q 561 903 397 903 "},"Т":{"ha":768,"x_min":12,"x_max":755,"o":"m 441 0 l 441 889 l 755 889 l 755 991 l 12 991 l 12 889 l 326 889 l 326 0 l 441 0 "},"У":{"ha":863,"x_min":18,"x_max":863,"o":"m 199 -14 q 340 13 283 -14 q 443 98 397 40 q 546 282 489 155 l 863 991 l 741 991 l 497 435 q 471 363 490 420 l 465 363 q 439 428 456 395 l 146 991 l 18 991 l 404 253 q 314 124 359 159 q 195 90 269 90 q 66 119 130 90 l 66 7 q 199 -14 123 -14 "},"Ф":{"ha":1108,"x_min":72,"x_max":1036,"o":"m 496 1006 l 496 884 l 450 884 q 249 837 334 884 q 118 705 163 789 q 72 514 72 621 q 121 317 72 405 q 258 184 171 229 q 465 139 346 139 l 496 139 l 496 -14 l 612 -14 l 612 139 l 640 139 q 847 183 760 139 q 986 315 935 227 q 1036 515 1036 403 q 991 707 1036 623 q 861 838 946 791 q 660 884 776 884 l 612 884 l 612 1006 l 496 1006 m 612 236 l 612 785 l 652 785 q 847 713 777 785 q 917 517 917 642 q 841 310 917 385 q 629 236 766 236 l 612 236 m 496 785 l 496 236 l 479 236 q 267 310 342 236 q 192 517 192 383 q 263 713 192 641 q 457 785 334 785 l 496 785 "},"Х":{"ha":802,"x_min":5,"x_max":796,"o":"m 796 0 l 465 522 l 772 991 l 650 991 l 401 599 l 155 991 l 28 991 l 335 518 l 5 0 l 127 0 l 399 436 l 665 0 l 796 0 "},"Ц":{"ha":1023,"x_min":136,"x_max":993,"o":"m 876 104 l 876 991 l 761 991 l 761 104 l 252 104 l 252 991 l 136 991 l 136 0 l 884 0 l 884 -258 l 993 -258 l 993 104 l 876 104 "},"Ч":{"ha":965,"x_min":115,"x_max":829,"o":"m 829 0 l 829 991 l 714 991 l 714 507 q 539 460 600 470 q 414 450 479 450 q 274 490 317 450 q 231 611 231 529 l 231 991 l 115 991 l 115 597 q 191 412 115 476 q 407 347 267 347 q 546 360 479 347 q 714 410 613 374 l 714 0 l 829 0 "},"Ш":{"ha":1434,"x_min":136,"x_max":1297,"o":"m 1297 0 l 1297 991 l 1181 991 l 1181 104 l 774 104 l 774 991 l 659 991 l 659 104 l 252 104 l 252 991 l 136 991 l 136 0 l 1297 0 "},"Щ":{"ha":1435,"x_min":136,"x_max":1392,"o":"m 136 0 l 1282 0 l 1282 -258 l 1392 -258 l 1392 104 l 1275 104 l 1275 991 l 1160 991 l 1160 104 l 764 104 l 764 991 l 647 991 l 647 104 l 252 104 l 252 991 l 136 991 l 136 0 "},"Ъ":{"ha":956,"x_min":12,"x_max":884,"o":"m 884 289 q 791 499 884 429 q 521 568 698 568 l 355 568 l 355 991 l 12 991 l 12 889 l 240 889 l 240 0 l 539 0 q 796 75 708 0 q 884 289 884 149 m 355 100 l 355 467 l 507 467 q 704 424 645 467 q 764 289 764 381 q 706 147 764 194 q 526 100 649 100 l 355 100 "},"Ы":{"ha":1185,"x_min":136,"x_max":1048,"o":"m 136 0 l 432 0 q 689 75 601 0 q 777 289 777 149 q 684 499 777 429 q 414 568 591 568 l 252 568 l 252 991 l 136 991 l 136 0 m 252 98 l 252 465 l 400 465 q 596 424 536 465 q 657 289 657 382 q 600 146 657 194 q 419 98 542 98 l 252 98 m 1048 0 l 1048 991 l 933 991 l 933 0 l 1048 0 "},"Ь":{"ha":893,"x_min":136,"x_max":821,"o":"m 821 289 q 725 497 821 425 q 449 568 630 568 l 252 568 l 252 991 l 136 991 l 136 0 l 467 0 q 729 76 637 0 q 821 289 821 151 m 252 100 l 252 467 l 435 467 q 638 424 574 467 q 701 289 701 380 q 454 100 701 100 l 252 100 "},"Э":{"ha":875,"x_min":41,"x_max":787,"o":"m 317 903 q 557 815 465 903 q 664 572 649 728 l 178 572 l 178 469 l 665 469 q 566 187 660 285 q 289 89 473 89 q 163 100 222 89 q 49 126 105 112 l 49 25 q 309 -14 155 -14 q 664 123 541 -14 q 787 515 787 260 q 732 776 787 665 q 571 946 677 886 q 318 1006 465 1006 q 41 949 158 1006 l 90 851 q 317 903 200 903 "},"Ю":{"ha":1458,"x_min":136,"x_max":1372,"o":"m 1372 497 q 1256 871 1372 735 q 932 1007 1140 1007 q 623 894 737 1007 q 493 570 509 781 l 252 570 l 252 991 l 136 991 l 136 0 l 252 0 l 252 467 l 492 467 q 615 111 499 235 q 935 -14 730 -14 q 1256 122 1141 -14 q 1372 497 1372 257 m 612 497 q 694 801 612 697 q 933 904 775 904 q 1170 802 1090 904 q 1250 497 1250 699 q 1170 191 1250 295 q 930 87 1089 87 q 693 192 774 87 q 612 497 612 296 "},"Я":{"ha":884,"x_min":35,"x_max":747,"o":"m 431 414 l 632 414 l 632 0 l 747 0 l 747 991 l 475 991 q 196 920 288 991 q 104 715 104 848 q 154 538 104 608 q 313 433 203 468 l 35 0 l 171 0 l 431 414 m 632 892 l 632 513 l 482 513 q 225 710 225 513 q 290 849 225 806 q 478 892 354 892 l 632 892 "},"а":{"ha":772,"x_min":64,"x_max":660,"o":"m 576 0 l 660 0 l 660 507 q 596 696 660 637 q 399 755 532 755 q 268 739 333 755 q 147 692 202 722 l 182 606 q 392 663 299 663 q 512 621 475 663 q 550 492 550 579 l 550 446 l 424 441 q 64 205 64 431 q 126 43 64 100 q 300 -14 189 -14 q 438 11 382 -14 q 549 106 493 36 l 554 106 l 576 0 m 322 79 q 219 111 256 79 q 182 204 182 143 q 241 319 182 282 q 435 361 300 356 l 547 366 l 547 298 q 487 137 547 195 q 322 79 427 79 "},"б":{"ha":828,"x_min":81,"x_max":751,"o":"m 81 446 q 170 106 81 227 q 415 -14 258 -14 q 663 84 574 -14 q 751 357 751 182 q 675 603 751 514 q 461 692 598 692 q 322 659 389 692 q 214 570 256 627 l 205 570 q 259 797 210 713 q 407 903 309 880 q 743 965 508 926 l 722 1064 q 380 997 574 1038 q 153 826 224 963 q 81 446 81 690 m 425 81 q 252 174 309 81 q 196 446 196 267 q 257 518 218 483 q 345 575 297 553 q 444 596 393 596 q 632 345 632 596 q 425 81 632 81 "},"в":{"ha":790,"x_min":119,"x_max":746,"o":"m 722 557 q 446 743 722 743 l 119 743 l 119 0 l 447 0 q 670 56 593 0 q 746 216 746 113 q 702 334 746 292 q 564 390 659 377 l 564 396 q 681 447 639 409 q 722 557 722 484 m 633 224 q 439 94 633 94 l 232 94 l 232 339 l 436 339 q 588 312 542 339 q 633 224 633 284 m 612 546 q 570 462 612 488 q 422 436 527 436 l 232 436 l 232 646 l 444 646 q 571 623 529 646 q 612 546 612 600 "},"г":{"ha":595,"x_min":119,"x_max":567,"o":"m 567 647 l 567 743 l 119 743 l 119 0 l 232 0 l 232 647 l 567 647 "},"д":{"ha":794,"x_min":28,"x_max":765,"o":"m 765 -257 l 765 97 l 659 97 l 659 743 l 282 743 q 229 387 280 553 q 86 97 177 220 l 28 97 l 28 -257 l 136 -257 l 136 0 l 656 0 l 656 -257 l 765 -257 m 550 97 l 203 97 q 325 350 276 195 q 383 654 374 504 l 550 654 l 550 97 "},"е":{"ha":779,"x_min":78,"x_max":707,"o":"m 433 -14 q 562 -2 509 -14 q 675 35 615 9 l 675 135 q 437 85 557 85 q 261 153 323 85 q 195 351 198 220 l 707 351 l 707 422 q 625 665 707 573 q 404 757 544 757 q 166 651 255 757 q 78 366 78 545 q 173 87 78 187 q 433 -14 269 -14 m 403 663 q 538 606 491 663 q 586 443 586 549 l 197 443 q 260 604 207 546 q 403 663 313 663 "},"ж":{"ha":1022,"x_min":3,"x_max":1019,"o":"m 458 742 l 458 382 l 153 742 l 29 742 l 339 382 l 3 0 l 132 0 l 458 376 l 458 0 l 562 0 l 562 376 l 889 0 l 1019 0 l 682 382 l 993 742 l 869 742 l 562 382 l 562 742 l 458 742 "},"з":{"ha":671,"x_min":46,"x_max":607,"o":"m 261 435 l 180 435 l 180 339 l 283 339 q 494 210 494 339 q 445 113 494 146 q 297 79 395 79 q 46 138 170 79 l 46 35 q 294 -14 134 -14 q 524 44 441 -14 q 607 204 607 101 q 568 320 607 274 q 443 392 528 367 l 443 397 q 582 561 582 436 q 508 704 582 652 q 306 757 434 757 q 54 705 170 757 l 94 614 q 206 652 163 642 q 301 661 249 661 q 472 551 472 661 q 261 435 472 435 "},"и":{"ha":880,"x_min":119,"x_max":761,"o":"m 225 743 l 119 743 l 119 0 l 260 0 l 661 632 l 658 544 l 656 454 l 656 0 l 761 0 l 761 743 l 621 743 l 218 110 l 220 149 l 225 272 l 225 743 "},"й":{"ha":880,"x_min":119,"x_max":761,"o":"m 225 743 l 119 743 l 119 0 l 260 0 l 661 632 l 658 544 l 656 454 l 656 0 l 761 0 l 761 743 l 621 743 l 218 110 l 220 149 l 225 272 l 225 743 m 437 842 q 623 892 562 842 q 691 1050 683 943 l 585 1050 q 544 954 577 983 q 440 924 510 924 q 333 951 363 924 q 296 1050 302 979 l 190 1050 q 254 890 197 939 q 437 842 312 842 "},"к":{"ha":721,"x_min":119,"x_max":703,"o":"m 553 743 l 232 382 l 232 743 l 119 743 l 119 0 l 232 0 l 232 376 l 571 0 l 703 0 l 355 385 l 676 743 l 553 743 "},"л":{"ha":793,"x_min":11,"x_max":673,"o":"m 673 0 l 673 743 l 239 743 q 169 243 215 408 q 45 78 123 78 q 11 82 26 78 l 11 -1 q 69 -9 33 -9 q 201 56 149 -9 q 286 264 253 122 q 336 647 318 406 l 559 647 l 559 0 l 673 0 "},"м":{"ha":1021,"x_min":119,"x_max":900,"o":"m 505 109 q 452 271 481 196 l 257 742 l 119 742 l 119 0 l 220 0 l 220 614 q 269 472 233 563 l 461 0 l 555 0 l 747 471 l 787 574 l 800 614 l 800 0 l 900 0 l 900 742 l 757 742 l 555 252 l 526 172 l 505 109 "},"н":{"ha":880,"x_min":119,"x_max":761,"o":"m 232 743 l 119 743 l 119 0 l 232 0 l 232 335 l 648 335 l 648 0 l 761 0 l 761 743 l 648 743 l 648 432 l 232 432 l 232 743 "},"о":{"ha":839,"x_min":78,"x_max":761,"o":"m 761 372 q 669 653 761 549 q 421 757 577 757 q 169 655 260 757 q 78 372 78 554 q 120 168 78 255 q 239 33 162 80 q 416 -14 317 -14 q 669 89 578 -14 q 761 372 761 191 m 195 372 q 251 589 195 516 q 418 661 307 661 q 587 588 530 661 q 644 372 644 514 q 587 155 644 229 q 419 81 530 81 q 252 155 309 81 q 195 372 195 230 "},"п":{"ha":863,"x_min":119,"x_max":743,"o":"m 232 0 l 232 646 l 629 646 l 629 0 l 743 0 l 743 743 l 119 743 l 119 0 l 232 0 "},"р":{"ha":851,"x_min":119,"x_max":774,"o":"m 465 -14 q 692 88 610 -14 q 774 372 774 189 q 693 656 774 555 q 465 757 613 757 q 333 730 391 757 q 232 642 275 703 l 227 642 l 211 743 l 119 743 l 119 -334 l 232 -334 l 232 -28 q 224 96 232 31 l 232 96 q 333 13 273 40 q 465 -14 393 -14 m 449 661 q 603 587 548 661 q 657 374 657 513 q 603 159 657 237 q 452 81 548 81 q 284 148 336 81 q 232 372 232 216 l 232 397 q 284 598 233 535 q 449 661 335 661 "},"с":{"ha":661,"x_min":78,"x_max":615,"o":"m 416 -14 q 604 25 530 -14 l 604 125 q 414 85 507 85 q 250 158 305 85 q 195 368 195 231 q 421 657 195 657 q 499 647 455 657 q 581 623 543 637 l 615 718 q 531 745 585 734 q 424 757 477 757 q 168 655 258 757 q 78 367 78 553 q 166 86 78 185 q 416 -14 255 -14 "},"т":{"ha":648,"x_min":28,"x_max":621,"o":"m 621 647 l 621 743 l 28 743 l 28 647 l 267 647 l 267 0 l 379 0 l 379 647 l 621 647 "},"у":{"ha":700,"x_min":1,"x_max":699,"o":"m 1 743 l 301 -4 l 260 -110 q 94 -240 210 -240 q 11 -232 48 -240 l 11 -322 q 113 -334 61 -334 q 268 -281 205 -334 q 379 -103 332 -229 l 699 743 l 578 743 q 394 228 422 312 q 357 110 366 144 l 351 110 q 285 319 338 174 l 122 743 l 1 743 "},"ф":{"ha":993,"x_min":77,"x_max":916,"o":"m 916 372 q 819 637 916 535 q 551 754 722 739 l 551 1055 l 444 1055 l 444 754 q 174 641 271 741 q 77 372 77 541 q 174 104 77 207 q 440 -11 272 2 l 440 -334 l 551 -334 l 551 -11 q 820 103 724 3 q 916 372 916 203 m 195 372 q 257 578 195 508 q 444 660 319 648 l 444 82 q 254 168 314 94 q 195 372 195 242 m 799 372 q 740 169 799 243 q 551 82 680 95 l 551 659 q 799 372 799 632 "},"х":{"ha":728,"x_min":26,"x_max":700,"o":"m 298 380 l 26 0 l 154 0 l 364 301 l 572 0 l 700 0 l 428 380 l 686 743 l 559 743 l 364 458 l 168 743 l 40 743 l 298 380 "},"ц":{"ha":869,"x_min":119,"x_max":844,"o":"m 844 -257 l 844 97 l 739 97 l 739 743 l 627 743 l 627 97 l 232 97 l 232 743 l 119 743 l 119 0 l 732 0 l 732 -257 l 844 -257 "},"ч":{"ha":844,"x_min":106,"x_max":725,"o":"m 218 743 l 106 743 l 106 464 q 169 306 106 364 q 343 248 232 248 q 480 268 420 248 q 612 336 541 288 l 612 0 l 725 0 l 725 743 l 612 743 l 612 425 q 485 361 541 380 q 367 342 429 342 q 218 472 218 342 l 218 743 "},"ш":{"ha":1236,"x_min":119,"x_max":1117,"o":"m 673 97 l 673 743 l 561 743 l 561 97 l 232 97 l 232 743 l 119 743 l 119 0 l 1117 0 l 1117 743 l 1003 743 l 1003 97 l 673 97 "},"щ":{"ha":1246,"x_min":119,"x_max":1222,"o":"m 673 97 l 673 742 l 561 742 l 561 97 l 232 97 l 232 742 l 119 742 l 119 0 l 1108 0 l 1108 -256 l 1222 -256 l 1222 97 l 1116 97 l 1116 742 l 1003 742 l 1003 97 l 673 97 "},"ъ":{"ha":965,"x_min":28,"x_max":888,"o":"m 378 436 l 378 743 l 28 743 l 28 647 l 265 647 l 265 0 l 587 0 q 812 57 736 0 q 888 227 888 114 q 815 384 888 332 q 590 436 742 436 l 378 436 m 777 220 q 590 94 777 94 l 378 94 l 378 339 l 586 339 q 734 311 692 339 q 777 220 777 283 "},"ы":{"ha":1069,"x_min":119,"x_max":950,"o":"m 232 436 l 232 743 l 119 743 l 119 0 l 428 0 q 641 57 568 0 q 713 227 713 115 q 645 384 713 331 q 435 436 576 436 l 232 436 m 950 0 l 950 743 l 838 743 l 838 0 l 950 0 m 232 339 l 419 339 q 560 311 519 339 q 602 220 602 282 q 422 94 602 94 l 232 94 l 232 339 "},"ь":{"ha":822,"x_min":119,"x_max":746,"o":"m 232 436 l 232 743 l 119 743 l 119 0 l 454 0 q 672 58 597 0 q 746 227 746 117 q 461 436 746 436 l 232 436 m 232 339 l 446 339 q 590 310 546 339 q 633 220 633 281 q 586 125 633 157 q 449 94 538 94 l 232 94 l 232 339 "},"э":{"ha":684,"x_min":39,"x_max":606,"o":"m 232 -14 q 508 87 410 -14 q 606 371 606 189 q 515 657 606 558 q 252 757 425 757 q 142 745 197 757 q 49 715 86 733 l 81 621 q 253 657 183 657 q 419 603 362 657 q 488 432 477 549 l 113 432 l 113 336 l 489 336 q 418 148 482 211 q 236 85 354 85 q 127 97 174 85 q 39 125 79 109 l 39 25 q 232 -14 119 -14 "},"ю":{"ha":1154,"x_min":119,"x_max":1076,"o":"m 1076 372 q 989 653 1076 550 q 753 757 902 757 q 527 672 612 757 q 428 432 441 587 l 232 432 l 232 743 l 119 743 l 119 0 l 232 0 l 232 335 l 427 335 q 521 77 436 168 q 750 -14 606 -14 q 989 88 902 -14 q 1076 372 1076 190 m 543 372 q 593 588 543 515 q 751 661 642 661 q 910 588 861 661 q 960 372 960 515 q 909 153 960 225 q 751 81 859 81 q 593 155 642 81 q 543 372 543 229 "},"я":{"ha":771,"x_min":25,"x_max":652,"o":"m 157 0 l 351 297 l 539 297 l 539 0 l 652 0 l 652 743 l 321 743 q 130 685 198 743 q 61 525 61 627 q 107 388 61 442 q 239 314 153 333 l 25 0 l 157 0 m 171 524 q 335 646 171 646 l 539 646 l 539 395 l 358 395 q 171 524 171 395 "},"ё":{"ha":779,"x_min":78,"x_max":707,"o":"m 433 -14 q 562 -2 509 -14 q 675 35 615 9 l 675 135 q 437 85 557 85 q 261 153 323 85 q 195 351 198 220 l 707 351 l 707 422 q 625 665 707 573 q 404 757 544 757 q 166 651 255 757 q 78 366 78 545 q 173 87 78 187 q 433 -14 269 -14 m 403 663 q 538 606 491 663 q 586 443 586 549 l 197 443 q 260 604 207 546 q 403 663 313 663 m 215 945 q 233 894 215 911 q 276 878 251 878 q 320 894 302 878 q 339 945 339 911 q 320 996 339 980 q 276 1011 302 1011 q 233 996 251 1011 q 215 945 215 980 m 473 945 q 491 894 473 911 q 534 878 509 878 q 578 894 559 878 q 597 945 597 911 q 578 996 597 980 q 534 1011 559 1011 q 491 996 509 1011 q 473 945 473 980 "},"ђ":{"ha":852,"x_min":14,"x_max":741,"o":"m 553 -334 q 694 -276 648 -334 q 741 -113 741 -218 l 741 458 q 672 666 741 601 q 468 730 604 730 q 328 700 389 730 q 233 615 267 669 l 227 615 q 232 710 232 653 l 232 843 l 504 843 l 504 929 l 232 929 l 232 1055 l 119 1055 l 119 929 l 14 929 l 14 843 l 119 843 l 119 0 l 233 0 l 233 364 q 287 571 233 507 q 457 635 340 635 q 587 590 545 635 q 628 454 628 545 l 628 -122 q 541 -237 628 -237 q 464 -224 503 -237 l 464 -317 q 553 -334 499 -334 "},"ѓ":{"ha":595,"x_min":119,"x_max":567,"o":"m 567 647 l 567 743 l 119 743 l 119 0 l 232 0 l 232 647 l 567 647 m 256 859 l 256 842 l 332 842 q 434 941 375 877 q 523 1050 493 1006 l 523 1064 l 386 1064 q 327 960 364 1020 q 256 859 289 901 "},"є":{"ha":684,"x_min":78,"x_max":636,"o":"m 429 -14 q 625 25 547 -14 l 625 125 q 428 85 523 85 q 257 146 315 85 q 193 336 199 208 l 570 336 l 570 432 l 195 432 q 263 602 205 547 q 432 657 321 657 q 603 623 506 657 l 636 718 q 544 746 597 735 q 435 757 490 757 q 171 656 264 757 q 78 368 78 555 q 170 85 78 184 q 429 -14 261 -14 "},"ѕ":{"ha":663,"x_min":72,"x_max":599,"o":"m 599 203 q 552 326 599 277 q 374 422 506 374 q 243 477 277 458 q 194 517 210 496 q 179 568 179 538 q 220 637 179 612 q 340 663 260 663 q 543 616 431 663 l 583 708 q 349 757 469 757 q 146 704 220 757 q 72 561 72 652 q 93 473 72 510 q 158 408 115 437 q 306 340 202 379 q 453 268 415 298 q 490 193 490 237 q 443 107 490 136 q 307 79 395 79 q 189 95 250 79 q 74 138 127 111 l 74 33 q 304 -14 157 -14 q 522 43 444 -14 q 599 203 599 99 "},"і":{"ha":351,"x_min":110,"x_max":243,"o":"m 232 0 l 232 743 l 119 743 l 119 0 l 232 0 m 110 945 q 129 888 110 907 q 176 869 148 869 q 223 888 203 869 q 243 945 243 907 q 223 1001 243 983 q 176 1019 203 1019 q 129 1001 148 1019 q 110 945 110 983 "},"ї":{"ha":351,"x_min":-14,"x_max":368,"o":"m 232 0 l 232 743 l 119 743 l 119 0 l 232 0 m -14 945 q 4 894 -14 911 q 47 878 22 878 q 92 894 73 878 q 111 945 111 911 q 92 996 111 980 q 47 1011 73 1011 q 4 996 22 1011 q -14 945 -14 980 m 245 945 q 263 894 245 911 q 306 878 281 878 q 350 894 331 878 q 368 945 368 911 q 350 996 368 980 q 306 1011 331 1011 q 263 996 281 1011 q 245 945 245 980 "},"ј":{"ha":351,"x_min":-75,"x_max":243,"o":"m 29 -334 q 232 -114 232 -334 l 232 743 l 119 743 l 119 -122 q 95 -210 119 -181 q 17 -239 70 -239 q -75 -225 -28 -239 l -75 -317 q 29 -334 -35 -334 m 110 945 q 129 888 110 907 q 176 869 148 869 q 223 888 203 869 q 243 945 243 907 q 223 1001 243 983 q 176 1019 203 1019 q 129 1001 148 1019 q 110 945 110 983 "},"љ":{"ha":1162,"x_min":11,"x_max":1086,"o":"m 640 436 l 640 743 l 239 743 q 169 243 215 408 q 45 78 123 78 q 11 82 26 78 l 11 -1 q 71 -9 33 -9 q 248 143 186 -9 q 336 647 309 296 l 511 647 l 511 0 l 790 0 q 1086 227 1086 0 q 1018 384 1086 331 q 806 436 949 436 l 640 436 m 974 220 q 786 94 974 94 l 625 94 l 625 339 l 782 339 q 931 310 889 339 q 974 220 974 281 "},"њ":{"ha":1231,"x_min":119,"x_max":1153,"o":"m 694 742 l 579 742 l 579 432 l 236 432 l 236 742 l 119 742 l 119 0 l 236 0 l 236 335 l 576 335 l 576 0 l 859 0 q 1153 227 1153 0 q 1084 383 1153 331 q 868 435 1015 435 l 694 435 l 694 742 m 692 339 l 851 339 q 998 311 955 339 q 1042 220 1042 282 q 854 94 1042 94 l 692 94 l 692 339 "},"ћ":{"ha":852,"x_min":14,"x_max":741,"o":"m 628 0 l 741 0 l 741 458 q 672 666 741 601 q 468 730 604 730 q 328 700 389 730 q 233 615 267 669 l 227 615 q 232 710 232 653 l 232 843 l 536 843 l 536 929 l 232 929 l 232 1055 l 119 1055 l 119 929 l 14 929 l 14 843 l 119 843 l 119 0 l 232 0 l 232 364 q 286 572 232 509 q 457 635 339 635 q 587 590 545 635 q 628 454 628 545 l 628 0 "},"ќ":{"ha":721,"x_min":119,"x_max":703,"o":"m 553 743 l 232 382 l 232 743 l 119 743 l 119 0 l 232 0 l 232 376 l 571 0 l 703 0 l 355 385 l 676 743 l 553 743 m 301 859 l 301 842 l 376 842 q 479 941 420 877 q 568 1050 538 1006 l 568 1064 l 431 1064 q 371 960 409 1020 q 301 859 334 901 "},"ў":{"ha":700,"x_min":1,"x_max":699,"o":"m 1 743 l 301 -4 l 260 -110 q 94 -240 210 -240 q 11 -232 48 -240 l 11 -322 q 113 -334 61 -334 q 268 -281 205 -334 q 379 -103 332 -229 l 699 743 l 578 743 q 394 228 422 312 q 357 110 366 144 l 351 110 q 285 319 338 174 l 122 743 l 1 743 m 347 842 q 532 892 471 842 q 600 1050 592 943 l 494 1050 q 453 954 486 983 q 349 924 419 924 q 242 951 273 924 q 205 1050 211 979 l 99 1050 q 163 890 106 939 q 347 842 221 842 "},"џ":{"ha":863,"x_min":119,"x_max":742,"o":"m 379 0 l 379 -256 l 492 -256 l 492 0 l 742 0 l 742 742 l 629 742 l 629 97 l 232 97 l 232 742 l 119 742 l 119 0 l 379 0 "},"Ґ":{"ha":732,"x_min":136,"x_max":700,"o":"m 590 991 l 136 991 l 136 0 l 252 0 l 252 888 l 700 888 l 700 1196 l 590 1196 l 590 991 "},"ґ":{"ha":595,"x_min":119,"x_max":567,"o":"m 567 656 l 567 961 l 454 961 l 454 743 l 119 743 l 119 0 l 232 0 l 232 656 l 567 656 "},"Ẁ":{"ha":1286,"x_min":18,"x_max":1267,"o":"m 1002 0 l 1267 991 l 1145 991 l 989 380 q 940 146 953 242 q 885 383 918 278 l 699 991 l 576 991 l 399 389 q 345 146 363 270 q 297 379 330 250 l 140 991 l 18 991 l 282 0 l 396 0 l 590 660 q 637 856 623 766 q 656 775 638 842 q 688 664 673 708 l 888 0 l 1002 0 m 722 1071 l 722 1088 q 654 1185 692 1124 q 593 1293 615 1246 l 456 1293 l 456 1279 q 543 1171 483 1236 q 648 1071 604 1106 l 722 1071 "},"ẁ":{"ha":1080,"x_min":16,"x_max":1065,"o":"m 726 0 l 860 0 l 1065 743 l 949 743 q 807 196 819 247 q 793 121 795 145 l 787 121 q 736 317 774 200 l 603 743 l 481 743 l 345 317 q 316 219 332 281 q 292 119 299 158 l 286 119 q 243 317 281 170 q 134 743 205 463 l 16 743 l 218 0 l 349 0 l 489 435 q 536 618 509 499 l 542 618 q 590 436 577 476 l 726 0 m 611 842 l 611 859 q 543 956 581 895 q 482 1064 504 1017 l 345 1064 l 345 1050 q 432 942 372 1007 q 536 842 492 877 l 611 842 "},"Ẃ":{"ha":1286,"x_min":18,"x_max":1267,"o":"m 1002 0 l 1267 991 l 1145 991 l 989 380 q 940 146 953 242 q 885 383 918 278 l 699 991 l 576 991 l 399 389 q 345 146 363 270 q 297 379 330 250 l 140 991 l 18 991 l 282 0 l 396 0 l 590 660 q 637 856 623 766 q 656 775 638 842 q 688 664 673 708 l 888 0 l 1002 0 m 559 1088 l 559 1071 l 635 1071 q 737 1171 678 1106 q 826 1279 796 1235 l 826 1293 l 689 1293 q 630 1190 667 1249 q 559 1088 592 1130 "},"ẃ":{"ha":1080,"x_min":16,"x_max":1065,"o":"m 726 0 l 860 0 l 1065 743 l 949 743 q 807 196 819 247 q 793 121 795 145 l 787 121 q 736 317 774 200 l 603 743 l 481 743 l 345 317 q 316 219 332 281 q 292 119 299 158 l 286 119 q 243 317 281 170 q 134 743 205 463 l 16 743 l 218 0 l 349 0 l 489 435 q 536 618 509 499 l 542 618 q 590 436 577 476 l 726 0 m 458 859 l 458 842 l 534 842 q 636 941 577 877 q 725 1050 695 1006 l 725 1064 l 588 1064 q 529 960 566 1020 q 458 859 491 901 "},"Ẅ":{"ha":1286,"x_min":18,"x_max":1267,"o":"m 1002 0 l 1267 991 l 1145 991 l 989 380 q 940 146 953 242 q 885 383 918 278 l 699 991 l 576 991 l 399 389 q 345 146 363 270 q 297 379 330 250 l 140 991 l 18 991 l 282 0 l 396 0 l 590 660 q 637 856 623 766 q 656 775 638 842 q 688 664 673 708 l 888 0 l 1002 0 m 451 1174 q 469 1123 451 1140 q 512 1107 487 1107 q 556 1123 538 1107 q 575 1174 575 1140 q 556 1225 575 1209 q 512 1240 538 1240 q 469 1225 487 1240 q 451 1174 451 1209 m 709 1174 q 727 1123 709 1140 q 770 1107 745 1107 q 814 1123 795 1107 q 833 1174 833 1140 q 814 1225 833 1209 q 770 1240 795 1240 q 727 1225 745 1240 q 709 1174 709 1209 "},"ẅ":{"ha":1080,"x_min":16,"x_max":1065,"o":"m 726 0 l 860 0 l 1065 743 l 949 743 q 807 196 819 247 q 793 121 795 145 l 787 121 q 736 317 774 200 l 603 743 l 481 743 l 345 317 q 316 219 332 281 q 292 119 299 158 l 286 119 q 243 317 281 170 q 134 743 205 463 l 16 743 l 218 0 l 349 0 l 489 435 q 536 618 509 499 l 542 618 q 590 436 577 476 l 726 0 m 350 945 q 368 894 350 911 q 411 878 386 878 q 455 894 437 878 q 474 945 474 911 q 455 996 474 980 q 411 1011 437 1011 q 368 996 386 1011 q 350 945 350 980 m 608 945 q 626 894 608 911 q 669 878 644 878 q 713 894 694 878 q 732 945 732 911 q 713 996 732 980 q 669 1011 694 1011 q 626 996 644 1011 q 608 945 608 980 "},"Ỳ":{"ha":778,"x_min":0,"x_max":778,"o":"m 389 496 l 126 991 l 0 991 l 330 379 l 330 0 l 447 0 l 447 385 l 778 991 l 653 991 l 389 496 m 460 1071 l 460 1088 q 391 1185 430 1124 q 331 1293 353 1246 l 193 1293 l 193 1279 q 281 1171 220 1236 q 385 1071 341 1106 l 460 1071 "},"ỳ":{"ha":700,"x_min":1,"x_max":699,"o":"m 1 743 l 301 -4 l 260 -110 q 94 -240 210 -240 q 11 -232 48 -240 l 11 -322 q 113 -334 61 -334 q 268 -281 205 -334 q 379 -103 332 -229 l 699 743 l 578 743 q 394 228 422 312 q 357 110 366 144 l 351 110 q 285 319 338 174 l 122 743 l 1 743 m 425 842 l 425 859 q 357 956 395 895 q 296 1064 318 1017 l 159 1064 l 159 1050 q 246 942 186 1007 q 351 842 307 877 l 425 842 "},"–":{"ha":694,"x_min":56,"x_max":639,"o":"m 56 321 l 639 321 l 639 424 l 56 424 l 56 321 "},"—":{"ha":1389,"x_min":56,"x_max":1333,"o":"m 56 321 l 1333 321 l 1333 424 l 56 424 l 56 321 "},"―":{"ha":1389,"x_min":56,"x_max":1333,"o":"m 56 321 l 1333 321 l 1333 424 l 56 424 l 56 321 "},"‗":{"ha":571,"x_min":-3,"x_max":574,"o":"m 574 -314 l 574 -220 l -3 -220 l -3 -314 l 574 -314 m 574 -125 l 574 -31 l -3 -31 l -3 -125 l 574 -125 "},"‘":{"ha":236,"x_min":17,"x_max":220,"o":"m 25 652 l 150 652 q 220 991 175 819 l 136 991 q 65 819 98 909 q 17 667 32 728 l 25 652 "},"’":{"ha":236,"x_min":17,"x_max":220,"o":"m 210 991 l 86 991 q 17 652 64 845 l 100 652 q 169 819 136 729 q 220 977 202 909 l 210 991 "},"‚":{"ha":340,"x_min":43,"x_max":248,"o":"m 237 161 l 114 161 q 83 -5 105 99 q 43 -179 61 -109 l 127 -179 q 197 -12 163 -102 q 248 146 230 78 l 237 161 "},"‛":{"ha":236,"x_min":17,"x_max":221,"o":"m 151 991 l 26 991 l 17 977 q 70 812 33 908 q 138 652 107 715 l 221 652 q 151 991 176 821 "},"“":{"ha":486,"x_min":17,"x_max":469,"o":"m 275 652 l 400 652 q 429 815 409 718 q 469 991 449 913 l 386 991 q 265 667 303 812 l 275 652 m 25 652 l 150 652 q 220 991 175 819 l 136 991 q 65 819 98 909 q 17 667 32 728 l 25 652 "},"”":{"ha":486,"x_min":17,"x_max":469,"o":"m 210 991 l 86 991 q 17 652 64 845 l 100 652 q 169 819 136 729 q 220 977 202 909 l 210 991 m 460 991 l 336 991 q 305 824 328 928 q 265 652 283 720 l 350 652 q 420 825 388 734 q 469 977 453 915 l 460 991 "},"„":{"ha":562,"x_min":17,"x_max":469,"o":"m 210 161 l 86 161 q 17 -178 64 15 l 100 -178 q 169 -11 136 -101 q 220 146 202 79 l 210 161 m 460 161 l 336 161 q 305 -6 328 98 q 265 -178 283 -111 l 350 -178 q 420 -5 388 -96 q 469 146 453 85 l 460 161 "},"†":{"ha":697,"x_min":83,"x_max":614,"o":"m 614 677 l 614 793 l 375 772 l 408 1055 l 275 1055 l 309 772 l 83 793 l 83 677 l 309 699 l 275 0 l 408 0 l 375 699 l 614 677 "},"‡":{"ha":708,"x_min":83,"x_max":625,"o":"m 386 330 l 415 533 l 386 725 l 625 704 l 625 818 l 386 798 l 419 1055 l 285 1055 l 318 798 l 83 818 l 83 704 l 318 725 l 289 533 l 318 330 l 83 351 l 83 237 l 318 257 l 285 0 l 419 0 l 386 257 l 625 237 l 625 351 l 386 330 "},"•":{"ha":522,"x_min":111,"x_max":411,"o":"m 111 507 q 150 384 111 428 q 261 339 189 339 q 372 383 333 339 q 411 507 411 427 q 372 633 411 591 q 261 675 332 675 q 150 632 188 675 q 111 507 111 589 "},"…":{"ha":1089,"x_min":103,"x_max":986,"o":"m 103 72 q 126 2 103 23 q 183 -20 149 -20 q 244 4 222 -20 q 267 72 267 28 q 244 141 267 117 q 183 164 222 164 q 124 141 144 164 q 103 72 103 117 m 463 72 q 485 2 463 23 q 543 -20 508 -20 q 604 4 581 -20 q 626 72 626 28 q 604 141 626 117 q 543 164 582 164 q 483 141 504 164 q 463 72 463 117 m 823 72 q 845 2 823 23 q 903 -20 868 -20 q 964 4 941 -20 q 986 72 986 28 q 964 141 986 117 q 903 164 942 164 q 843 141 864 164 q 823 72 823 117 "},"‰":{"ha":1670,"x_min":68,"x_max":1603,"o":"m 160 696 q 188 868 160 811 q 279 925 216 925 q 401 696 401 925 q 279 465 401 465 q 188 523 216 465 q 160 696 160 581 m 494 696 q 438 924 494 843 q 279 1006 382 1006 q 68 696 68 1006 q 123 464 68 545 q 279 383 178 383 q 440 461 385 383 q 494 696 494 540 m 913 991 l 812 991 l 262 0 l 363 0 l 913 991 m 1268 298 q 1296 470 1268 414 q 1388 526 1324 526 q 1479 470 1449 526 q 1510 298 1510 414 q 1479 124 1510 181 q 1388 68 1449 68 q 1296 125 1324 68 q 1268 298 1268 182 m 1603 298 q 1546 528 1603 448 q 1388 608 1489 608 q 1177 298 1177 608 q 1232 67 1177 149 q 1388 -14 1287 -14 q 1548 64 1493 -14 q 1603 298 1603 142 m 772 298 q 800 470 772 414 q 890 526 827 526 q 982 470 952 526 q 1013 298 1013 414 q 982 124 1013 181 q 890 68 952 68 q 800 125 827 68 q 772 298 772 182 m 1105 298 q 1049 528 1105 448 q 890 608 992 608 q 679 298 679 608 q 734 67 679 148 q 890 -14 789 -14 q 1050 64 996 -14 q 1105 298 1105 142 "},"′":{"ha":307,"x_min":90,"x_max":216,"o":"m 216 991 l 90 991 l 118 633 l 189 633 l 216 991 "},"″":{"ha":546,"x_min":90,"x_max":467,"o":"m 216 991 l 90 991 l 118 633 l 189 633 l 216 991 m 467 991 l 340 991 l 368 633 l 439 633 l 467 991 "},"‹":{"ha":422,"x_min":56,"x_max":368,"o":"m 56 374 l 56 355 l 288 79 l 368 127 l 172 366 l 368 603 l 288 650 l 56 374 "},"›":{"ha":422,"x_min":54,"x_max":367,"o":"m 367 355 l 367 374 l 134 650 l 54 603 l 249 366 l 54 127 l 134 79 l 367 355 "},"‼":{"ha":675,"x_min":103,"x_max":571,"o":"m 221 273 l 256 991 l 115 991 l 150 273 l 221 273 m 103 72 q 126 2 103 23 q 184 -20 149 -20 q 245 4 223 -20 q 267 72 267 28 q 245 140 267 117 q 184 164 224 164 q 103 72 103 164 m 526 273 l 560 991 l 420 991 l 454 273 l 526 273 m 408 72 q 431 2 408 23 q 489 -20 454 -20 q 549 4 528 -20 q 571 72 571 28 q 550 140 571 117 q 489 164 528 164 q 408 72 408 164 "},"⁄":{"ha":180,"x_min":-265,"x_max":444,"o":"m 444 991 l 347 991 l -265 0 l -168 0 l 444 991 "},"ⁿ":{"ha":547,"x_min":74,"x_max":479,"o":"m 399 543 l 479 543 l 479 833 q 304 1003 479 1003 q 155 935 206 1003 l 149 935 l 139 994 l 74 994 l 74 543 l 153 543 l 153 779 q 183 898 153 862 q 292 933 214 933 q 372 909 346 933 q 399 828 399 885 l 399 543 "},"₣":{"ha":794,"x_min":66,"x_max":718,"o":"m 298 268 l 298 424 l 692 424 l 692 526 l 298 526 l 298 889 l 718 889 l 718 991 l 186 991 l 186 268 l 66 268 l 66 180 l 186 180 l 186 0 l 298 0 l 298 180 l 507 180 l 507 268 l 298 268 "},"₤":{"ha":794,"x_min":46,"x_max":743,"o":"m 467 1004 q 262 935 338 1004 q 186 745 186 865 l 186 604 l 50 604 l 50 517 l 186 517 l 186 404 l 50 404 l 50 317 l 186 317 l 186 293 q 46 96 186 128 l 46 0 l 743 0 l 743 104 l 204 104 q 276 180 254 134 q 298 294 298 227 l 298 317 l 583 317 l 583 404 l 298 404 l 298 517 l 583 517 l 583 604 l 298 604 l 298 730 q 341 864 298 818 q 467 909 384 909 q 669 861 566 909 l 710 950 q 467 1004 603 1004 "},"₧":{"ha":1060,"x_min":104,"x_max":1010,"o":"m 921 79 q 859 107 877 79 q 842 187 842 135 l 842 486 l 991 486 l 991 574 l 842 574 l 842 717 l 775 717 l 733 587 l 627 541 l 627 486 l 733 486 l 733 172 q 777 33 733 79 q 895 -14 821 -14 q 1010 7 969 -14 l 1010 92 q 973 84 1002 89 q 921 79 944 79 m 628 703 q 542 920 628 848 q 282 991 456 991 l 104 991 l 104 0 l 216 0 l 216 390 l 260 390 q 534 469 440 390 q 628 703 628 549 m 216 489 l 216 892 l 272 892 q 454 844 396 892 q 513 697 513 795 q 450 538 513 587 q 252 489 387 489 l 216 489 "},"€":{"ha":819,"x_min":43,"x_max":787,"o":"m 539 904 q 739 846 627 904 l 787 940 q 539 1006 675 1006 q 279 907 378 1006 q 154 631 180 808 l 43 631 l 43 543 l 146 543 l 144 489 l 144 459 l 146 431 l 43 431 l 43 343 l 155 343 q 284 78 186 169 q 543 -14 382 -14 q 758 31 659 -14 l 758 132 q 549 87 654 87 q 365 154 433 87 q 271 343 296 221 l 574 343 l 574 431 l 260 431 l 258 461 l 258 505 l 260 543 l 615 543 l 615 631 l 269 631 q 539 904 323 904 "},"℅":{"ha":1145,"x_min":96,"x_max":1048,"o":"m 889 991 l 789 991 l 239 0 l 339 0 l 889 991 m 1048 227 q 991 395 1048 332 q 838 458 933 458 q 681 396 737 458 q 624 227 624 334 q 682 57 624 120 q 833 -5 739 -5 q 991 57 934 -5 q 1048 227 1048 119 m 715 227 q 836 386 715 386 q 956 227 956 386 q 836 65 956 65 q 715 227 715 65 m 332 534 q 463 559 410 534 l 463 628 q 335 606 401 606 q 186 765 186 606 q 338 926 186 926 q 447 905 392 926 l 469 975 q 339 999 410 999 q 159 938 223 999 q 96 764 96 878 q 157 594 96 654 q 332 534 219 534 "},"ℓ":{"ha":722,"x_min":81,"x_max":627,"o":"m 432 75 q 345 117 372 75 q 317 229 317 159 l 317 421 q 505 574 435 471 q 575 803 575 677 q 529 951 575 897 q 404 1006 484 1006 q 262 952 313 1006 q 211 804 211 898 l 211 467 q 81 427 134 441 l 81 350 q 211 389 146 365 l 211 224 q 265 48 211 109 q 421 -14 319 -14 q 569 47 517 -14 q 627 220 621 107 l 562 220 q 432 75 550 75 m 490 799 q 317 503 490 595 l 317 799 q 338 901 317 872 q 404 930 359 930 q 490 799 490 930 "},"№":{"ha":1415,"x_min":136,"x_max":1348,"o":"m 829 0 l 829 991 l 726 991 l 726 422 q 736 163 726 329 l 730 163 l 268 991 l 136 991 l 136 0 l 239 0 l 239 564 q 228 832 239 637 l 233 832 l 703 0 l 829 0 m 1348 421 q 1293 591 1348 528 q 1143 654 1238 654 q 989 593 1044 654 q 935 421 935 532 q 989 249 935 313 q 1139 186 1044 186 q 1293 248 1238 186 q 1348 421 1348 311 m 1023 421 q 1051 537 1023 499 q 1141 575 1079 575 q 1230 537 1203 575 q 1257 421 1257 499 q 1230 303 1257 343 q 1141 264 1203 264 q 1051 304 1078 264 q 1023 421 1023 344 m 965 0 l 1312 0 l 1312 92 l 965 92 l 965 0 "},"™":{"ha":1078,"x_min":25,"x_max":958,"o":"m 250 503 l 250 920 l 393 920 l 393 991 l 25 991 l 25 920 l 167 920 l 167 503 l 250 503 m 657 503 l 728 503 l 871 880 l 876 880 l 872 787 l 872 503 l 958 503 l 958 991 l 836 991 l 699 612 l 566 991 l 439 991 l 439 503 l 519 503 l 519 794 l 515 882 l 521 882 l 657 503 "},"Ω":{"ha":1086,"x_min":54,"x_max":1034,"o":"m 543 904 q 790 817 706 904 q 875 558 875 729 q 818 294 875 408 q 636 90 760 181 l 636 0 l 1034 0 l 1034 103 l 787 103 q 943 302 890 184 q 997 559 997 419 q 877 889 997 772 q 543 1007 757 1007 q 210 888 330 1007 q 90 558 90 768 q 144 302 90 420 q 301 103 199 183 l 54 103 l 54 0 l 452 0 l 452 90 q 271 293 330 180 q 212 558 212 406 q 297 817 212 730 q 543 904 382 904 "},"℮":{"ha":860,"x_min":69,"x_max":789,"o":"m 429 -24 q 606 18 532 -24 q 746 165 680 60 l 697 193 q 580 70 642 106 q 429 35 518 35 q 317 58 374 35 q 228 118 261 82 l 228 359 l 789 359 q 743 559 789 471 q 615 695 697 647 q 429 743 532 743 q 245 696 328 743 q 116 562 163 648 q 69 359 69 475 q 114 164 69 253 q 241 26 159 76 q 429 -24 323 -24 m 632 418 l 228 418 l 228 607 q 428 686 311 686 q 543 664 488 686 q 632 606 598 642 l 632 418 "},"⅛":{"ha":1083,"x_min":48,"x_max":1033,"o":"m 854 991 l 757 991 l 144 0 l 241 0 l 854 991 m 226 991 l 48 868 l 94 803 q 203 883 185 867 q 237 913 222 898 q 233 790 233 852 l 233 397 l 323 397 l 323 991 l 226 991 m 827 604 q 692 561 745 604 q 639 449 639 518 q 658 371 639 403 q 728 309 677 340 q 645 238 670 277 q 621 152 621 199 q 674 30 621 73 q 827 -14 728 -14 q 977 33 921 -14 q 1033 156 1033 79 q 913 313 1033 263 q 1014 453 1014 365 q 963 564 1014 524 q 827 604 911 604 m 709 152 q 733 222 709 194 q 806 274 757 251 l 825 267 q 911 221 880 248 q 943 152 943 195 q 914 86 943 111 q 825 62 886 62 q 738 86 766 62 q 709 152 709 111 m 826 530 q 899 509 872 530 q 925 450 925 489 q 830 348 925 385 q 752 394 775 370 q 729 450 729 418 q 754 509 729 489 q 826 530 780 530 "},"⅜":{"ha":1083,"x_min":22,"x_max":1047,"o":"m 901 991 l 804 991 l 192 0 l 289 0 l 901 991 m 842 604 q 706 561 760 604 q 653 449 653 518 q 672 371 653 403 q 742 309 692 340 q 660 238 684 277 q 635 152 635 199 q 689 30 635 73 q 842 -14 743 -14 q 991 33 935 -14 q 1047 156 1047 79 q 928 313 1047 263 q 1028 453 1028 365 q 977 564 1028 524 q 842 604 926 604 m 724 152 q 747 222 724 194 q 820 274 771 251 l 839 267 q 925 221 894 248 q 957 152 957 195 q 928 86 957 111 q 839 62 900 62 q 752 86 781 62 q 724 152 724 111 m 840 530 q 913 509 886 530 q 939 450 939 489 q 844 348 939 385 q 766 394 789 370 q 743 450 743 418 q 769 509 743 489 q 840 530 794 530 m 425 851 q 371 964 425 924 q 226 1004 318 1004 q 115 986 162 1004 q 24 937 67 968 l 71 876 q 147 915 109 900 q 230 929 185 929 q 302 906 275 929 q 330 842 330 883 q 296 769 330 795 q 193 742 262 742 l 112 742 l 112 669 l 191 669 q 348 571 348 669 q 205 461 348 461 q 22 507 121 461 l 22 424 q 203 386 100 386 q 380 434 317 386 q 442 570 442 483 q 323 711 442 680 q 397 762 369 727 q 425 851 425 797 "},"⅝":{"ha":1083,"x_min":48,"x_max":1044,"o":"m 897 991 l 800 991 l 188 0 l 285 0 l 897 991 m 231 765 q 149 757 191 765 l 162 913 l 420 913 l 420 983 l 85 983 l 62 701 l 102 673 q 149 685 123 679 q 214 690 175 690 q 320 661 283 690 q 357 578 357 631 q 319 489 357 517 q 218 461 282 461 q 134 474 181 461 q 48 510 86 487 l 48 421 q 123 395 76 406 q 220 385 170 385 q 391 437 333 385 q 448 585 448 490 q 389 716 448 668 q 231 765 329 765 m 839 604 q 704 561 757 604 q 650 449 650 518 q 670 371 650 403 q 739 309 689 340 q 657 238 682 277 q 632 152 632 199 q 686 30 632 73 q 839 -14 740 -14 q 988 33 932 -14 q 1044 156 1044 79 q 925 313 1044 263 q 1025 453 1025 365 q 974 564 1025 524 q 839 604 923 604 m 721 152 q 745 222 721 194 q 817 274 768 251 l 836 267 q 923 221 891 248 q 954 152 954 195 q 926 86 954 111 q 836 62 897 62 q 749 86 778 62 q 721 152 721 111 m 838 530 q 910 509 884 530 q 937 450 937 489 q 842 348 937 385 q 764 394 787 370 q 741 450 741 418 q 766 509 741 489 q 838 530 791 530 "},"⅞":{"ha":1083,"x_min":72,"x_max":1042,"o":"m 839 991 l 742 991 l 130 0 l 227 0 l 839 991 m 836 604 q 701 561 754 604 q 648 449 648 518 q 667 371 648 403 q 736 309 686 340 q 654 238 679 277 q 629 152 629 199 q 683 30 629 73 q 836 -14 737 -14 q 986 33 930 -14 q 1042 156 1042 79 q 922 313 1042 263 q 1023 453 1023 365 q 971 564 1023 524 q 836 604 920 604 m 718 152 q 742 222 718 194 q 814 274 766 251 l 833 267 q 920 221 888 248 q 951 152 951 195 q 923 86 951 111 q 833 62 895 62 q 747 86 775 62 q 718 152 718 111 m 835 530 q 907 509 881 530 q 934 450 934 489 q 839 348 934 385 q 761 394 784 370 q 738 450 738 418 q 763 509 738 489 q 835 530 789 530 m 143 397 l 239 397 l 477 928 l 477 991 l 72 991 l 72 913 l 380 913 l 143 397 "},"∂":{"ha":807,"x_min":69,"x_max":730,"o":"m 730 633 q 657 909 730 816 q 441 1003 584 1003 q 339 990 391 1003 q 254 962 286 978 l 254 854 q 336 892 287 877 q 427 907 385 907 q 618 632 618 907 l 615 571 q 536 653 586 622 q 421 685 487 685 q 240 630 319 685 q 115 472 161 576 q 69 253 69 368 q 133 55 69 123 q 313 -14 196 -14 q 524 65 430 -14 q 674 300 617 144 q 730 633 730 456 m 319 82 q 220 126 254 82 q 186 250 186 170 q 220 422 186 337 q 310 551 254 507 q 435 596 366 596 q 532 559 489 596 q 593 457 576 523 q 537 268 578 355 q 440 131 496 180 q 319 82 384 82 "},"∆":{"ha":794,"x_min":26,"x_max":768,"o":"m 26 71 l 26 0 l 768 0 l 768 69 l 453 991 l 340 991 l 26 71 m 396 860 q 465 619 419 756 l 640 103 l 151 103 l 328 625 q 396 860 355 707 "},"∏":{"ha":1026,"x_min":136,"x_max":890,"o":"m 775 -336 l 890 -336 l 890 991 l 136 991 l 136 -336 l 252 -336 l 252 888 l 775 888 l 775 -336 "},"∑":{"ha":876,"x_min":52,"x_max":844,"o":"m 52 -336 l 844 -336 l 844 -233 l 208 -233 l 618 366 l 225 889 l 800 889 l 800 991 l 62 991 l 62 918 l 479 363 l 52 -264 l 52 -336 "},"−":{"ha":794,"x_min":71,"x_max":722,"o":"m 71 443 l 722 443 l 722 536 l 71 536 l 71 443 "},"√":{"ha":762,"x_min":25,"x_max":822,"o":"m 422 -9 l 822 1145 l 729 1145 l 380 149 l 221 612 l 25 612 l 25 521 l 147 521 l 336 -9 l 422 -9 "},"∞":{"ha":979,"x_min":81,"x_max":899,"o":"m 899 488 q 844 641 899 581 q 699 700 789 700 q 489 554 573 700 q 283 703 406 703 q 138 642 195 703 q 81 490 81 581 q 138 335 81 394 q 283 277 195 277 q 395 315 343 277 q 488 424 447 353 q 584 309 532 345 q 699 273 635 273 q 842 336 785 273 q 899 488 899 399 m 289 361 q 201 397 234 361 q 168 489 168 433 q 202 584 168 548 q 288 619 236 619 q 373 588 336 619 q 444 490 410 556 q 371 392 408 422 q 289 361 334 361 m 690 616 q 777 581 743 616 q 811 488 811 545 q 777 394 811 431 q 692 358 743 358 q 606 390 644 358 q 534 488 569 422 q 609 585 572 554 q 690 616 646 616 "},"∫":{"ha":533,"x_min":8,"x_max":515,"o":"m 432 1055 q 212 810 212 1055 l 212 -79 q 89 -244 212 -244 q 8 -229 50 -244 l 8 -321 q 98 -334 48 -334 q 265 -270 209 -334 q 321 -87 321 -207 l 321 802 q 440 966 321 966 q 515 951 482 966 l 515 1044 q 432 1055 486 1055 "},"≈":{"ha":794,"x_min":66,"x_max":725,"o":"m 228 347 q 292 339 261 347 q 372 310 323 330 q 470 275 432 285 q 553 265 507 265 q 725 339 656 265 l 725 441 q 645 380 688 403 q 566 358 602 358 q 504 367 535 358 q 421 397 473 375 q 323 432 361 422 q 240 441 286 441 q 66 367 140 441 l 66 265 q 148 326 105 304 q 228 347 191 347 m 228 623 q 287 614 258 623 q 372 583 315 606 q 466 550 426 561 q 553 539 506 539 q 725 614 657 539 l 725 715 q 647 656 690 678 q 566 633 603 633 q 500 642 532 633 q 421 671 468 651 q 326 705 366 694 q 240 715 287 715 q 66 642 138 715 l 66 541 q 146 600 102 576 q 228 623 189 623 "}}}
